G04 Layer: BottomLayer*
G04 EasyEDA v6.4.25, 2021-09-19T13:56:21+08:00*
G04 cf7ef8cfdd7b4478b9a214f7d578d54c,d03eed67808b488db07f83a96349b93e,10*
G04 Gerber Generator version 0.2*
G04 Scale: 100 percent, Rotated: No, Reflected: No *
G04 Dimensions in inches *
G04 leading zeros omitted , absolute positions ,3 integer and 6 decimal *
%FSLAX36Y36*%
%MOIN*%

%ADD10C,0.0100*%
%ADD11C,0.0050*%
%ADD13C,0.0200*%
%ADD22C,0.0709*%
%ADD26C,0.0669*%
%ADD27C,0.0630*%
%ADD28C,0.1339*%
%ADD29C,0.0157*%

%LPD*%
G36*
X399580Y-1546080D02*
G01*
X397900Y-1546320D01*
X396280Y-1546879D01*
X394820Y-1547720D01*
X394140Y-1548240D01*
X392980Y-1549480D01*
X392060Y-1550900D01*
X391420Y-1552480D01*
X391100Y-1554160D01*
X391100Y-1555840D01*
X391420Y-1557520D01*
X392060Y-1559100D01*
X392980Y-1560520D01*
X394140Y-1561759D01*
X395540Y-1562740D01*
X397080Y-1563440D01*
X398720Y-1563839D01*
X400420Y-1563920D01*
X402100Y-1563680D01*
X403720Y-1563120D01*
X405180Y-1562280D01*
X405860Y-1561759D01*
X407020Y-1560520D01*
X407939Y-1559100D01*
X408579Y-1557520D01*
X408900Y-1555840D01*
X408900Y-1554160D01*
X408579Y-1552480D01*
X407939Y-1550900D01*
X407020Y-1549480D01*
X405860Y-1548240D01*
X404460Y-1547260D01*
X402920Y-1546560D01*
X401280Y-1546160D01*
G37*
G36*
X694479Y-1831980D02*
G01*
X693160Y-1832140D01*
X691919Y-1832620D01*
X690840Y-1833380D01*
X689960Y-1834360D01*
X689340Y-1835540D01*
X689020Y-1836840D01*
X689020Y-1838160D01*
X689340Y-1839460D01*
X689960Y-1840640D01*
X690840Y-1841620D01*
X691919Y-1842380D01*
X693160Y-1842860D01*
X694479Y-1843020D01*
X695800Y-1842860D01*
X697060Y-1842380D01*
X698139Y-1841620D01*
X699020Y-1840640D01*
X699640Y-1839460D01*
X699960Y-1838160D01*
X699960Y-1836840D01*
X699640Y-1835540D01*
X699020Y-1834360D01*
X698139Y-1833380D01*
X697060Y-1832620D01*
X695800Y-1832140D01*
G37*
G36*
X680000Y-1786980D02*
G01*
X678680Y-1787140D01*
X677440Y-1787620D01*
X676340Y-1788380D01*
X675460Y-1789360D01*
X674840Y-1790540D01*
X674520Y-1791840D01*
X674520Y-1793160D01*
X674840Y-1794460D01*
X675460Y-1795620D01*
X676340Y-1796620D01*
X677440Y-1797380D01*
X678040Y-1797660D01*
X679340Y-1797960D01*
X680660Y-1797960D01*
X681960Y-1797660D01*
X683139Y-1797040D01*
X684120Y-1796160D01*
X684880Y-1795060D01*
X685360Y-1793820D01*
X685520Y-1792500D01*
X685360Y-1791180D01*
X684880Y-1789940D01*
X684120Y-1788839D01*
X683139Y-1787960D01*
X681960Y-1787340D01*
X680660Y-1787020D01*
G37*
G36*
X720000Y-1821980D02*
G01*
X718680Y-1822140D01*
X717440Y-1822620D01*
X716340Y-1823380D01*
X715460Y-1824360D01*
X714860Y-1825540D01*
X714539Y-1826840D01*
X714539Y-1828160D01*
X714860Y-1829460D01*
X715460Y-1830640D01*
X716340Y-1831620D01*
X717440Y-1832380D01*
X718680Y-1832860D01*
X720000Y-1833020D01*
X721320Y-1832860D01*
X722560Y-1832380D01*
X723660Y-1831620D01*
X724539Y-1830640D01*
X725160Y-1829460D01*
X725480Y-1828160D01*
X725480Y-1826840D01*
X725160Y-1825540D01*
X724539Y-1824360D01*
X723660Y-1823380D01*
X722560Y-1822620D01*
X721320Y-1822140D01*
G37*
G36*
X740000Y-1811980D02*
G01*
X738680Y-1812140D01*
X737440Y-1812620D01*
X736340Y-1813380D01*
X735460Y-1814360D01*
X734840Y-1815540D01*
X734520Y-1816840D01*
X734520Y-1818160D01*
X734840Y-1819460D01*
X735460Y-1820620D01*
X736340Y-1821620D01*
X737440Y-1822380D01*
X738040Y-1822660D01*
X739340Y-1822960D01*
X740660Y-1822960D01*
X741960Y-1822660D01*
X743139Y-1822040D01*
X744120Y-1821160D01*
X744880Y-1820060D01*
X745360Y-1818820D01*
X745520Y-1817500D01*
X745360Y-1816180D01*
X744880Y-1814940D01*
X744120Y-1813839D01*
X743139Y-1812960D01*
X741960Y-1812340D01*
X740660Y-1812020D01*
G37*
G36*
X660000Y-1796980D02*
G01*
X658680Y-1797140D01*
X657440Y-1797620D01*
X656340Y-1798380D01*
X655460Y-1799360D01*
X654840Y-1800540D01*
X654520Y-1801840D01*
X654520Y-1803160D01*
X654840Y-1804460D01*
X655460Y-1805640D01*
X656340Y-1806620D01*
X657440Y-1807380D01*
X658680Y-1807860D01*
X660000Y-1808020D01*
X661320Y-1807860D01*
X662560Y-1807380D01*
X663660Y-1806620D01*
X664539Y-1805640D01*
X665160Y-1804460D01*
X665480Y-1803160D01*
X665480Y-1801840D01*
X665160Y-1800540D01*
X664539Y-1799360D01*
X663660Y-1798380D01*
X662560Y-1797620D01*
X661320Y-1797140D01*
G37*
D10*
X223600Y-768299D02*
G01*
X223600Y-811399D01*
X175000Y-860000D01*
X175000Y-1094699D01*
X119699Y-1150000D01*
X85000Y-1761399D02*
G01*
X133600Y-1761399D01*
X195000Y-1700000D01*
X195000Y-870000D01*
X265000Y-800000D01*
X265000Y-700000D01*
X65000Y-500000D01*
X250000Y-1685000D02*
G01*
X235000Y-1670000D01*
X235000Y-890000D01*
X300000Y-825000D01*
X475000Y-825000D01*
X525000Y-775000D01*
X525000Y-610000D01*
X735000Y-400000D01*
X270000Y-1605000D02*
G01*
X255000Y-1590000D01*
X255000Y-900000D01*
X310000Y-845000D01*
X485000Y-845000D01*
X545000Y-785000D01*
X545000Y-620000D01*
X665000Y-500000D01*
X735000Y-500000D01*
X615000Y-725000D02*
G01*
X615000Y-965000D01*
X715000Y-1367699D02*
G01*
X715000Y-1065000D01*
X315000Y-1065000D02*
G01*
X315000Y-1120000D01*
X470000Y-1275000D01*
X470000Y-1340000D01*
X605000Y-1475000D01*
X605000Y-1705000D01*
X65000Y-600000D02*
G01*
X155000Y-690000D01*
X155000Y-1014699D01*
X119699Y-1050000D01*
X65000Y-700000D02*
G01*
X135000Y-770000D01*
X135000Y-934699D01*
X119699Y-950000D01*
X425000Y-508090D02*
G01*
X328090Y-605000D01*
X266460Y-605000D01*
X475000Y-508099D02*
G01*
X475000Y-475000D01*
X490000Y-460000D01*
X490000Y-430000D01*
X390000Y-330000D01*
X390000Y-224800D01*
X360599Y-195399D01*
X451199Y-725000D02*
G01*
X451199Y-681199D01*
X425000Y-655000D01*
X425000Y-508099D01*
X275000Y-281900D02*
G01*
X275000Y-320000D01*
X425000Y-470000D01*
X425000Y-508099D01*
X185000Y-590000D02*
G01*
X220000Y-555000D01*
X278099Y-555000D01*
X325000Y-508099D01*
X85010Y-1840149D02*
G01*
X129899Y-1840149D01*
X215000Y-1755000D01*
X215000Y-880000D01*
X285000Y-810000D01*
X285000Y-690000D01*
X130000Y-535000D01*
X130000Y-465000D01*
X65000Y-400000D01*
X515000Y-1065000D02*
G01*
X510000Y-1065000D01*
X510000Y-1320000D01*
X645000Y-1455000D01*
X645000Y-1500000D01*
X670199Y-1525199D01*
X715000Y-1525199D01*
X415000Y-1065000D02*
G01*
X415000Y-1130000D01*
X490000Y-1205000D01*
X490000Y-1330000D01*
X625000Y-1465000D01*
X625000Y-1560000D01*
X668899Y-1603899D01*
X715000Y-1603899D01*
X615000Y-1065000D02*
G01*
X615000Y-1120000D01*
X530000Y-1205000D01*
X530000Y-1310000D01*
X666399Y-1446399D01*
X715000Y-1446399D01*
X525000Y-508099D02*
G01*
X525000Y-475000D01*
X510000Y-460000D01*
X510000Y-420000D01*
X410000Y-320000D01*
X410000Y-224800D01*
X439400Y-195399D01*
D11*
X25122Y-1870321D02*
G01*
X21067Y-1865314D01*
X21067Y-1865314D02*
G01*
X17558Y-1859911D01*
X17558Y-1859911D02*
G01*
X14633Y-1854170D01*
X14633Y-1854170D02*
G01*
X12324Y-1848155D01*
X12324Y-1848155D02*
G01*
X10657Y-1841931D01*
X10657Y-1841931D02*
G01*
X9649Y-1835568D01*
X9649Y-1835568D02*
G01*
X9299Y-1828903D01*
X9299Y-1828903D02*
G01*
X9299Y-71096D01*
X9299Y-71096D02*
G01*
X9649Y-64431D01*
X9649Y-64431D02*
G01*
X10657Y-58068D01*
X10657Y-58068D02*
G01*
X12324Y-51844D01*
X12324Y-51844D02*
G01*
X14633Y-45829D01*
X14633Y-45829D02*
G01*
X17558Y-40088D01*
X17558Y-40088D02*
G01*
X21067Y-34685D01*
X21067Y-34685D02*
G01*
X25122Y-29678D01*
X25122Y-29678D02*
G01*
X29678Y-25122D01*
X29678Y-25122D02*
G01*
X34685Y-21067D01*
X34685Y-21067D02*
G01*
X40088Y-17558D01*
X40088Y-17558D02*
G01*
X45829Y-14633D01*
X45829Y-14633D02*
G01*
X51844Y-12324D01*
X51844Y-12324D02*
G01*
X58068Y-10657D01*
X58068Y-10657D02*
G01*
X64431Y-9649D01*
X64431Y-9649D02*
G01*
X71096Y-9299D01*
X71096Y-9299D02*
G01*
X728903Y-9299D01*
X728903Y-9299D02*
G01*
X735568Y-9649D01*
X735568Y-9649D02*
G01*
X741931Y-10657D01*
X741931Y-10657D02*
G01*
X748155Y-12324D01*
X748155Y-12324D02*
G01*
X754170Y-14633D01*
X754170Y-14633D02*
G01*
X759911Y-17558D01*
X759911Y-17558D02*
G01*
X765314Y-21067D01*
X765314Y-21067D02*
G01*
X770321Y-25122D01*
X770321Y-25122D02*
G01*
X774877Y-29678D01*
X774877Y-29678D02*
G01*
X778932Y-34685D01*
X778932Y-34685D02*
G01*
X782441Y-40088D01*
X782441Y-40088D02*
G01*
X785366Y-45829D01*
X785366Y-45829D02*
G01*
X787675Y-51844D01*
X787675Y-51844D02*
G01*
X789342Y-58068D01*
X789342Y-58068D02*
G01*
X790350Y-64431D01*
X790350Y-64431D02*
G01*
X790699Y-71096D01*
X790699Y-71096D02*
G01*
X790699Y-1828903D01*
X790699Y-1828903D02*
G01*
X790350Y-1835568D01*
X790350Y-1835568D02*
G01*
X789342Y-1841931D01*
X789342Y-1841931D02*
G01*
X787675Y-1848155D01*
X787675Y-1848155D02*
G01*
X785366Y-1854170D01*
X785366Y-1854170D02*
G01*
X782441Y-1859911D01*
X782441Y-1859911D02*
G01*
X778932Y-1865314D01*
X778932Y-1865314D02*
G01*
X774877Y-1870321D01*
X774877Y-1870321D02*
G01*
X770321Y-1874877D01*
X770321Y-1874877D02*
G01*
X765314Y-1878932D01*
X765314Y-1878932D02*
G01*
X759911Y-1882441D01*
X759911Y-1882441D02*
G01*
X754170Y-1885366D01*
X754170Y-1885366D02*
G01*
X748155Y-1887675D01*
X748155Y-1887675D02*
G01*
X741931Y-1889342D01*
X741931Y-1889342D02*
G01*
X735568Y-1890350D01*
X735568Y-1890350D02*
G01*
X728903Y-1890700D01*
X728903Y-1890700D02*
G01*
X71096Y-1890700D01*
X71096Y-1890700D02*
G01*
X64431Y-1890350D01*
X64431Y-1890350D02*
G01*
X58068Y-1889342D01*
X58068Y-1889342D02*
G01*
X51844Y-1887675D01*
X51844Y-1887675D02*
G01*
X45829Y-1885366D01*
X45829Y-1885366D02*
G01*
X40088Y-1882441D01*
X40088Y-1882441D02*
G01*
X34685Y-1878932D01*
X34685Y-1878932D02*
G01*
X29678Y-1874877D01*
X29678Y-1874877D02*
G01*
X25122Y-1870321D01*
X64434Y-1853078D02*
G01*
X67073Y-1856544D01*
X67073Y-1856544D02*
G01*
X70289Y-1859483D01*
X70289Y-1859483D02*
G01*
X73978Y-1861801D01*
X73978Y-1861801D02*
G01*
X78021Y-1863423D01*
X78021Y-1863423D02*
G01*
X82289Y-1864297D01*
X82289Y-1864297D02*
G01*
X86644Y-1864394D01*
X86644Y-1864394D02*
G01*
X90947Y-1863713D01*
X90947Y-1863713D02*
G01*
X95059Y-1862274D01*
X95059Y-1862274D02*
G01*
X98848Y-1860124D01*
X98848Y-1860124D02*
G01*
X99656Y-1859450D01*
X99656Y-1859450D02*
G01*
X129899Y-1859450D01*
X129899Y-1859450D02*
G01*
X133665Y-1859079D01*
X133665Y-1859079D02*
G01*
X137285Y-1857980D01*
X137285Y-1857980D02*
G01*
X140622Y-1856197D01*
X140622Y-1856197D02*
G01*
X143547Y-1853797D01*
X143547Y-1853797D02*
G01*
X228651Y-1768643D01*
X228651Y-1768643D02*
G01*
X231047Y-1765722D01*
X231047Y-1765722D02*
G01*
X232830Y-1762385D01*
X232830Y-1762385D02*
G01*
X233929Y-1758765D01*
X233929Y-1758765D02*
G01*
X234299Y-1755000D01*
X234299Y-1755000D02*
G01*
X234299Y-1703438D01*
X234299Y-1703438D02*
G01*
X235279Y-1704333D01*
X235279Y-1704333D02*
G01*
X238967Y-1706651D01*
X238967Y-1706651D02*
G01*
X243011Y-1708273D01*
X243011Y-1708273D02*
G01*
X247279Y-1709147D01*
X247279Y-1709147D02*
G01*
X251634Y-1709245D01*
X251634Y-1709245D02*
G01*
X255937Y-1708563D01*
X255937Y-1708563D02*
G01*
X260049Y-1707124D01*
X260049Y-1707124D02*
G01*
X263838Y-1704974D01*
X263838Y-1704974D02*
G01*
X267182Y-1702182D01*
X267182Y-1702182D02*
G01*
X269974Y-1698838D01*
X269974Y-1698838D02*
G01*
X272124Y-1695049D01*
X272124Y-1695049D02*
G01*
X273563Y-1690937D01*
X273563Y-1690937D02*
G01*
X274245Y-1686634D01*
X274245Y-1686634D02*
G01*
X274147Y-1682279D01*
X274147Y-1682279D02*
G01*
X273273Y-1678011D01*
X273273Y-1678011D02*
G01*
X271651Y-1673967D01*
X271651Y-1673967D02*
G01*
X269333Y-1670279D01*
X269333Y-1670279D02*
G01*
X266394Y-1667063D01*
X266394Y-1667063D02*
G01*
X262928Y-1664424D01*
X262928Y-1664424D02*
G01*
X259046Y-1662446D01*
X259046Y-1662446D02*
G01*
X254874Y-1661193D01*
X254874Y-1661193D02*
G01*
X254299Y-1661129D01*
X254299Y-1661129D02*
G01*
X254299Y-1623438D01*
X254299Y-1623438D02*
G01*
X255279Y-1624333D01*
X255279Y-1624333D02*
G01*
X258967Y-1626651D01*
X258967Y-1626651D02*
G01*
X263011Y-1628273D01*
X263011Y-1628273D02*
G01*
X267279Y-1629147D01*
X267279Y-1629147D02*
G01*
X271634Y-1629245D01*
X271634Y-1629245D02*
G01*
X275937Y-1628563D01*
X275937Y-1628563D02*
G01*
X280049Y-1627124D01*
X280049Y-1627124D02*
G01*
X283838Y-1624974D01*
X283838Y-1624974D02*
G01*
X287182Y-1622182D01*
X287182Y-1622182D02*
G01*
X289974Y-1618838D01*
X289974Y-1618838D02*
G01*
X292124Y-1615049D01*
X292124Y-1615049D02*
G01*
X293563Y-1610937D01*
X293563Y-1610937D02*
G01*
X294245Y-1606634D01*
X294245Y-1606634D02*
G01*
X294147Y-1602279D01*
X294147Y-1602279D02*
G01*
X293273Y-1598011D01*
X293273Y-1598011D02*
G01*
X291651Y-1593967D01*
X291651Y-1593967D02*
G01*
X289333Y-1590279D01*
X289333Y-1590279D02*
G01*
X286394Y-1587063D01*
X286394Y-1587063D02*
G01*
X282928Y-1584424D01*
X282928Y-1584424D02*
G01*
X279046Y-1582446D01*
X279046Y-1582446D02*
G01*
X274874Y-1581193D01*
X274874Y-1581193D02*
G01*
X274299Y-1581129D01*
X274299Y-1581129D02*
G01*
X274299Y-1089849D01*
X274299Y-1089849D02*
G01*
X276720Y-1093568D01*
X276720Y-1093568D02*
G01*
X280688Y-1098228D01*
X280688Y-1098228D02*
G01*
X285219Y-1102343D01*
X285219Y-1102343D02*
G01*
X290239Y-1105845D01*
X290239Y-1105845D02*
G01*
X295700Y-1108689D01*
X295700Y-1108689D02*
G01*
X295700Y-1120000D01*
X295700Y-1120000D02*
G01*
X296070Y-1123765D01*
X296070Y-1123765D02*
G01*
X297169Y-1127385D01*
X297169Y-1127385D02*
G01*
X298952Y-1130722D01*
X298952Y-1130722D02*
G01*
X301352Y-1133647D01*
X301352Y-1133647D02*
G01*
X450700Y-1282994D01*
X450700Y-1282994D02*
G01*
X450700Y-1340000D01*
X450700Y-1340000D02*
G01*
X451070Y-1343765D01*
X451070Y-1343765D02*
G01*
X452169Y-1347385D01*
X452169Y-1347385D02*
G01*
X453952Y-1350722D01*
X453952Y-1350722D02*
G01*
X456352Y-1353647D01*
X456352Y-1353647D02*
G01*
X585700Y-1482994D01*
X585700Y-1482994D02*
G01*
X585700Y-1690359D01*
X585700Y-1690359D02*
G01*
X583865Y-1693007D01*
X583865Y-1693007D02*
G01*
X582063Y-1696974D01*
X582063Y-1696974D02*
G01*
X580999Y-1701198D01*
X580999Y-1701198D02*
G01*
X580706Y-1705545D01*
X580706Y-1705545D02*
G01*
X581193Y-1709874D01*
X581193Y-1709874D02*
G01*
X582446Y-1714046D01*
X582446Y-1714046D02*
G01*
X584424Y-1717928D01*
X584424Y-1717928D02*
G01*
X587063Y-1721394D01*
X587063Y-1721394D02*
G01*
X590279Y-1724333D01*
X590279Y-1724333D02*
G01*
X593967Y-1726651D01*
X593967Y-1726651D02*
G01*
X598011Y-1728273D01*
X598011Y-1728273D02*
G01*
X602279Y-1729147D01*
X602279Y-1729147D02*
G01*
X606634Y-1729245D01*
X606634Y-1729245D02*
G01*
X610937Y-1728563D01*
X610937Y-1728563D02*
G01*
X615049Y-1727124D01*
X615049Y-1727124D02*
G01*
X618838Y-1724974D01*
X618838Y-1724974D02*
G01*
X622182Y-1722182D01*
X622182Y-1722182D02*
G01*
X624974Y-1718838D01*
X624974Y-1718838D02*
G01*
X627124Y-1715049D01*
X627124Y-1715049D02*
G01*
X628563Y-1710937D01*
X628563Y-1710937D02*
G01*
X629245Y-1706634D01*
X629245Y-1706634D02*
G01*
X629147Y-1702279D01*
X629147Y-1702279D02*
G01*
X628273Y-1698011D01*
X628273Y-1698011D02*
G01*
X626651Y-1693967D01*
X626651Y-1693967D02*
G01*
X624299Y-1690242D01*
X624299Y-1690242D02*
G01*
X624299Y-1586594D01*
X624299Y-1586594D02*
G01*
X655252Y-1617547D01*
X655252Y-1617547D02*
G01*
X658177Y-1619947D01*
X658177Y-1619947D02*
G01*
X661514Y-1621730D01*
X661514Y-1621730D02*
G01*
X665134Y-1622829D01*
X665134Y-1622829D02*
G01*
X668899Y-1623200D01*
X668899Y-1623200D02*
G01*
X700229Y-1623200D01*
X700229Y-1623200D02*
G01*
X703987Y-1625581D01*
X703987Y-1625581D02*
G01*
X708031Y-1627203D01*
X708031Y-1627203D02*
G01*
X712299Y-1628077D01*
X712299Y-1628077D02*
G01*
X716654Y-1628175D01*
X716654Y-1628175D02*
G01*
X720957Y-1627493D01*
X720957Y-1627493D02*
G01*
X725069Y-1626054D01*
X725069Y-1626054D02*
G01*
X728858Y-1623904D01*
X728858Y-1623904D02*
G01*
X732202Y-1621112D01*
X732202Y-1621112D02*
G01*
X734994Y-1617768D01*
X734994Y-1617768D02*
G01*
X737144Y-1613979D01*
X737144Y-1613979D02*
G01*
X738583Y-1609867D01*
X738583Y-1609867D02*
G01*
X739265Y-1605564D01*
X739265Y-1605564D02*
G01*
X739167Y-1601209D01*
X739167Y-1601209D02*
G01*
X738293Y-1596941D01*
X738293Y-1596941D02*
G01*
X736671Y-1592898D01*
X736671Y-1592898D02*
G01*
X734353Y-1589209D01*
X734353Y-1589209D02*
G01*
X731414Y-1585993D01*
X731414Y-1585993D02*
G01*
X727948Y-1583354D01*
X727948Y-1583354D02*
G01*
X724066Y-1581376D01*
X724066Y-1581376D02*
G01*
X719894Y-1580123D01*
X719894Y-1580123D02*
G01*
X715565Y-1579636D01*
X715565Y-1579636D02*
G01*
X711218Y-1579929D01*
X711218Y-1579929D02*
G01*
X706994Y-1580993D01*
X706994Y-1580993D02*
G01*
X703027Y-1582795D01*
X703027Y-1582795D02*
G01*
X700422Y-1584600D01*
X700422Y-1584600D02*
G01*
X676894Y-1584600D01*
X676894Y-1584600D02*
G01*
X644299Y-1552005D01*
X644299Y-1552005D02*
G01*
X644299Y-1526594D01*
X644299Y-1526594D02*
G01*
X656552Y-1538847D01*
X656552Y-1538847D02*
G01*
X659477Y-1541247D01*
X659477Y-1541247D02*
G01*
X662814Y-1543030D01*
X662814Y-1543030D02*
G01*
X666434Y-1544129D01*
X666434Y-1544129D02*
G01*
X670199Y-1544499D01*
X670199Y-1544499D02*
G01*
X700273Y-1544499D01*
X700273Y-1544499D02*
G01*
X703987Y-1546841D01*
X703987Y-1546841D02*
G01*
X708031Y-1548463D01*
X708031Y-1548463D02*
G01*
X712299Y-1549337D01*
X712299Y-1549337D02*
G01*
X716654Y-1549434D01*
X716654Y-1549434D02*
G01*
X720957Y-1548753D01*
X720957Y-1548753D02*
G01*
X725069Y-1547314D01*
X725069Y-1547314D02*
G01*
X728858Y-1545164D01*
X728858Y-1545164D02*
G01*
X732202Y-1542372D01*
X732202Y-1542372D02*
G01*
X734994Y-1539028D01*
X734994Y-1539028D02*
G01*
X737144Y-1535239D01*
X737144Y-1535239D02*
G01*
X738583Y-1531127D01*
X738583Y-1531127D02*
G01*
X739265Y-1526824D01*
X739265Y-1526824D02*
G01*
X739167Y-1522469D01*
X739167Y-1522469D02*
G01*
X738293Y-1518201D01*
X738293Y-1518201D02*
G01*
X736671Y-1514158D01*
X736671Y-1514158D02*
G01*
X734353Y-1510469D01*
X734353Y-1510469D02*
G01*
X731414Y-1507253D01*
X731414Y-1507253D02*
G01*
X727948Y-1504614D01*
X727948Y-1504614D02*
G01*
X724066Y-1502636D01*
X724066Y-1502636D02*
G01*
X719894Y-1501383D01*
X719894Y-1501383D02*
G01*
X715565Y-1500896D01*
X715565Y-1500896D02*
G01*
X711218Y-1501189D01*
X711218Y-1501189D02*
G01*
X706994Y-1502253D01*
X706994Y-1502253D02*
G01*
X703027Y-1504055D01*
X703027Y-1504055D02*
G01*
X700365Y-1505900D01*
X700365Y-1505900D02*
G01*
X678194Y-1505900D01*
X678194Y-1505900D02*
G01*
X664299Y-1492005D01*
X664299Y-1492005D02*
G01*
X664299Y-1465492D01*
X664299Y-1465492D02*
G01*
X666399Y-1465698D01*
X666399Y-1465698D02*
G01*
X700217Y-1465698D01*
X700217Y-1465698D02*
G01*
X703987Y-1468091D01*
X703987Y-1468091D02*
G01*
X708031Y-1469713D01*
X708031Y-1469713D02*
G01*
X712299Y-1470587D01*
X712299Y-1470587D02*
G01*
X716654Y-1470684D01*
X716654Y-1470684D02*
G01*
X720957Y-1470003D01*
X720957Y-1470003D02*
G01*
X725069Y-1468564D01*
X725069Y-1468564D02*
G01*
X728858Y-1466414D01*
X728858Y-1466414D02*
G01*
X732202Y-1463622D01*
X732202Y-1463622D02*
G01*
X734994Y-1460278D01*
X734994Y-1460278D02*
G01*
X737144Y-1456489D01*
X737144Y-1456489D02*
G01*
X738583Y-1452377D01*
X738583Y-1452377D02*
G01*
X739265Y-1448074D01*
X739265Y-1448074D02*
G01*
X739167Y-1443719D01*
X739167Y-1443719D02*
G01*
X738293Y-1439451D01*
X738293Y-1439451D02*
G01*
X736671Y-1435408D01*
X736671Y-1435408D02*
G01*
X734353Y-1431719D01*
X734353Y-1431719D02*
G01*
X731414Y-1428503D01*
X731414Y-1428503D02*
G01*
X727948Y-1425864D01*
X727948Y-1425864D02*
G01*
X724066Y-1423886D01*
X724066Y-1423886D02*
G01*
X719894Y-1422633D01*
X719894Y-1422633D02*
G01*
X715565Y-1422146D01*
X715565Y-1422146D02*
G01*
X711218Y-1422439D01*
X711218Y-1422439D02*
G01*
X706994Y-1423503D01*
X706994Y-1423503D02*
G01*
X703027Y-1425305D01*
X703027Y-1425305D02*
G01*
X700438Y-1427098D01*
X700438Y-1427098D02*
G01*
X674393Y-1427098D01*
X674393Y-1427098D02*
G01*
X549299Y-1302005D01*
X549299Y-1302005D02*
G01*
X549299Y-1212994D01*
X549299Y-1212994D02*
G01*
X628647Y-1133647D01*
X628647Y-1133647D02*
G01*
X631047Y-1130722D01*
X631047Y-1130722D02*
G01*
X632830Y-1127385D01*
X632830Y-1127385D02*
G01*
X633929Y-1123765D01*
X633929Y-1123765D02*
G01*
X634299Y-1120000D01*
X634299Y-1120000D02*
G01*
X634299Y-1108584D01*
X634299Y-1108584D02*
G01*
X637092Y-1107348D01*
X637092Y-1107348D02*
G01*
X642326Y-1104175D01*
X642326Y-1104175D02*
G01*
X647112Y-1100358D01*
X647112Y-1100358D02*
G01*
X651370Y-1095962D01*
X651370Y-1095962D02*
G01*
X655030Y-1091057D01*
X655030Y-1091057D02*
G01*
X658034Y-1085724D01*
X658034Y-1085724D02*
G01*
X660331Y-1080050D01*
X660331Y-1080050D02*
G01*
X661883Y-1074130D01*
X661883Y-1074130D02*
G01*
X662666Y-1068060D01*
X662666Y-1068060D02*
G01*
X662666Y-1061939D01*
X662666Y-1061939D02*
G01*
X661883Y-1055869D01*
X661883Y-1055869D02*
G01*
X660331Y-1049949D01*
X660331Y-1049949D02*
G01*
X658034Y-1044275D01*
X658034Y-1044275D02*
G01*
X655030Y-1038942D01*
X655030Y-1038942D02*
G01*
X651370Y-1034037D01*
X651370Y-1034037D02*
G01*
X647112Y-1029641D01*
X647112Y-1029641D02*
G01*
X642326Y-1025824D01*
X642326Y-1025824D02*
G01*
X637092Y-1022651D01*
X637092Y-1022651D02*
G01*
X631496Y-1020174D01*
X631496Y-1020174D02*
G01*
X625628Y-1018433D01*
X625628Y-1018433D02*
G01*
X619586Y-1017456D01*
X619586Y-1017456D02*
G01*
X613469Y-1017260D01*
X613469Y-1017260D02*
G01*
X607376Y-1017847D01*
X607376Y-1017847D02*
G01*
X601409Y-1019209D01*
X601409Y-1019209D02*
G01*
X595665Y-1021323D01*
X595665Y-1021323D02*
G01*
X590239Y-1024154D01*
X590239Y-1024154D02*
G01*
X585219Y-1027656D01*
X585219Y-1027656D02*
G01*
X580688Y-1031771D01*
X580688Y-1031771D02*
G01*
X576720Y-1036431D01*
X576720Y-1036431D02*
G01*
X573381Y-1041561D01*
X573381Y-1041561D02*
G01*
X570726Y-1047075D01*
X570726Y-1047075D02*
G01*
X568797Y-1052884D01*
X568797Y-1052884D02*
G01*
X567627Y-1058892D01*
X567627Y-1058892D02*
G01*
X567235Y-1065000D01*
X567235Y-1065000D02*
G01*
X567627Y-1071107D01*
X567627Y-1071107D02*
G01*
X568797Y-1077115D01*
X568797Y-1077115D02*
G01*
X570726Y-1082924D01*
X570726Y-1082924D02*
G01*
X573381Y-1088438D01*
X573381Y-1088438D02*
G01*
X576720Y-1093568D01*
X576720Y-1093568D02*
G01*
X580688Y-1098228D01*
X580688Y-1098228D02*
G01*
X585219Y-1102343D01*
X585219Y-1102343D02*
G01*
X590239Y-1105845D01*
X590239Y-1105845D02*
G01*
X595665Y-1108676D01*
X595665Y-1108676D02*
G01*
X595700Y-1112005D01*
X595700Y-1112005D02*
G01*
X529299Y-1178405D01*
X529299Y-1178405D02*
G01*
X529299Y-1110477D01*
X529299Y-1110477D02*
G01*
X531496Y-1109825D01*
X531496Y-1109825D02*
G01*
X537092Y-1107348D01*
X537092Y-1107348D02*
G01*
X542326Y-1104175D01*
X542326Y-1104175D02*
G01*
X547112Y-1100358D01*
X547112Y-1100358D02*
G01*
X551370Y-1095962D01*
X551370Y-1095962D02*
G01*
X555030Y-1091057D01*
X555030Y-1091057D02*
G01*
X558034Y-1085724D01*
X558034Y-1085724D02*
G01*
X560331Y-1080050D01*
X560331Y-1080050D02*
G01*
X561883Y-1074130D01*
X561883Y-1074130D02*
G01*
X562666Y-1068060D01*
X562666Y-1068060D02*
G01*
X562666Y-1061939D01*
X562666Y-1061939D02*
G01*
X561883Y-1055869D01*
X561883Y-1055869D02*
G01*
X560331Y-1049949D01*
X560331Y-1049949D02*
G01*
X558034Y-1044275D01*
X558034Y-1044275D02*
G01*
X555030Y-1038942D01*
X555030Y-1038942D02*
G01*
X551370Y-1034037D01*
X551370Y-1034037D02*
G01*
X547112Y-1029641D01*
X547112Y-1029641D02*
G01*
X542326Y-1025824D01*
X542326Y-1025824D02*
G01*
X537092Y-1022651D01*
X537092Y-1022651D02*
G01*
X531496Y-1020174D01*
X531496Y-1020174D02*
G01*
X525628Y-1018433D01*
X525628Y-1018433D02*
G01*
X519586Y-1017456D01*
X519586Y-1017456D02*
G01*
X513469Y-1017260D01*
X513469Y-1017260D02*
G01*
X507376Y-1017847D01*
X507376Y-1017847D02*
G01*
X501409Y-1019209D01*
X501409Y-1019209D02*
G01*
X495665Y-1021323D01*
X495665Y-1021323D02*
G01*
X490239Y-1024154D01*
X490239Y-1024154D02*
G01*
X485219Y-1027656D01*
X485219Y-1027656D02*
G01*
X480688Y-1031771D01*
X480688Y-1031771D02*
G01*
X476720Y-1036431D01*
X476720Y-1036431D02*
G01*
X473381Y-1041561D01*
X473381Y-1041561D02*
G01*
X470726Y-1047075D01*
X470726Y-1047075D02*
G01*
X468797Y-1052884D01*
X468797Y-1052884D02*
G01*
X467627Y-1058892D01*
X467627Y-1058892D02*
G01*
X467235Y-1065000D01*
X467235Y-1065000D02*
G01*
X467627Y-1071107D01*
X467627Y-1071107D02*
G01*
X468797Y-1077115D01*
X468797Y-1077115D02*
G01*
X470726Y-1082924D01*
X470726Y-1082924D02*
G01*
X473381Y-1088438D01*
X473381Y-1088438D02*
G01*
X476720Y-1093568D01*
X476720Y-1093568D02*
G01*
X480688Y-1098228D01*
X480688Y-1098228D02*
G01*
X485219Y-1102343D01*
X485219Y-1102343D02*
G01*
X490239Y-1105845D01*
X490239Y-1105845D02*
G01*
X490700Y-1106085D01*
X490700Y-1106085D02*
G01*
X490700Y-1178405D01*
X490700Y-1178405D02*
G01*
X434299Y-1122005D01*
X434299Y-1122005D02*
G01*
X434299Y-1108584D01*
X434299Y-1108584D02*
G01*
X437092Y-1107348D01*
X437092Y-1107348D02*
G01*
X442326Y-1104175D01*
X442326Y-1104175D02*
G01*
X447112Y-1100358D01*
X447112Y-1100358D02*
G01*
X451370Y-1095962D01*
X451370Y-1095962D02*
G01*
X455030Y-1091057D01*
X455030Y-1091057D02*
G01*
X458034Y-1085724D01*
X458034Y-1085724D02*
G01*
X460331Y-1080050D01*
X460331Y-1080050D02*
G01*
X461883Y-1074130D01*
X461883Y-1074130D02*
G01*
X462666Y-1068060D01*
X462666Y-1068060D02*
G01*
X462666Y-1061939D01*
X462666Y-1061939D02*
G01*
X461883Y-1055869D01*
X461883Y-1055869D02*
G01*
X460331Y-1049949D01*
X460331Y-1049949D02*
G01*
X458034Y-1044275D01*
X458034Y-1044275D02*
G01*
X455030Y-1038942D01*
X455030Y-1038942D02*
G01*
X451370Y-1034037D01*
X451370Y-1034037D02*
G01*
X447112Y-1029641D01*
X447112Y-1029641D02*
G01*
X442326Y-1025824D01*
X442326Y-1025824D02*
G01*
X437092Y-1022651D01*
X437092Y-1022651D02*
G01*
X431496Y-1020174D01*
X431496Y-1020174D02*
G01*
X425628Y-1018433D01*
X425628Y-1018433D02*
G01*
X419586Y-1017456D01*
X419586Y-1017456D02*
G01*
X413469Y-1017260D01*
X413469Y-1017260D02*
G01*
X407376Y-1017847D01*
X407376Y-1017847D02*
G01*
X401409Y-1019209D01*
X401409Y-1019209D02*
G01*
X395665Y-1021323D01*
X395665Y-1021323D02*
G01*
X390239Y-1024154D01*
X390239Y-1024154D02*
G01*
X385219Y-1027656D01*
X385219Y-1027656D02*
G01*
X380688Y-1031771D01*
X380688Y-1031771D02*
G01*
X376720Y-1036431D01*
X376720Y-1036431D02*
G01*
X373381Y-1041561D01*
X373381Y-1041561D02*
G01*
X370726Y-1047075D01*
X370726Y-1047075D02*
G01*
X368797Y-1052884D01*
X368797Y-1052884D02*
G01*
X367627Y-1058892D01*
X367627Y-1058892D02*
G01*
X367235Y-1065000D01*
X367235Y-1065000D02*
G01*
X367627Y-1071107D01*
X367627Y-1071107D02*
G01*
X368797Y-1077115D01*
X368797Y-1077115D02*
G01*
X370726Y-1082924D01*
X370726Y-1082924D02*
G01*
X373381Y-1088438D01*
X373381Y-1088438D02*
G01*
X376720Y-1093568D01*
X376720Y-1093568D02*
G01*
X380688Y-1098228D01*
X380688Y-1098228D02*
G01*
X385219Y-1102343D01*
X385219Y-1102343D02*
G01*
X390239Y-1105845D01*
X390239Y-1105845D02*
G01*
X395700Y-1108689D01*
X395700Y-1108689D02*
G01*
X395700Y-1130000D01*
X395700Y-1130000D02*
G01*
X396070Y-1133765D01*
X396070Y-1133765D02*
G01*
X397169Y-1137385D01*
X397169Y-1137385D02*
G01*
X398952Y-1140722D01*
X398952Y-1140722D02*
G01*
X401352Y-1143647D01*
X401352Y-1143647D02*
G01*
X470700Y-1212994D01*
X470700Y-1212994D02*
G01*
X470700Y-1248405D01*
X470700Y-1248405D02*
G01*
X334299Y-1112005D01*
X334299Y-1112005D02*
G01*
X334299Y-1108584D01*
X334299Y-1108584D02*
G01*
X337092Y-1107348D01*
X337092Y-1107348D02*
G01*
X342326Y-1104175D01*
X342326Y-1104175D02*
G01*
X347112Y-1100358D01*
X347112Y-1100358D02*
G01*
X351370Y-1095962D01*
X351370Y-1095962D02*
G01*
X355030Y-1091057D01*
X355030Y-1091057D02*
G01*
X358034Y-1085724D01*
X358034Y-1085724D02*
G01*
X360331Y-1080050D01*
X360331Y-1080050D02*
G01*
X361883Y-1074130D01*
X361883Y-1074130D02*
G01*
X362666Y-1068060D01*
X362666Y-1068060D02*
G01*
X362666Y-1061939D01*
X362666Y-1061939D02*
G01*
X361883Y-1055869D01*
X361883Y-1055869D02*
G01*
X360331Y-1049949D01*
X360331Y-1049949D02*
G01*
X358034Y-1044275D01*
X358034Y-1044275D02*
G01*
X355030Y-1038942D01*
X355030Y-1038942D02*
G01*
X351370Y-1034037D01*
X351370Y-1034037D02*
G01*
X347112Y-1029641D01*
X347112Y-1029641D02*
G01*
X342326Y-1025824D01*
X342326Y-1025824D02*
G01*
X337092Y-1022651D01*
X337092Y-1022651D02*
G01*
X331496Y-1020174D01*
X331496Y-1020174D02*
G01*
X325628Y-1018433D01*
X325628Y-1018433D02*
G01*
X319586Y-1017456D01*
X319586Y-1017456D02*
G01*
X313469Y-1017260D01*
X313469Y-1017260D02*
G01*
X307376Y-1017847D01*
X307376Y-1017847D02*
G01*
X301409Y-1019209D01*
X301409Y-1019209D02*
G01*
X295665Y-1021323D01*
X295665Y-1021323D02*
G01*
X290239Y-1024154D01*
X290239Y-1024154D02*
G01*
X285219Y-1027656D01*
X285219Y-1027656D02*
G01*
X280688Y-1031771D01*
X280688Y-1031771D02*
G01*
X276720Y-1036431D01*
X276720Y-1036431D02*
G01*
X274299Y-1040150D01*
X274299Y-1040150D02*
G01*
X274299Y-907994D01*
X274299Y-907994D02*
G01*
X317994Y-864299D01*
X317994Y-864299D02*
G01*
X485000Y-864299D01*
X485000Y-864299D02*
G01*
X488765Y-863929D01*
X488765Y-863929D02*
G01*
X492385Y-862830D01*
X492385Y-862830D02*
G01*
X495722Y-861047D01*
X495722Y-861047D02*
G01*
X498647Y-858647D01*
X498647Y-858647D02*
G01*
X558647Y-798647D01*
X558647Y-798647D02*
G01*
X561047Y-795722D01*
X561047Y-795722D02*
G01*
X562830Y-792385D01*
X562830Y-792385D02*
G01*
X563929Y-788765D01*
X563929Y-788765D02*
G01*
X564299Y-785000D01*
X564299Y-785000D02*
G01*
X564299Y-627994D01*
X564299Y-627994D02*
G01*
X672994Y-519299D01*
X672994Y-519299D02*
G01*
X689257Y-519299D01*
X689257Y-519299D02*
G01*
X690000Y-521175D01*
X690000Y-521175D02*
G01*
X693009Y-526648D01*
X693009Y-526648D02*
G01*
X696680Y-531700D01*
X696680Y-531700D02*
G01*
X700955Y-536253D01*
X700955Y-536253D02*
G01*
X705767Y-540234D01*
X705767Y-540234D02*
G01*
X711040Y-543581D01*
X711040Y-543581D02*
G01*
X716692Y-546240D01*
X716692Y-546240D02*
G01*
X722631Y-548170D01*
X722631Y-548170D02*
G01*
X728766Y-549340D01*
X728766Y-549340D02*
G01*
X735000Y-549733D01*
X735000Y-549733D02*
G01*
X741233Y-549340D01*
X741233Y-549340D02*
G01*
X747368Y-548170D01*
X747368Y-548170D02*
G01*
X753307Y-546240D01*
X753307Y-546240D02*
G01*
X758959Y-543581D01*
X758959Y-543581D02*
G01*
X764232Y-540234D01*
X764232Y-540234D02*
G01*
X769044Y-536253D01*
X769044Y-536253D02*
G01*
X773319Y-531700D01*
X773319Y-531700D02*
G01*
X776990Y-526648D01*
X776990Y-526648D02*
G01*
X779999Y-521175D01*
X779999Y-521175D02*
G01*
X782298Y-515368D01*
X782298Y-515368D02*
G01*
X783852Y-509319D01*
X783852Y-509319D02*
G01*
X784634Y-503122D01*
X784634Y-503122D02*
G01*
X784634Y-496877D01*
X784634Y-496877D02*
G01*
X783852Y-490680D01*
X783852Y-490680D02*
G01*
X782298Y-484631D01*
X782298Y-484631D02*
G01*
X779999Y-478824D01*
X779999Y-478824D02*
G01*
X776990Y-473351D01*
X776990Y-473351D02*
G01*
X773319Y-468299D01*
X773319Y-468299D02*
G01*
X769044Y-463746D01*
X769044Y-463746D02*
G01*
X764232Y-459765D01*
X764232Y-459765D02*
G01*
X758959Y-456418D01*
X758959Y-456418D02*
G01*
X753307Y-453759D01*
X753307Y-453759D02*
G01*
X747368Y-451829D01*
X747368Y-451829D02*
G01*
X741233Y-450659D01*
X741233Y-450659D02*
G01*
X735000Y-450266D01*
X735000Y-450266D02*
G01*
X728766Y-450659D01*
X728766Y-450659D02*
G01*
X722631Y-451829D01*
X722631Y-451829D02*
G01*
X716692Y-453759D01*
X716692Y-453759D02*
G01*
X711040Y-456418D01*
X711040Y-456418D02*
G01*
X705767Y-459765D01*
X705767Y-459765D02*
G01*
X700955Y-463746D01*
X700955Y-463746D02*
G01*
X696680Y-468299D01*
X696680Y-468299D02*
G01*
X693009Y-473351D01*
X693009Y-473351D02*
G01*
X690000Y-478824D01*
X690000Y-478824D02*
G01*
X689257Y-480700D01*
X689257Y-480700D02*
G01*
X681594Y-480700D01*
X681594Y-480700D02*
G01*
X716257Y-446036D01*
X716257Y-446036D02*
G01*
X716692Y-446240D01*
X716692Y-446240D02*
G01*
X722631Y-448170D01*
X722631Y-448170D02*
G01*
X728766Y-449340D01*
X728766Y-449340D02*
G01*
X735000Y-449733D01*
X735000Y-449733D02*
G01*
X741233Y-449340D01*
X741233Y-449340D02*
G01*
X747368Y-448170D01*
X747368Y-448170D02*
G01*
X753307Y-446240D01*
X753307Y-446240D02*
G01*
X758959Y-443581D01*
X758959Y-443581D02*
G01*
X764232Y-440234D01*
X764232Y-440234D02*
G01*
X769044Y-436253D01*
X769044Y-436253D02*
G01*
X773319Y-431700D01*
X773319Y-431700D02*
G01*
X776990Y-426648D01*
X776990Y-426648D02*
G01*
X779999Y-421175D01*
X779999Y-421175D02*
G01*
X782298Y-415368D01*
X782298Y-415368D02*
G01*
X783852Y-409319D01*
X783852Y-409319D02*
G01*
X784634Y-403122D01*
X784634Y-403122D02*
G01*
X784634Y-396877D01*
X784634Y-396877D02*
G01*
X783852Y-390680D01*
X783852Y-390680D02*
G01*
X782298Y-384631D01*
X782298Y-384631D02*
G01*
X779999Y-378824D01*
X779999Y-378824D02*
G01*
X776990Y-373351D01*
X776990Y-373351D02*
G01*
X773319Y-368299D01*
X773319Y-368299D02*
G01*
X769044Y-363746D01*
X769044Y-363746D02*
G01*
X764232Y-359765D01*
X764232Y-359765D02*
G01*
X758959Y-356418D01*
X758959Y-356418D02*
G01*
X753307Y-353759D01*
X753307Y-353759D02*
G01*
X747368Y-351829D01*
X747368Y-351829D02*
G01*
X741233Y-350659D01*
X741233Y-350659D02*
G01*
X735000Y-350266D01*
X735000Y-350266D02*
G01*
X728766Y-350659D01*
X728766Y-350659D02*
G01*
X722631Y-351829D01*
X722631Y-351829D02*
G01*
X716692Y-353759D01*
X716692Y-353759D02*
G01*
X711040Y-356418D01*
X711040Y-356418D02*
G01*
X705767Y-359765D01*
X705767Y-359765D02*
G01*
X700955Y-363746D01*
X700955Y-363746D02*
G01*
X696680Y-368299D01*
X696680Y-368299D02*
G01*
X693009Y-373351D01*
X693009Y-373351D02*
G01*
X690000Y-378824D01*
X690000Y-378824D02*
G01*
X687701Y-384631D01*
X687701Y-384631D02*
G01*
X686147Y-390680D01*
X686147Y-390680D02*
G01*
X685365Y-396877D01*
X685365Y-396877D02*
G01*
X685365Y-403122D01*
X685365Y-403122D02*
G01*
X686147Y-409319D01*
X686147Y-409319D02*
G01*
X687701Y-415368D01*
X687701Y-415368D02*
G01*
X689016Y-418689D01*
X689016Y-418689D02*
G01*
X511352Y-596352D01*
X511352Y-596352D02*
G01*
X508952Y-599277D01*
X508952Y-599277D02*
G01*
X507169Y-602614D01*
X507169Y-602614D02*
G01*
X506070Y-606234D01*
X506070Y-606234D02*
G01*
X505700Y-610000D01*
X505700Y-610000D02*
G01*
X505700Y-767005D01*
X505700Y-767005D02*
G01*
X467005Y-805700D01*
X467005Y-805700D02*
G01*
X304299Y-805700D01*
X304299Y-805700D02*
G01*
X304299Y-690000D01*
X304299Y-690000D02*
G01*
X303929Y-686234D01*
X303929Y-686234D02*
G01*
X302830Y-682614D01*
X302830Y-682614D02*
G01*
X301047Y-679277D01*
X301047Y-679277D02*
G01*
X298647Y-676352D01*
X298647Y-676352D02*
G01*
X212294Y-590000D01*
X212294Y-590000D02*
G01*
X227994Y-574299D01*
X227994Y-574299D02*
G01*
X278099Y-574299D01*
X278099Y-574299D02*
G01*
X281865Y-573929D01*
X281865Y-573929D02*
G01*
X285485Y-572830D01*
X285485Y-572830D02*
G01*
X288822Y-571047D01*
X288822Y-571047D02*
G01*
X291747Y-568647D01*
X291747Y-568647D02*
G01*
X328315Y-532078D01*
X328315Y-532078D02*
G01*
X330937Y-531663D01*
X330937Y-531663D02*
G01*
X335049Y-530224D01*
X335049Y-530224D02*
G01*
X338838Y-528074D01*
X338838Y-528074D02*
G01*
X342182Y-525282D01*
X342182Y-525282D02*
G01*
X344974Y-521938D01*
X344974Y-521938D02*
G01*
X347124Y-518149D01*
X347124Y-518149D02*
G01*
X348563Y-514037D01*
X348563Y-514037D02*
G01*
X349245Y-509734D01*
X349245Y-509734D02*
G01*
X349147Y-505379D01*
X349147Y-505379D02*
G01*
X348273Y-501111D01*
X348273Y-501111D02*
G01*
X346651Y-497067D01*
X346651Y-497067D02*
G01*
X344333Y-493379D01*
X344333Y-493379D02*
G01*
X341394Y-490163D01*
X341394Y-490163D02*
G01*
X337928Y-487524D01*
X337928Y-487524D02*
G01*
X334046Y-485546D01*
X334046Y-485546D02*
G01*
X329874Y-484293D01*
X329874Y-484293D02*
G01*
X325545Y-483806D01*
X325545Y-483806D02*
G01*
X321198Y-484099D01*
X321198Y-484099D02*
G01*
X316974Y-485163D01*
X316974Y-485163D02*
G01*
X313007Y-486965D01*
X313007Y-486965D02*
G01*
X309426Y-489446D01*
X309426Y-489446D02*
G01*
X306346Y-492526D01*
X306346Y-492526D02*
G01*
X303865Y-496107D01*
X303865Y-496107D02*
G01*
X302063Y-500074D01*
X302063Y-500074D02*
G01*
X300999Y-504298D01*
X300999Y-504298D02*
G01*
X300962Y-504843D01*
X300962Y-504843D02*
G01*
X270105Y-535700D01*
X270105Y-535700D02*
G01*
X220000Y-535700D01*
X220000Y-535700D02*
G01*
X216234Y-536070D01*
X216234Y-536070D02*
G01*
X212614Y-537169D01*
X212614Y-537169D02*
G01*
X209277Y-538952D01*
X209277Y-538952D02*
G01*
X206352Y-541352D01*
X206352Y-541352D02*
G01*
X185000Y-562705D01*
X185000Y-562705D02*
G01*
X149299Y-527005D01*
X149299Y-527005D02*
G01*
X149299Y-465000D01*
X149299Y-465000D02*
G01*
X148929Y-461234D01*
X148929Y-461234D02*
G01*
X147830Y-457614D01*
X147830Y-457614D02*
G01*
X146047Y-454277D01*
X146047Y-454277D02*
G01*
X143647Y-451352D01*
X143647Y-451352D02*
G01*
X110983Y-418689D01*
X110983Y-418689D02*
G01*
X112298Y-415368D01*
X112298Y-415368D02*
G01*
X113852Y-409319D01*
X113852Y-409319D02*
G01*
X114634Y-403122D01*
X114634Y-403122D02*
G01*
X114634Y-396877D01*
X114634Y-396877D02*
G01*
X113852Y-390680D01*
X113852Y-390680D02*
G01*
X112298Y-384631D01*
X112298Y-384631D02*
G01*
X109999Y-378824D01*
X109999Y-378824D02*
G01*
X106990Y-373351D01*
X106990Y-373351D02*
G01*
X103319Y-368299D01*
X103319Y-368299D02*
G01*
X99044Y-363746D01*
X99044Y-363746D02*
G01*
X94232Y-359765D01*
X94232Y-359765D02*
G01*
X88959Y-356418D01*
X88959Y-356418D02*
G01*
X83307Y-353759D01*
X83307Y-353759D02*
G01*
X77368Y-351829D01*
X77368Y-351829D02*
G01*
X71233Y-350659D01*
X71233Y-350659D02*
G01*
X65000Y-350266D01*
X65000Y-350266D02*
G01*
X58766Y-350659D01*
X58766Y-350659D02*
G01*
X52631Y-351829D01*
X52631Y-351829D02*
G01*
X46692Y-353759D01*
X46692Y-353759D02*
G01*
X41040Y-356418D01*
X41040Y-356418D02*
G01*
X35767Y-359765D01*
X35767Y-359765D02*
G01*
X30955Y-363746D01*
X30955Y-363746D02*
G01*
X26680Y-368299D01*
X26680Y-368299D02*
G01*
X23009Y-373351D01*
X23009Y-373351D02*
G01*
X20000Y-378824D01*
X20000Y-378824D02*
G01*
X17701Y-384631D01*
X17701Y-384631D02*
G01*
X16147Y-390680D01*
X16147Y-390680D02*
G01*
X15365Y-396877D01*
X15365Y-396877D02*
G01*
X15365Y-403122D01*
X15365Y-403122D02*
G01*
X16147Y-409319D01*
X16147Y-409319D02*
G01*
X17701Y-415368D01*
X17701Y-415368D02*
G01*
X20000Y-421175D01*
X20000Y-421175D02*
G01*
X23009Y-426648D01*
X23009Y-426648D02*
G01*
X26680Y-431700D01*
X26680Y-431700D02*
G01*
X30955Y-436253D01*
X30955Y-436253D02*
G01*
X35767Y-440234D01*
X35767Y-440234D02*
G01*
X41040Y-443581D01*
X41040Y-443581D02*
G01*
X46692Y-446240D01*
X46692Y-446240D02*
G01*
X52631Y-448170D01*
X52631Y-448170D02*
G01*
X58766Y-449340D01*
X58766Y-449340D02*
G01*
X65000Y-449733D01*
X65000Y-449733D02*
G01*
X71233Y-449340D01*
X71233Y-449340D02*
G01*
X77368Y-448170D01*
X77368Y-448170D02*
G01*
X83307Y-446240D01*
X83307Y-446240D02*
G01*
X83742Y-446036D01*
X83742Y-446036D02*
G01*
X110700Y-472994D01*
X110700Y-472994D02*
G01*
X110700Y-480593D01*
X110700Y-480593D02*
G01*
X109999Y-478824D01*
X109999Y-478824D02*
G01*
X106990Y-473351D01*
X106990Y-473351D02*
G01*
X103319Y-468299D01*
X103319Y-468299D02*
G01*
X99044Y-463746D01*
X99044Y-463746D02*
G01*
X94232Y-459765D01*
X94232Y-459765D02*
G01*
X88959Y-456418D01*
X88959Y-456418D02*
G01*
X83307Y-453759D01*
X83307Y-453759D02*
G01*
X77368Y-451829D01*
X77368Y-451829D02*
G01*
X71233Y-450659D01*
X71233Y-450659D02*
G01*
X65000Y-450266D01*
X65000Y-450266D02*
G01*
X58766Y-450659D01*
X58766Y-450659D02*
G01*
X52631Y-451829D01*
X52631Y-451829D02*
G01*
X46692Y-453759D01*
X46692Y-453759D02*
G01*
X41040Y-456418D01*
X41040Y-456418D02*
G01*
X35767Y-459765D01*
X35767Y-459765D02*
G01*
X30955Y-463746D01*
X30955Y-463746D02*
G01*
X26680Y-468299D01*
X26680Y-468299D02*
G01*
X23009Y-473351D01*
X23009Y-473351D02*
G01*
X20000Y-478824D01*
X20000Y-478824D02*
G01*
X17701Y-484631D01*
X17701Y-484631D02*
G01*
X16147Y-490680D01*
X16147Y-490680D02*
G01*
X15365Y-496877D01*
X15365Y-496877D02*
G01*
X15365Y-503122D01*
X15365Y-503122D02*
G01*
X16147Y-509319D01*
X16147Y-509319D02*
G01*
X17701Y-515368D01*
X17701Y-515368D02*
G01*
X20000Y-521175D01*
X20000Y-521175D02*
G01*
X23009Y-526648D01*
X23009Y-526648D02*
G01*
X26680Y-531700D01*
X26680Y-531700D02*
G01*
X30955Y-536253D01*
X30955Y-536253D02*
G01*
X35767Y-540234D01*
X35767Y-540234D02*
G01*
X41040Y-543581D01*
X41040Y-543581D02*
G01*
X46692Y-546240D01*
X46692Y-546240D02*
G01*
X52631Y-548170D01*
X52631Y-548170D02*
G01*
X58766Y-549340D01*
X58766Y-549340D02*
G01*
X65000Y-549733D01*
X65000Y-549733D02*
G01*
X71233Y-549340D01*
X71233Y-549340D02*
G01*
X77368Y-548170D01*
X77368Y-548170D02*
G01*
X83307Y-546240D01*
X83307Y-546240D02*
G01*
X83742Y-546036D01*
X83742Y-546036D02*
G01*
X245700Y-707994D01*
X245700Y-707994D02*
G01*
X245700Y-758386D01*
X245700Y-758386D02*
G01*
X245251Y-757267D01*
X245251Y-757267D02*
G01*
X242933Y-753579D01*
X242933Y-753579D02*
G01*
X239994Y-750363D01*
X239994Y-750363D02*
G01*
X236528Y-747724D01*
X236528Y-747724D02*
G01*
X232646Y-745746D01*
X232646Y-745746D02*
G01*
X228474Y-744493D01*
X228474Y-744493D02*
G01*
X224145Y-744006D01*
X224145Y-744006D02*
G01*
X219798Y-744299D01*
X219798Y-744299D02*
G01*
X215574Y-745363D01*
X215574Y-745363D02*
G01*
X211607Y-747165D01*
X211607Y-747165D02*
G01*
X208026Y-749646D01*
X208026Y-749646D02*
G01*
X204946Y-752726D01*
X204946Y-752726D02*
G01*
X202465Y-756307D01*
X202465Y-756307D02*
G01*
X200663Y-760274D01*
X200663Y-760274D02*
G01*
X199599Y-764498D01*
X199599Y-764498D02*
G01*
X199306Y-768845D01*
X199306Y-768845D02*
G01*
X199793Y-773174D01*
X199793Y-773174D02*
G01*
X201046Y-777346D01*
X201046Y-777346D02*
G01*
X203024Y-781228D01*
X203024Y-781228D02*
G01*
X204299Y-782903D01*
X204299Y-782903D02*
G01*
X204299Y-803405D01*
X204299Y-803405D02*
G01*
X174299Y-833405D01*
X174299Y-833405D02*
G01*
X174299Y-690000D01*
X174299Y-690000D02*
G01*
X173929Y-686234D01*
X173929Y-686234D02*
G01*
X172830Y-682614D01*
X172830Y-682614D02*
G01*
X171047Y-679277D01*
X171047Y-679277D02*
G01*
X168647Y-676352D01*
X168647Y-676352D02*
G01*
X110983Y-618689D01*
X110983Y-618689D02*
G01*
X112298Y-615368D01*
X112298Y-615368D02*
G01*
X113852Y-609319D01*
X113852Y-609319D02*
G01*
X114634Y-603122D01*
X114634Y-603122D02*
G01*
X114634Y-596877D01*
X114634Y-596877D02*
G01*
X113852Y-590680D01*
X113852Y-590680D02*
G01*
X112298Y-584631D01*
X112298Y-584631D02*
G01*
X109999Y-578824D01*
X109999Y-578824D02*
G01*
X106990Y-573351D01*
X106990Y-573351D02*
G01*
X103319Y-568299D01*
X103319Y-568299D02*
G01*
X99044Y-563746D01*
X99044Y-563746D02*
G01*
X94232Y-559765D01*
X94232Y-559765D02*
G01*
X88959Y-556418D01*
X88959Y-556418D02*
G01*
X83307Y-553759D01*
X83307Y-553759D02*
G01*
X77368Y-551829D01*
X77368Y-551829D02*
G01*
X71233Y-550659D01*
X71233Y-550659D02*
G01*
X65000Y-550266D01*
X65000Y-550266D02*
G01*
X58766Y-550659D01*
X58766Y-550659D02*
G01*
X52631Y-551829D01*
X52631Y-551829D02*
G01*
X46692Y-553759D01*
X46692Y-553759D02*
G01*
X41040Y-556418D01*
X41040Y-556418D02*
G01*
X35767Y-559765D01*
X35767Y-559765D02*
G01*
X30955Y-563746D01*
X30955Y-563746D02*
G01*
X26680Y-568299D01*
X26680Y-568299D02*
G01*
X23009Y-573351D01*
X23009Y-573351D02*
G01*
X20000Y-578824D01*
X20000Y-578824D02*
G01*
X17701Y-584631D01*
X17701Y-584631D02*
G01*
X16147Y-590680D01*
X16147Y-590680D02*
G01*
X15365Y-596877D01*
X15365Y-596877D02*
G01*
X15365Y-603122D01*
X15365Y-603122D02*
G01*
X16147Y-609319D01*
X16147Y-609319D02*
G01*
X17701Y-615368D01*
X17701Y-615368D02*
G01*
X20000Y-621175D01*
X20000Y-621175D02*
G01*
X23009Y-626648D01*
X23009Y-626648D02*
G01*
X26680Y-631700D01*
X26680Y-631700D02*
G01*
X30955Y-636253D01*
X30955Y-636253D02*
G01*
X35767Y-640234D01*
X35767Y-640234D02*
G01*
X41040Y-643581D01*
X41040Y-643581D02*
G01*
X46692Y-646240D01*
X46692Y-646240D02*
G01*
X52631Y-648170D01*
X52631Y-648170D02*
G01*
X58766Y-649340D01*
X58766Y-649340D02*
G01*
X65000Y-649733D01*
X65000Y-649733D02*
G01*
X71233Y-649340D01*
X71233Y-649340D02*
G01*
X77368Y-648170D01*
X77368Y-648170D02*
G01*
X83307Y-646240D01*
X83307Y-646240D02*
G01*
X83742Y-646036D01*
X83742Y-646036D02*
G01*
X135700Y-697994D01*
X135700Y-697994D02*
G01*
X135700Y-743405D01*
X135700Y-743405D02*
G01*
X110983Y-718689D01*
X110983Y-718689D02*
G01*
X112298Y-715368D01*
X112298Y-715368D02*
G01*
X113852Y-709319D01*
X113852Y-709319D02*
G01*
X114634Y-703122D01*
X114634Y-703122D02*
G01*
X114634Y-696877D01*
X114634Y-696877D02*
G01*
X113852Y-690680D01*
X113852Y-690680D02*
G01*
X112298Y-684631D01*
X112298Y-684631D02*
G01*
X109999Y-678824D01*
X109999Y-678824D02*
G01*
X106990Y-673351D01*
X106990Y-673351D02*
G01*
X103319Y-668299D01*
X103319Y-668299D02*
G01*
X99044Y-663746D01*
X99044Y-663746D02*
G01*
X94232Y-659765D01*
X94232Y-659765D02*
G01*
X88959Y-656418D01*
X88959Y-656418D02*
G01*
X83307Y-653759D01*
X83307Y-653759D02*
G01*
X77368Y-651829D01*
X77368Y-651829D02*
G01*
X71233Y-650659D01*
X71233Y-650659D02*
G01*
X65000Y-650266D01*
X65000Y-650266D02*
G01*
X58766Y-650659D01*
X58766Y-650659D02*
G01*
X52631Y-651829D01*
X52631Y-651829D02*
G01*
X46692Y-653759D01*
X46692Y-653759D02*
G01*
X41040Y-656418D01*
X41040Y-656418D02*
G01*
X35767Y-659765D01*
X35767Y-659765D02*
G01*
X30955Y-663746D01*
X30955Y-663746D02*
G01*
X26680Y-668299D01*
X26680Y-668299D02*
G01*
X23009Y-673351D01*
X23009Y-673351D02*
G01*
X20000Y-678824D01*
X20000Y-678824D02*
G01*
X17701Y-684631D01*
X17701Y-684631D02*
G01*
X16147Y-690680D01*
X16147Y-690680D02*
G01*
X15365Y-696877D01*
X15365Y-696877D02*
G01*
X15365Y-703122D01*
X15365Y-703122D02*
G01*
X16147Y-709319D01*
X16147Y-709319D02*
G01*
X17701Y-715368D01*
X17701Y-715368D02*
G01*
X20000Y-721175D01*
X20000Y-721175D02*
G01*
X23009Y-726648D01*
X23009Y-726648D02*
G01*
X26680Y-731700D01*
X26680Y-731700D02*
G01*
X30955Y-736253D01*
X30955Y-736253D02*
G01*
X35767Y-740234D01*
X35767Y-740234D02*
G01*
X41040Y-743581D01*
X41040Y-743581D02*
G01*
X46692Y-746240D01*
X46692Y-746240D02*
G01*
X52631Y-748170D01*
X52631Y-748170D02*
G01*
X58766Y-749340D01*
X58766Y-749340D02*
G01*
X65000Y-749733D01*
X65000Y-749733D02*
G01*
X71233Y-749340D01*
X71233Y-749340D02*
G01*
X77368Y-748170D01*
X77368Y-748170D02*
G01*
X83307Y-746240D01*
X83307Y-746240D02*
G01*
X83742Y-746036D01*
X83742Y-746036D02*
G01*
X115700Y-777994D01*
X115700Y-777994D02*
G01*
X115700Y-926049D01*
X115700Y-926049D02*
G01*
X111674Y-927063D01*
X111674Y-927063D02*
G01*
X107707Y-928865D01*
X107707Y-928865D02*
G01*
X104126Y-931346D01*
X104126Y-931346D02*
G01*
X101046Y-934426D01*
X101046Y-934426D02*
G01*
X98565Y-938007D01*
X98565Y-938007D02*
G01*
X96763Y-941974D01*
X96763Y-941974D02*
G01*
X95699Y-946198D01*
X95699Y-946198D02*
G01*
X95406Y-950545D01*
X95406Y-950545D02*
G01*
X95893Y-954874D01*
X95893Y-954874D02*
G01*
X97146Y-959046D01*
X97146Y-959046D02*
G01*
X99124Y-962928D01*
X99124Y-962928D02*
G01*
X101763Y-966394D01*
X101763Y-966394D02*
G01*
X104979Y-969333D01*
X104979Y-969333D02*
G01*
X108667Y-971651D01*
X108667Y-971651D02*
G01*
X112711Y-973273D01*
X112711Y-973273D02*
G01*
X116979Y-974147D01*
X116979Y-974147D02*
G01*
X121334Y-974245D01*
X121334Y-974245D02*
G01*
X125637Y-973563D01*
X125637Y-973563D02*
G01*
X129749Y-972124D01*
X129749Y-972124D02*
G01*
X133538Y-969974D01*
X133538Y-969974D02*
G01*
X135700Y-968170D01*
X135700Y-968170D02*
G01*
X135700Y-1006705D01*
X135700Y-1006705D02*
G01*
X116443Y-1025962D01*
X116443Y-1025962D02*
G01*
X115898Y-1025999D01*
X115898Y-1025999D02*
G01*
X111674Y-1027063D01*
X111674Y-1027063D02*
G01*
X107707Y-1028865D01*
X107707Y-1028865D02*
G01*
X104126Y-1031346D01*
X104126Y-1031346D02*
G01*
X101046Y-1034426D01*
X101046Y-1034426D02*
G01*
X98565Y-1038007D01*
X98565Y-1038007D02*
G01*
X96763Y-1041974D01*
X96763Y-1041974D02*
G01*
X95699Y-1046198D01*
X95699Y-1046198D02*
G01*
X95406Y-1050545D01*
X95406Y-1050545D02*
G01*
X95893Y-1054874D01*
X95893Y-1054874D02*
G01*
X97146Y-1059046D01*
X97146Y-1059046D02*
G01*
X99124Y-1062928D01*
X99124Y-1062928D02*
G01*
X101763Y-1066394D01*
X101763Y-1066394D02*
G01*
X104979Y-1069333D01*
X104979Y-1069333D02*
G01*
X108667Y-1071651D01*
X108667Y-1071651D02*
G01*
X112711Y-1073273D01*
X112711Y-1073273D02*
G01*
X116979Y-1074147D01*
X116979Y-1074147D02*
G01*
X121334Y-1074245D01*
X121334Y-1074245D02*
G01*
X125637Y-1073563D01*
X125637Y-1073563D02*
G01*
X129749Y-1072124D01*
X129749Y-1072124D02*
G01*
X133538Y-1069974D01*
X133538Y-1069974D02*
G01*
X136882Y-1067182D01*
X136882Y-1067182D02*
G01*
X139674Y-1063838D01*
X139674Y-1063838D02*
G01*
X141824Y-1060049D01*
X141824Y-1060049D02*
G01*
X143263Y-1055937D01*
X143263Y-1055937D02*
G01*
X143678Y-1053315D01*
X143678Y-1053315D02*
G01*
X155700Y-1041294D01*
X155700Y-1041294D02*
G01*
X155700Y-1086705D01*
X155700Y-1086705D02*
G01*
X116446Y-1125959D01*
X116446Y-1125959D02*
G01*
X115858Y-1125999D01*
X115858Y-1125999D02*
G01*
X111634Y-1127063D01*
X111634Y-1127063D02*
G01*
X107667Y-1128865D01*
X107667Y-1128865D02*
G01*
X104086Y-1131346D01*
X104086Y-1131346D02*
G01*
X101006Y-1134426D01*
X101006Y-1134426D02*
G01*
X98525Y-1138007D01*
X98525Y-1138007D02*
G01*
X96723Y-1141974D01*
X96723Y-1141974D02*
G01*
X95659Y-1146198D01*
X95659Y-1146198D02*
G01*
X95366Y-1150545D01*
X95366Y-1150545D02*
G01*
X95853Y-1154874D01*
X95853Y-1154874D02*
G01*
X97106Y-1159046D01*
X97106Y-1159046D02*
G01*
X99084Y-1162928D01*
X99084Y-1162928D02*
G01*
X101723Y-1166394D01*
X101723Y-1166394D02*
G01*
X104939Y-1169333D01*
X104939Y-1169333D02*
G01*
X108627Y-1171651D01*
X108627Y-1171651D02*
G01*
X112671Y-1173273D01*
X112671Y-1173273D02*
G01*
X116939Y-1174147D01*
X116939Y-1174147D02*
G01*
X121294Y-1174245D01*
X121294Y-1174245D02*
G01*
X125597Y-1173563D01*
X125597Y-1173563D02*
G01*
X129709Y-1172124D01*
X129709Y-1172124D02*
G01*
X133498Y-1169974D01*
X133498Y-1169974D02*
G01*
X136842Y-1167182D01*
X136842Y-1167182D02*
G01*
X139634Y-1163838D01*
X139634Y-1163838D02*
G01*
X141784Y-1160049D01*
X141784Y-1160049D02*
G01*
X143223Y-1155937D01*
X143223Y-1155937D02*
G01*
X143631Y-1153363D01*
X143631Y-1153363D02*
G01*
X175700Y-1121294D01*
X175700Y-1121294D02*
G01*
X175700Y-1692005D01*
X175700Y-1692005D02*
G01*
X125605Y-1742100D01*
X125605Y-1742100D02*
G01*
X99610Y-1742100D01*
X99610Y-1742100D02*
G01*
X97948Y-1740834D01*
X97948Y-1740834D02*
G01*
X94066Y-1738856D01*
X94066Y-1738856D02*
G01*
X89894Y-1737603D01*
X89894Y-1737603D02*
G01*
X85565Y-1737116D01*
X85565Y-1737116D02*
G01*
X81218Y-1737409D01*
X81218Y-1737409D02*
G01*
X76994Y-1738473D01*
X76994Y-1738473D02*
G01*
X73027Y-1740275D01*
X73027Y-1740275D02*
G01*
X69446Y-1742756D01*
X69446Y-1742756D02*
G01*
X66366Y-1745836D01*
X66366Y-1745836D02*
G01*
X63885Y-1749417D01*
X63885Y-1749417D02*
G01*
X62083Y-1753384D01*
X62083Y-1753384D02*
G01*
X61019Y-1757608D01*
X61019Y-1757608D02*
G01*
X60726Y-1761955D01*
X60726Y-1761955D02*
G01*
X61213Y-1766284D01*
X61213Y-1766284D02*
G01*
X62466Y-1770456D01*
X62466Y-1770456D02*
G01*
X64444Y-1774338D01*
X64444Y-1774338D02*
G01*
X67083Y-1777804D01*
X67083Y-1777804D02*
G01*
X70299Y-1780743D01*
X70299Y-1780743D02*
G01*
X73987Y-1783061D01*
X73987Y-1783061D02*
G01*
X78031Y-1784683D01*
X78031Y-1784683D02*
G01*
X82299Y-1785557D01*
X82299Y-1785557D02*
G01*
X86654Y-1785655D01*
X86654Y-1785655D02*
G01*
X90957Y-1784973D01*
X90957Y-1784973D02*
G01*
X95069Y-1783534D01*
X95069Y-1783534D02*
G01*
X98858Y-1781384D01*
X98858Y-1781384D02*
G01*
X99678Y-1780700D01*
X99678Y-1780700D02*
G01*
X133600Y-1780700D01*
X133600Y-1780700D02*
G01*
X137365Y-1780329D01*
X137365Y-1780329D02*
G01*
X140985Y-1779230D01*
X140985Y-1779230D02*
G01*
X144322Y-1777447D01*
X144322Y-1777447D02*
G01*
X147247Y-1775047D01*
X147247Y-1775047D02*
G01*
X195700Y-1726594D01*
X195700Y-1726594D02*
G01*
X195700Y-1747008D01*
X195700Y-1747008D02*
G01*
X121902Y-1820850D01*
X121902Y-1820850D02*
G01*
X99613Y-1820850D01*
X99613Y-1820850D02*
G01*
X97938Y-1819574D01*
X97938Y-1819574D02*
G01*
X94056Y-1817596D01*
X94056Y-1817596D02*
G01*
X89884Y-1816343D01*
X89884Y-1816343D02*
G01*
X85555Y-1815856D01*
X85555Y-1815856D02*
G01*
X81208Y-1816149D01*
X81208Y-1816149D02*
G01*
X76984Y-1817213D01*
X76984Y-1817213D02*
G01*
X73017Y-1819015D01*
X73017Y-1819015D02*
G01*
X69436Y-1821496D01*
X69436Y-1821496D02*
G01*
X66356Y-1824576D01*
X66356Y-1824576D02*
G01*
X63875Y-1828157D01*
X63875Y-1828157D02*
G01*
X62073Y-1832124D01*
X62073Y-1832124D02*
G01*
X61009Y-1836348D01*
X61009Y-1836348D02*
G01*
X60716Y-1840695D01*
X60716Y-1840695D02*
G01*
X61203Y-1845024D01*
X61203Y-1845024D02*
G01*
X62456Y-1849196D01*
X62456Y-1849196D02*
G01*
X64434Y-1853078D01*
X248523Y-621394D02*
G01*
X251739Y-624333D01*
X251739Y-624333D02*
G01*
X255428Y-626651D01*
X255428Y-626651D02*
G01*
X259471Y-628273D01*
X259471Y-628273D02*
G01*
X263739Y-629147D01*
X263739Y-629147D02*
G01*
X268094Y-629245D01*
X268094Y-629245D02*
G01*
X272397Y-628563D01*
X272397Y-628563D02*
G01*
X276509Y-627124D01*
X276509Y-627124D02*
G01*
X280298Y-624974D01*
X280298Y-624974D02*
G01*
X281106Y-624299D01*
X281106Y-624299D02*
G01*
X328090Y-624299D01*
X328090Y-624299D02*
G01*
X331856Y-623929D01*
X331856Y-623929D02*
G01*
X335476Y-622830D01*
X335476Y-622830D02*
G01*
X338813Y-621047D01*
X338813Y-621047D02*
G01*
X341738Y-618647D01*
X341738Y-618647D02*
G01*
X405700Y-554685D01*
X405700Y-554685D02*
G01*
X405700Y-655000D01*
X405700Y-655000D02*
G01*
X406070Y-658765D01*
X406070Y-658765D02*
G01*
X407169Y-662385D01*
X407169Y-662385D02*
G01*
X408952Y-665722D01*
X408952Y-665722D02*
G01*
X411352Y-668647D01*
X411352Y-668647D02*
G01*
X431900Y-689194D01*
X431900Y-689194D02*
G01*
X431900Y-710359D01*
X431900Y-710359D02*
G01*
X430065Y-713007D01*
X430065Y-713007D02*
G01*
X428263Y-716974D01*
X428263Y-716974D02*
G01*
X427199Y-721198D01*
X427199Y-721198D02*
G01*
X426906Y-725545D01*
X426906Y-725545D02*
G01*
X427393Y-729874D01*
X427393Y-729874D02*
G01*
X428646Y-734046D01*
X428646Y-734046D02*
G01*
X430624Y-737928D01*
X430624Y-737928D02*
G01*
X433263Y-741394D01*
X433263Y-741394D02*
G01*
X436479Y-744333D01*
X436479Y-744333D02*
G01*
X440167Y-746651D01*
X440167Y-746651D02*
G01*
X444211Y-748273D01*
X444211Y-748273D02*
G01*
X448479Y-749147D01*
X448479Y-749147D02*
G01*
X452834Y-749245D01*
X452834Y-749245D02*
G01*
X457137Y-748563D01*
X457137Y-748563D02*
G01*
X461249Y-747124D01*
X461249Y-747124D02*
G01*
X465038Y-744974D01*
X465038Y-744974D02*
G01*
X468382Y-742182D01*
X468382Y-742182D02*
G01*
X471174Y-738838D01*
X471174Y-738838D02*
G01*
X473324Y-735049D01*
X473324Y-735049D02*
G01*
X474763Y-730937D01*
X474763Y-730937D02*
G01*
X475444Y-726634D01*
X475444Y-726634D02*
G01*
X475347Y-722279D01*
X475347Y-722279D02*
G01*
X474473Y-718011D01*
X474473Y-718011D02*
G01*
X472851Y-713967D01*
X472851Y-713967D02*
G01*
X470500Y-710242D01*
X470500Y-710242D02*
G01*
X470500Y-681199D01*
X470500Y-681199D02*
G01*
X470129Y-677434D01*
X470129Y-677434D02*
G01*
X469030Y-673814D01*
X469030Y-673814D02*
G01*
X467247Y-670477D01*
X467247Y-670477D02*
G01*
X464847Y-667552D01*
X464847Y-667552D02*
G01*
X444299Y-647005D01*
X444299Y-647005D02*
G01*
X444299Y-522736D01*
X444299Y-522736D02*
G01*
X444974Y-521928D01*
X444974Y-521928D02*
G01*
X447124Y-518139D01*
X447124Y-518139D02*
G01*
X448563Y-514027D01*
X448563Y-514027D02*
G01*
X449245Y-509724D01*
X449245Y-509724D02*
G01*
X449147Y-505369D01*
X449147Y-505369D02*
G01*
X448273Y-501101D01*
X448273Y-501101D02*
G01*
X446651Y-497058D01*
X446651Y-497058D02*
G01*
X444299Y-493332D01*
X444299Y-493332D02*
G01*
X444299Y-470000D01*
X444299Y-470000D02*
G01*
X443929Y-466234D01*
X443929Y-466234D02*
G01*
X442830Y-462614D01*
X442830Y-462614D02*
G01*
X441047Y-459277D01*
X441047Y-459277D02*
G01*
X438647Y-456352D01*
X438647Y-456352D02*
G01*
X294299Y-312005D01*
X294299Y-312005D02*
G01*
X294299Y-296556D01*
X294299Y-296556D02*
G01*
X294974Y-295748D01*
X294974Y-295748D02*
G01*
X297124Y-291959D01*
X297124Y-291959D02*
G01*
X298563Y-287847D01*
X298563Y-287847D02*
G01*
X299245Y-283544D01*
X299245Y-283544D02*
G01*
X299147Y-279189D01*
X299147Y-279189D02*
G01*
X298273Y-274921D01*
X298273Y-274921D02*
G01*
X296651Y-270877D01*
X296651Y-270877D02*
G01*
X294333Y-267189D01*
X294333Y-267189D02*
G01*
X291394Y-263973D01*
X291394Y-263973D02*
G01*
X287928Y-261334D01*
X287928Y-261334D02*
G01*
X284046Y-259356D01*
X284046Y-259356D02*
G01*
X279874Y-258103D01*
X279874Y-258103D02*
G01*
X275545Y-257616D01*
X275545Y-257616D02*
G01*
X271198Y-257909D01*
X271198Y-257909D02*
G01*
X266974Y-258973D01*
X266974Y-258973D02*
G01*
X263007Y-260775D01*
X263007Y-260775D02*
G01*
X259426Y-263256D01*
X259426Y-263256D02*
G01*
X256346Y-266336D01*
X256346Y-266336D02*
G01*
X253865Y-269917D01*
X253865Y-269917D02*
G01*
X252063Y-273884D01*
X252063Y-273884D02*
G01*
X250999Y-278108D01*
X250999Y-278108D02*
G01*
X250706Y-282455D01*
X250706Y-282455D02*
G01*
X251193Y-286784D01*
X251193Y-286784D02*
G01*
X252446Y-290956D01*
X252446Y-290956D02*
G01*
X254424Y-294838D01*
X254424Y-294838D02*
G01*
X255700Y-296513D01*
X255700Y-296513D02*
G01*
X255700Y-320000D01*
X255700Y-320000D02*
G01*
X256070Y-323765D01*
X256070Y-323765D02*
G01*
X257169Y-327385D01*
X257169Y-327385D02*
G01*
X258952Y-330722D01*
X258952Y-330722D02*
G01*
X261352Y-333647D01*
X261352Y-333647D02*
G01*
X405700Y-477994D01*
X405700Y-477994D02*
G01*
X405700Y-493449D01*
X405700Y-493449D02*
G01*
X403865Y-496097D01*
X403865Y-496097D02*
G01*
X402063Y-500064D01*
X402063Y-500064D02*
G01*
X400999Y-504288D01*
X400999Y-504288D02*
G01*
X400962Y-504834D01*
X400962Y-504834D02*
G01*
X320096Y-585700D01*
X320096Y-585700D02*
G01*
X281063Y-585700D01*
X281063Y-585700D02*
G01*
X279388Y-584424D01*
X279388Y-584424D02*
G01*
X275506Y-582446D01*
X275506Y-582446D02*
G01*
X271334Y-581193D01*
X271334Y-581193D02*
G01*
X267005Y-580706D01*
X267005Y-580706D02*
G01*
X262658Y-580999D01*
X262658Y-580999D02*
G01*
X258434Y-582063D01*
X258434Y-582063D02*
G01*
X254467Y-583865D01*
X254467Y-583865D02*
G01*
X250886Y-586346D01*
X250886Y-586346D02*
G01*
X247806Y-589426D01*
X247806Y-589426D02*
G01*
X245325Y-593007D01*
X245325Y-593007D02*
G01*
X243523Y-596974D01*
X243523Y-596974D02*
G01*
X242459Y-601198D01*
X242459Y-601198D02*
G01*
X242166Y-605545D01*
X242166Y-605545D02*
G01*
X242653Y-609874D01*
X242653Y-609874D02*
G01*
X243906Y-614046D01*
X243906Y-614046D02*
G01*
X245884Y-617928D01*
X245884Y-617928D02*
G01*
X248523Y-621394D01*
X457063Y-524484D02*
G01*
X460279Y-527423D01*
X460279Y-527423D02*
G01*
X463967Y-529741D01*
X463967Y-529741D02*
G01*
X468011Y-531363D01*
X468011Y-531363D02*
G01*
X472279Y-532237D01*
X472279Y-532237D02*
G01*
X476634Y-532334D01*
X476634Y-532334D02*
G01*
X480937Y-531653D01*
X480937Y-531653D02*
G01*
X485049Y-530214D01*
X485049Y-530214D02*
G01*
X488838Y-528064D01*
X488838Y-528064D02*
G01*
X492182Y-525272D01*
X492182Y-525272D02*
G01*
X494974Y-521928D01*
X494974Y-521928D02*
G01*
X497124Y-518139D01*
X497124Y-518139D02*
G01*
X498563Y-514027D01*
X498563Y-514027D02*
G01*
X499245Y-509724D01*
X499245Y-509724D02*
G01*
X499147Y-505369D01*
X499147Y-505369D02*
G01*
X498273Y-501101D01*
X498273Y-501101D02*
G01*
X496651Y-497058D01*
X496651Y-497058D02*
G01*
X494299Y-493332D01*
X494299Y-493332D02*
G01*
X494299Y-482994D01*
X494299Y-482994D02*
G01*
X500000Y-477294D01*
X500000Y-477294D02*
G01*
X505700Y-482994D01*
X505700Y-482994D02*
G01*
X505700Y-493449D01*
X505700Y-493449D02*
G01*
X503865Y-496097D01*
X503865Y-496097D02*
G01*
X502063Y-500064D01*
X502063Y-500064D02*
G01*
X500999Y-504288D01*
X500999Y-504288D02*
G01*
X500706Y-508635D01*
X500706Y-508635D02*
G01*
X501193Y-512964D01*
X501193Y-512964D02*
G01*
X502446Y-517136D01*
X502446Y-517136D02*
G01*
X504424Y-521018D01*
X504424Y-521018D02*
G01*
X507063Y-524484D01*
X507063Y-524484D02*
G01*
X510279Y-527423D01*
X510279Y-527423D02*
G01*
X513967Y-529741D01*
X513967Y-529741D02*
G01*
X518011Y-531363D01*
X518011Y-531363D02*
G01*
X522279Y-532237D01*
X522279Y-532237D02*
G01*
X526634Y-532334D01*
X526634Y-532334D02*
G01*
X530937Y-531653D01*
X530937Y-531653D02*
G01*
X535049Y-530214D01*
X535049Y-530214D02*
G01*
X538838Y-528064D01*
X538838Y-528064D02*
G01*
X542182Y-525272D01*
X542182Y-525272D02*
G01*
X544974Y-521928D01*
X544974Y-521928D02*
G01*
X547124Y-518139D01*
X547124Y-518139D02*
G01*
X548563Y-514027D01*
X548563Y-514027D02*
G01*
X549245Y-509724D01*
X549245Y-509724D02*
G01*
X549147Y-505369D01*
X549147Y-505369D02*
G01*
X548273Y-501101D01*
X548273Y-501101D02*
G01*
X546651Y-497058D01*
X546651Y-497058D02*
G01*
X544299Y-493332D01*
X544299Y-493332D02*
G01*
X544299Y-475000D01*
X544299Y-475000D02*
G01*
X543929Y-471234D01*
X543929Y-471234D02*
G01*
X542830Y-467614D01*
X542830Y-467614D02*
G01*
X541047Y-464277D01*
X541047Y-464277D02*
G01*
X538647Y-461352D01*
X538647Y-461352D02*
G01*
X529299Y-452005D01*
X529299Y-452005D02*
G01*
X529299Y-420000D01*
X529299Y-420000D02*
G01*
X528929Y-416234D01*
X528929Y-416234D02*
G01*
X527830Y-412614D01*
X527830Y-412614D02*
G01*
X526047Y-409277D01*
X526047Y-409277D02*
G01*
X523647Y-406352D01*
X523647Y-406352D02*
G01*
X429299Y-312005D01*
X429299Y-312005D02*
G01*
X429299Y-240017D01*
X429299Y-240017D02*
G01*
X433395Y-240832D01*
X433395Y-240832D02*
G01*
X439373Y-241224D01*
X439373Y-241224D02*
G01*
X445350Y-240832D01*
X445350Y-240832D02*
G01*
X451225Y-239663D01*
X451225Y-239663D02*
G01*
X456898Y-237737D01*
X456898Y-237737D02*
G01*
X462271Y-235088D01*
X462271Y-235088D02*
G01*
X467251Y-231760D01*
X467251Y-231760D02*
G01*
X471755Y-227810D01*
X471755Y-227810D02*
G01*
X475705Y-223306D01*
X475705Y-223306D02*
G01*
X479033Y-218326D01*
X479033Y-218326D02*
G01*
X481682Y-212953D01*
X481682Y-212953D02*
G01*
X483608Y-207280D01*
X483608Y-207280D02*
G01*
X484777Y-201405D01*
X484777Y-201405D02*
G01*
X485169Y-195428D01*
X485169Y-195428D02*
G01*
X484777Y-189450D01*
X484777Y-189450D02*
G01*
X483608Y-183575D01*
X483608Y-183575D02*
G01*
X481682Y-177902D01*
X481682Y-177902D02*
G01*
X479033Y-172530D01*
X479033Y-172530D02*
G01*
X475705Y-167549D01*
X475705Y-167549D02*
G01*
X471755Y-163045D01*
X471755Y-163045D02*
G01*
X467251Y-159095D01*
X467251Y-159095D02*
G01*
X462271Y-155767D01*
X462271Y-155767D02*
G01*
X456898Y-153117D01*
X456898Y-153117D02*
G01*
X451225Y-151192D01*
X451225Y-151192D02*
G01*
X445350Y-150023D01*
X445350Y-150023D02*
G01*
X439373Y-149632D01*
X439373Y-149632D02*
G01*
X433395Y-150023D01*
X433395Y-150023D02*
G01*
X427520Y-151192D01*
X427520Y-151192D02*
G01*
X421847Y-153117D01*
X421847Y-153117D02*
G01*
X416475Y-155767D01*
X416475Y-155767D02*
G01*
X411494Y-159095D01*
X411494Y-159095D02*
G01*
X406990Y-163045D01*
X406990Y-163045D02*
G01*
X403040Y-167549D01*
X403040Y-167549D02*
G01*
X400003Y-172095D01*
X400003Y-172095D02*
G01*
X396965Y-167549D01*
X396965Y-167549D02*
G01*
X393015Y-163045D01*
X393015Y-163045D02*
G01*
X388511Y-159095D01*
X388511Y-159095D02*
G01*
X383530Y-155767D01*
X383530Y-155767D02*
G01*
X378158Y-153117D01*
X378158Y-153117D02*
G01*
X372485Y-151192D01*
X372485Y-151192D02*
G01*
X366610Y-150023D01*
X366610Y-150023D02*
G01*
X360632Y-149632D01*
X360632Y-149632D02*
G01*
X354655Y-150023D01*
X354655Y-150023D02*
G01*
X348780Y-151192D01*
X348780Y-151192D02*
G01*
X343107Y-153117D01*
X343107Y-153117D02*
G01*
X337734Y-155767D01*
X337734Y-155767D02*
G01*
X332754Y-159095D01*
X332754Y-159095D02*
G01*
X328250Y-163045D01*
X328250Y-163045D02*
G01*
X324300Y-167549D01*
X324300Y-167549D02*
G01*
X320972Y-172530D01*
X320972Y-172530D02*
G01*
X318323Y-177902D01*
X318323Y-177902D02*
G01*
X316397Y-183575D01*
X316397Y-183575D02*
G01*
X315228Y-189450D01*
X315228Y-189450D02*
G01*
X314837Y-195428D01*
X314837Y-195428D02*
G01*
X315228Y-201405D01*
X315228Y-201405D02*
G01*
X316397Y-207280D01*
X316397Y-207280D02*
G01*
X318323Y-212953D01*
X318323Y-212953D02*
G01*
X320972Y-218326D01*
X320972Y-218326D02*
G01*
X324300Y-223306D01*
X324300Y-223306D02*
G01*
X328250Y-227810D01*
X328250Y-227810D02*
G01*
X332754Y-231760D01*
X332754Y-231760D02*
G01*
X337734Y-235088D01*
X337734Y-235088D02*
G01*
X343107Y-237737D01*
X343107Y-237737D02*
G01*
X348780Y-239663D01*
X348780Y-239663D02*
G01*
X354655Y-240832D01*
X354655Y-240832D02*
G01*
X360632Y-241224D01*
X360632Y-241224D02*
G01*
X366610Y-240832D01*
X366610Y-240832D02*
G01*
X370700Y-240018D01*
X370700Y-240018D02*
G01*
X370700Y-330000D01*
X370700Y-330000D02*
G01*
X371070Y-333765D01*
X371070Y-333765D02*
G01*
X372169Y-337385D01*
X372169Y-337385D02*
G01*
X373952Y-340722D01*
X373952Y-340722D02*
G01*
X376352Y-343647D01*
X376352Y-343647D02*
G01*
X470700Y-437994D01*
X470700Y-437994D02*
G01*
X470700Y-452005D01*
X470700Y-452005D02*
G01*
X461352Y-461352D01*
X461352Y-461352D02*
G01*
X458952Y-464277D01*
X458952Y-464277D02*
G01*
X457169Y-467614D01*
X457169Y-467614D02*
G01*
X456070Y-471234D01*
X456070Y-471234D02*
G01*
X455700Y-475000D01*
X455700Y-475000D02*
G01*
X455700Y-493449D01*
X455700Y-493449D02*
G01*
X453865Y-496097D01*
X453865Y-496097D02*
G01*
X452063Y-500064D01*
X452063Y-500064D02*
G01*
X450999Y-504288D01*
X450999Y-504288D02*
G01*
X450706Y-508635D01*
X450706Y-508635D02*
G01*
X451193Y-512964D01*
X451193Y-512964D02*
G01*
X452446Y-517136D01*
X452446Y-517136D02*
G01*
X454424Y-521018D01*
X454424Y-521018D02*
G01*
X457063Y-524484D01*
X694444Y-1380628D02*
G01*
X697083Y-1384094D01*
X697083Y-1384094D02*
G01*
X700299Y-1387033D01*
X700299Y-1387033D02*
G01*
X703987Y-1389351D01*
X703987Y-1389351D02*
G01*
X708031Y-1390973D01*
X708031Y-1390973D02*
G01*
X712299Y-1391847D01*
X712299Y-1391847D02*
G01*
X716654Y-1391945D01*
X716654Y-1391945D02*
G01*
X720957Y-1391263D01*
X720957Y-1391263D02*
G01*
X725069Y-1389824D01*
X725069Y-1389824D02*
G01*
X728858Y-1387674D01*
X728858Y-1387674D02*
G01*
X732202Y-1384882D01*
X732202Y-1384882D02*
G01*
X734994Y-1381538D01*
X734994Y-1381538D02*
G01*
X737144Y-1377749D01*
X737144Y-1377749D02*
G01*
X738583Y-1373637D01*
X738583Y-1373637D02*
G01*
X739265Y-1369334D01*
X739265Y-1369334D02*
G01*
X739167Y-1364979D01*
X739167Y-1364979D02*
G01*
X738293Y-1360711D01*
X738293Y-1360711D02*
G01*
X736671Y-1356667D01*
X736671Y-1356667D02*
G01*
X734299Y-1352920D01*
X734299Y-1352920D02*
G01*
X734299Y-1108584D01*
X734299Y-1108584D02*
G01*
X737092Y-1107348D01*
X737092Y-1107348D02*
G01*
X742326Y-1104175D01*
X742326Y-1104175D02*
G01*
X747112Y-1100358D01*
X747112Y-1100358D02*
G01*
X751370Y-1095962D01*
X751370Y-1095962D02*
G01*
X755030Y-1091057D01*
X755030Y-1091057D02*
G01*
X758034Y-1085724D01*
X758034Y-1085724D02*
G01*
X760331Y-1080050D01*
X760331Y-1080050D02*
G01*
X761883Y-1074130D01*
X761883Y-1074130D02*
G01*
X762666Y-1068060D01*
X762666Y-1068060D02*
G01*
X762666Y-1061939D01*
X762666Y-1061939D02*
G01*
X761883Y-1055869D01*
X761883Y-1055869D02*
G01*
X760331Y-1049949D01*
X760331Y-1049949D02*
G01*
X758034Y-1044275D01*
X758034Y-1044275D02*
G01*
X755030Y-1038942D01*
X755030Y-1038942D02*
G01*
X751370Y-1034037D01*
X751370Y-1034037D02*
G01*
X747112Y-1029641D01*
X747112Y-1029641D02*
G01*
X742326Y-1025824D01*
X742326Y-1025824D02*
G01*
X737092Y-1022651D01*
X737092Y-1022651D02*
G01*
X731496Y-1020174D01*
X731496Y-1020174D02*
G01*
X725628Y-1018433D01*
X725628Y-1018433D02*
G01*
X719586Y-1017456D01*
X719586Y-1017456D02*
G01*
X713469Y-1017260D01*
X713469Y-1017260D02*
G01*
X707376Y-1017847D01*
X707376Y-1017847D02*
G01*
X701409Y-1019209D01*
X701409Y-1019209D02*
G01*
X695665Y-1021323D01*
X695665Y-1021323D02*
G01*
X690239Y-1024154D01*
X690239Y-1024154D02*
G01*
X685219Y-1027656D01*
X685219Y-1027656D02*
G01*
X680688Y-1031771D01*
X680688Y-1031771D02*
G01*
X676720Y-1036431D01*
X676720Y-1036431D02*
G01*
X673381Y-1041561D01*
X673381Y-1041561D02*
G01*
X670726Y-1047075D01*
X670726Y-1047075D02*
G01*
X668797Y-1052884D01*
X668797Y-1052884D02*
G01*
X667627Y-1058892D01*
X667627Y-1058892D02*
G01*
X667235Y-1065000D01*
X667235Y-1065000D02*
G01*
X667627Y-1071107D01*
X667627Y-1071107D02*
G01*
X668797Y-1077115D01*
X668797Y-1077115D02*
G01*
X670726Y-1082924D01*
X670726Y-1082924D02*
G01*
X673381Y-1088438D01*
X673381Y-1088438D02*
G01*
X676720Y-1093568D01*
X676720Y-1093568D02*
G01*
X680688Y-1098228D01*
X680688Y-1098228D02*
G01*
X685219Y-1102343D01*
X685219Y-1102343D02*
G01*
X690239Y-1105845D01*
X690239Y-1105845D02*
G01*
X695700Y-1108689D01*
X695700Y-1108689D02*
G01*
X695700Y-1353088D01*
X695700Y-1353088D02*
G01*
X693885Y-1355707D01*
X693885Y-1355707D02*
G01*
X692083Y-1359674D01*
X692083Y-1359674D02*
G01*
X691019Y-1363898D01*
X691019Y-1363898D02*
G01*
X690726Y-1368245D01*
X690726Y-1368245D02*
G01*
X691213Y-1372574D01*
X691213Y-1372574D02*
G01*
X692466Y-1376746D01*
X692466Y-1376746D02*
G01*
X694444Y-1380628D01*
X576720Y-993568D02*
G01*
X580688Y-998228D01*
X580688Y-998228D02*
G01*
X585219Y-1002343D01*
X585219Y-1002343D02*
G01*
X590239Y-1005845D01*
X590239Y-1005845D02*
G01*
X595665Y-1008676D01*
X595665Y-1008676D02*
G01*
X601409Y-1010790D01*
X601409Y-1010790D02*
G01*
X607376Y-1012152D01*
X607376Y-1012152D02*
G01*
X613469Y-1012739D01*
X613469Y-1012739D02*
G01*
X619586Y-1012543D01*
X619586Y-1012543D02*
G01*
X625628Y-1011566D01*
X625628Y-1011566D02*
G01*
X631496Y-1009825D01*
X631496Y-1009825D02*
G01*
X637092Y-1007348D01*
X637092Y-1007348D02*
G01*
X642326Y-1004175D01*
X642326Y-1004175D02*
G01*
X647112Y-1000358D01*
X647112Y-1000358D02*
G01*
X651370Y-995962D01*
X651370Y-995962D02*
G01*
X655030Y-991057D01*
X655030Y-991057D02*
G01*
X658034Y-985724D01*
X658034Y-985724D02*
G01*
X660331Y-980050D01*
X660331Y-980050D02*
G01*
X661883Y-974130D01*
X661883Y-974130D02*
G01*
X662666Y-968060D01*
X662666Y-968060D02*
G01*
X662666Y-961939D01*
X662666Y-961939D02*
G01*
X661883Y-955869D01*
X661883Y-955869D02*
G01*
X660331Y-949949D01*
X660331Y-949949D02*
G01*
X658034Y-944275D01*
X658034Y-944275D02*
G01*
X655030Y-938942D01*
X655030Y-938942D02*
G01*
X651370Y-934037D01*
X651370Y-934037D02*
G01*
X647112Y-929641D01*
X647112Y-929641D02*
G01*
X642326Y-925824D01*
X642326Y-925824D02*
G01*
X637092Y-922651D01*
X637092Y-922651D02*
G01*
X634299Y-921415D01*
X634299Y-921415D02*
G01*
X634299Y-739646D01*
X634299Y-739646D02*
G01*
X634974Y-738838D01*
X634974Y-738838D02*
G01*
X637124Y-735049D01*
X637124Y-735049D02*
G01*
X638563Y-730937D01*
X638563Y-730937D02*
G01*
X639245Y-726634D01*
X639245Y-726634D02*
G01*
X639147Y-722279D01*
X639147Y-722279D02*
G01*
X638273Y-718011D01*
X638273Y-718011D02*
G01*
X636651Y-713967D01*
X636651Y-713967D02*
G01*
X634333Y-710279D01*
X634333Y-710279D02*
G01*
X631394Y-707063D01*
X631394Y-707063D02*
G01*
X627928Y-704424D01*
X627928Y-704424D02*
G01*
X624046Y-702446D01*
X624046Y-702446D02*
G01*
X619874Y-701193D01*
X619874Y-701193D02*
G01*
X615545Y-700706D01*
X615545Y-700706D02*
G01*
X611198Y-700999D01*
X611198Y-700999D02*
G01*
X606974Y-702063D01*
X606974Y-702063D02*
G01*
X603007Y-703865D01*
X603007Y-703865D02*
G01*
X599426Y-706346D01*
X599426Y-706346D02*
G01*
X596346Y-709426D01*
X596346Y-709426D02*
G01*
X593865Y-713007D01*
X593865Y-713007D02*
G01*
X592063Y-716974D01*
X592063Y-716974D02*
G01*
X590999Y-721198D01*
X590999Y-721198D02*
G01*
X590706Y-725545D01*
X590706Y-725545D02*
G01*
X591193Y-729874D01*
X591193Y-729874D02*
G01*
X592446Y-734046D01*
X592446Y-734046D02*
G01*
X594424Y-737928D01*
X594424Y-737928D02*
G01*
X595700Y-739603D01*
X595700Y-739603D02*
G01*
X595700Y-921310D01*
X595700Y-921310D02*
G01*
X590239Y-924154D01*
X590239Y-924154D02*
G01*
X585219Y-927656D01*
X585219Y-927656D02*
G01*
X580688Y-931771D01*
X580688Y-931771D02*
G01*
X576720Y-936431D01*
X576720Y-936431D02*
G01*
X573381Y-941561D01*
X573381Y-941561D02*
G01*
X570726Y-947075D01*
X570726Y-947075D02*
G01*
X568797Y-952884D01*
X568797Y-952884D02*
G01*
X567627Y-958892D01*
X567627Y-958892D02*
G01*
X567235Y-965000D01*
X567235Y-965000D02*
G01*
X567627Y-971107D01*
X567627Y-971107D02*
G01*
X568797Y-977115D01*
X568797Y-977115D02*
G01*
X570726Y-982924D01*
X570726Y-982924D02*
G01*
X573381Y-988438D01*
X573381Y-988438D02*
G01*
X576720Y-993568D01*
X380243Y-1567232D02*
G01*
X382827Y-1570654D01*
X382827Y-1570654D02*
G01*
X385996Y-1573543D01*
X385996Y-1573543D02*
G01*
X389642Y-1575800D01*
X389642Y-1575800D02*
G01*
X393640Y-1577349D01*
X393640Y-1577349D02*
G01*
X397856Y-1578137D01*
X397856Y-1578137D02*
G01*
X402143Y-1578137D01*
X402143Y-1578137D02*
G01*
X406359Y-1577349D01*
X406359Y-1577349D02*
G01*
X410357Y-1575800D01*
X410357Y-1575800D02*
G01*
X414003Y-1573543D01*
X414003Y-1573543D02*
G01*
X417172Y-1570654D01*
X417172Y-1570654D02*
G01*
X419756Y-1567232D01*
X419756Y-1567232D02*
G01*
X421667Y-1563394D01*
X421667Y-1563394D02*
G01*
X422841Y-1559269D01*
X422841Y-1559269D02*
G01*
X423236Y-1555000D01*
X423236Y-1555000D02*
G01*
X422959Y-1552008D01*
X422959Y-1552008D02*
G01*
X423976Y-1552150D01*
X423976Y-1552150D02*
G01*
X428063Y-1551961D01*
X428063Y-1551961D02*
G01*
X432046Y-1551024D01*
X432046Y-1551024D02*
G01*
X435790Y-1549371D01*
X435790Y-1549371D02*
G01*
X439166Y-1547059D01*
X439166Y-1547059D02*
G01*
X442059Y-1544165D01*
X442059Y-1544165D02*
G01*
X444371Y-1540789D01*
X444371Y-1540789D02*
G01*
X446024Y-1537046D01*
X446024Y-1537046D02*
G01*
X446961Y-1533063D01*
X446961Y-1533063D02*
G01*
X447150Y-1528975D01*
X447150Y-1528975D02*
G01*
X446884Y-1527071D01*
X446884Y-1527071D02*
G01*
X449276Y-1526961D01*
X449276Y-1526961D02*
G01*
X453259Y-1526024D01*
X453259Y-1526024D02*
G01*
X457003Y-1524371D01*
X457003Y-1524371D02*
G01*
X460378Y-1522059D01*
X460378Y-1522059D02*
G01*
X463272Y-1519165D01*
X463272Y-1519165D02*
G01*
X465584Y-1515789D01*
X465584Y-1515789D02*
G01*
X467237Y-1512046D01*
X467237Y-1512046D02*
G01*
X468174Y-1508063D01*
X468174Y-1508063D02*
G01*
X468363Y-1503975D01*
X468363Y-1503975D02*
G01*
X468097Y-1502071D01*
X468097Y-1502071D02*
G01*
X470490Y-1501961D01*
X470490Y-1501961D02*
G01*
X474473Y-1501024D01*
X474473Y-1501024D02*
G01*
X478216Y-1499371D01*
X478216Y-1499371D02*
G01*
X481592Y-1497059D01*
X481592Y-1497059D02*
G01*
X484486Y-1494165D01*
X484486Y-1494165D02*
G01*
X486798Y-1490790D01*
X486798Y-1490790D02*
G01*
X488451Y-1487046D01*
X488451Y-1487046D02*
G01*
X489388Y-1483063D01*
X489388Y-1483063D02*
G01*
X489577Y-1478975D01*
X489577Y-1478975D02*
G01*
X489011Y-1474923D01*
X489011Y-1474923D02*
G01*
X487711Y-1471043D01*
X487711Y-1471043D02*
G01*
X485720Y-1467468D01*
X485720Y-1467468D02*
G01*
X483106Y-1464320D01*
X483106Y-1464320D02*
G01*
X476350Y-1458075D01*
X476350Y-1458075D02*
G01*
X469125Y-1452379D01*
X469125Y-1452379D02*
G01*
X461475Y-1447267D01*
X461475Y-1447267D02*
G01*
X453447Y-1442772D01*
X453447Y-1442772D02*
G01*
X445092Y-1438920D01*
X445092Y-1438920D02*
G01*
X436460Y-1435735D01*
X436460Y-1435735D02*
G01*
X427605Y-1433238D01*
X427605Y-1433238D02*
G01*
X418581Y-1431443D01*
X418581Y-1431443D02*
G01*
X409444Y-1430362D01*
X409444Y-1430362D02*
G01*
X400251Y-1430000D01*
X400251Y-1430000D02*
G01*
X391058Y-1430362D01*
X391058Y-1430362D02*
G01*
X381921Y-1431443D01*
X381921Y-1431443D02*
G01*
X372897Y-1433238D01*
X372897Y-1433238D02*
G01*
X364042Y-1435735D01*
X364042Y-1435735D02*
G01*
X355410Y-1438920D01*
X355410Y-1438920D02*
G01*
X347055Y-1442772D01*
X347055Y-1442772D02*
G01*
X339027Y-1447267D01*
X339027Y-1447267D02*
G01*
X331377Y-1452379D01*
X331377Y-1452379D02*
G01*
X324152Y-1458075D01*
X324152Y-1458075D02*
G01*
X317396Y-1464320D01*
X317396Y-1464320D02*
G01*
X314782Y-1467468D01*
X314782Y-1467468D02*
G01*
X312791Y-1471043D01*
X312791Y-1471043D02*
G01*
X311491Y-1474923D01*
X311491Y-1474923D02*
G01*
X310925Y-1478975D01*
X310925Y-1478975D02*
G01*
X311114Y-1483063D01*
X311114Y-1483063D02*
G01*
X312051Y-1487046D01*
X312051Y-1487046D02*
G01*
X313704Y-1490790D01*
X313704Y-1490790D02*
G01*
X316016Y-1494165D01*
X316016Y-1494165D02*
G01*
X318910Y-1497059D01*
X318910Y-1497059D02*
G01*
X322286Y-1499371D01*
X322286Y-1499371D02*
G01*
X326029Y-1501024D01*
X326029Y-1501024D02*
G01*
X330012Y-1501961D01*
X330012Y-1501961D02*
G01*
X332405Y-1502071D01*
X332405Y-1502071D02*
G01*
X332139Y-1503975D01*
X332139Y-1503975D02*
G01*
X332328Y-1508063D01*
X332328Y-1508063D02*
G01*
X333265Y-1512046D01*
X333265Y-1512046D02*
G01*
X334918Y-1515789D01*
X334918Y-1515789D02*
G01*
X337230Y-1519165D01*
X337230Y-1519165D02*
G01*
X340124Y-1522059D01*
X340124Y-1522059D02*
G01*
X343499Y-1524371D01*
X343499Y-1524371D02*
G01*
X347243Y-1526024D01*
X347243Y-1526024D02*
G01*
X351226Y-1526961D01*
X351226Y-1526961D02*
G01*
X353618Y-1527071D01*
X353618Y-1527071D02*
G01*
X353352Y-1528975D01*
X353352Y-1528975D02*
G01*
X353541Y-1533063D01*
X353541Y-1533063D02*
G01*
X354478Y-1537046D01*
X354478Y-1537046D02*
G01*
X356131Y-1540789D01*
X356131Y-1540789D02*
G01*
X358443Y-1544165D01*
X358443Y-1544165D02*
G01*
X361336Y-1547059D01*
X361336Y-1547059D02*
G01*
X364712Y-1549371D01*
X364712Y-1549371D02*
G01*
X368456Y-1551024D01*
X368456Y-1551024D02*
G01*
X372439Y-1551961D01*
X372439Y-1551961D02*
G01*
X376526Y-1552150D01*
X376526Y-1552150D02*
G01*
X377033Y-1552079D01*
X377033Y-1552079D02*
G01*
X376763Y-1555000D01*
X376763Y-1555000D02*
G01*
X377158Y-1559269D01*
X377158Y-1559269D02*
G01*
X378332Y-1563394D01*
X378332Y-1563394D02*
G01*
X380243Y-1567232D01*
X646458Y-1844603D02*
G01*
X649424Y-1848075D01*
X649424Y-1848075D02*
G01*
X652896Y-1851041D01*
X652896Y-1851041D02*
G01*
X656789Y-1853427D01*
X656789Y-1853427D02*
G01*
X661008Y-1855174D01*
X661008Y-1855174D02*
G01*
X665448Y-1856240D01*
X665448Y-1856240D02*
G01*
X670001Y-1856599D01*
X670001Y-1856599D02*
G01*
X689531Y-1856599D01*
X689531Y-1856599D02*
G01*
X690623Y-1856930D01*
X690623Y-1856930D02*
G01*
X694488Y-1857310D01*
X694488Y-1857310D02*
G01*
X698354Y-1856930D01*
X698354Y-1856930D02*
G01*
X699446Y-1856599D01*
X699446Y-1856599D02*
G01*
X730001Y-1856599D01*
X730001Y-1856599D02*
G01*
X734553Y-1856240D01*
X734553Y-1856240D02*
G01*
X738993Y-1855174D01*
X738993Y-1855174D02*
G01*
X743212Y-1853427D01*
X743212Y-1853427D02*
G01*
X747105Y-1851041D01*
X747105Y-1851041D02*
G01*
X750577Y-1848075D01*
X750577Y-1848075D02*
G01*
X753543Y-1844603D01*
X753543Y-1844603D02*
G01*
X755929Y-1840710D01*
X755929Y-1840710D02*
G01*
X757676Y-1836491D01*
X757676Y-1836491D02*
G01*
X758742Y-1832051D01*
X758742Y-1832051D02*
G01*
X759101Y-1827498D01*
X759101Y-1827498D02*
G01*
X759101Y-1822451D01*
X759101Y-1822451D02*
G01*
X759431Y-1821362D01*
X759431Y-1821362D02*
G01*
X759648Y-1819651D01*
X759648Y-1819651D02*
G01*
X759773Y-1816451D01*
X759773Y-1816451D02*
G01*
X759431Y-1813631D01*
X759431Y-1813631D02*
G01*
X759101Y-1812543D01*
X759101Y-1812543D02*
G01*
X759101Y-1792498D01*
X759101Y-1792498D02*
G01*
X758742Y-1787946D01*
X758742Y-1787946D02*
G01*
X757676Y-1783506D01*
X757676Y-1783506D02*
G01*
X755929Y-1779287D01*
X755929Y-1779287D02*
G01*
X753543Y-1775394D01*
X753543Y-1775394D02*
G01*
X750577Y-1771922D01*
X750577Y-1771922D02*
G01*
X747105Y-1768956D01*
X747105Y-1768956D02*
G01*
X743212Y-1766570D01*
X743212Y-1766570D02*
G01*
X738993Y-1764823D01*
X738993Y-1764823D02*
G01*
X734553Y-1763757D01*
X734553Y-1763757D02*
G01*
X730001Y-1763398D01*
X730001Y-1763398D02*
G01*
X670001Y-1763398D01*
X670001Y-1763398D02*
G01*
X665448Y-1763757D01*
X665448Y-1763757D02*
G01*
X661008Y-1764823D01*
X661008Y-1764823D02*
G01*
X656789Y-1766570D01*
X656789Y-1766570D02*
G01*
X652896Y-1768956D01*
X652896Y-1768956D02*
G01*
X649424Y-1771922D01*
X649424Y-1771922D02*
G01*
X646458Y-1775394D01*
X646458Y-1775394D02*
G01*
X644072Y-1779287D01*
X644072Y-1779287D02*
G01*
X642325Y-1783506D01*
X642325Y-1783506D02*
G01*
X641259Y-1787946D01*
X641259Y-1787946D02*
G01*
X640900Y-1792498D01*
X640900Y-1792498D02*
G01*
X640900Y-1797535D01*
X640900Y-1797535D02*
G01*
X640567Y-1798633D01*
X640567Y-1798633D02*
G01*
X640187Y-1802498D01*
X640187Y-1802498D02*
G01*
X640567Y-1806364D01*
X640567Y-1806364D02*
G01*
X640900Y-1807462D01*
X640900Y-1807462D02*
G01*
X640900Y-1827498D01*
X640900Y-1827498D02*
G01*
X641259Y-1832051D01*
X641259Y-1832051D02*
G01*
X642325Y-1836491D01*
X642325Y-1836491D02*
G01*
X644072Y-1840710D01*
X644072Y-1840710D02*
G01*
X646458Y-1844603D01*
X26680Y-831700D02*
G01*
X30955Y-836253D01*
X30955Y-836253D02*
G01*
X35767Y-840234D01*
X35767Y-840234D02*
G01*
X41040Y-843581D01*
X41040Y-843581D02*
G01*
X46692Y-846240D01*
X46692Y-846240D02*
G01*
X52631Y-848170D01*
X52631Y-848170D02*
G01*
X58766Y-849340D01*
X58766Y-849340D02*
G01*
X65000Y-849733D01*
X65000Y-849733D02*
G01*
X71233Y-849340D01*
X71233Y-849340D02*
G01*
X77368Y-848170D01*
X77368Y-848170D02*
G01*
X83307Y-846240D01*
X83307Y-846240D02*
G01*
X88959Y-843581D01*
X88959Y-843581D02*
G01*
X94232Y-840234D01*
X94232Y-840234D02*
G01*
X99044Y-836253D01*
X99044Y-836253D02*
G01*
X103319Y-831700D01*
X103319Y-831700D02*
G01*
X106990Y-826648D01*
X106990Y-826648D02*
G01*
X109999Y-821175D01*
X109999Y-821175D02*
G01*
X112298Y-815368D01*
X112298Y-815368D02*
G01*
X113852Y-809319D01*
X113852Y-809319D02*
G01*
X114634Y-803122D01*
X114634Y-803122D02*
G01*
X114634Y-796877D01*
X114634Y-796877D02*
G01*
X113852Y-790680D01*
X113852Y-790680D02*
G01*
X112298Y-784631D01*
X112298Y-784631D02*
G01*
X109999Y-778824D01*
X109999Y-778824D02*
G01*
X106990Y-773351D01*
X106990Y-773351D02*
G01*
X103319Y-768299D01*
X103319Y-768299D02*
G01*
X99044Y-763746D01*
X99044Y-763746D02*
G01*
X94232Y-759765D01*
X94232Y-759765D02*
G01*
X88959Y-756418D01*
X88959Y-756418D02*
G01*
X83307Y-753759D01*
X83307Y-753759D02*
G01*
X77368Y-751829D01*
X77368Y-751829D02*
G01*
X71233Y-750659D01*
X71233Y-750659D02*
G01*
X65000Y-750266D01*
X65000Y-750266D02*
G01*
X58766Y-750659D01*
X58766Y-750659D02*
G01*
X52631Y-751829D01*
X52631Y-751829D02*
G01*
X46692Y-753759D01*
X46692Y-753759D02*
G01*
X41040Y-756418D01*
X41040Y-756418D02*
G01*
X35767Y-759765D01*
X35767Y-759765D02*
G01*
X30955Y-763746D01*
X30955Y-763746D02*
G01*
X26680Y-768299D01*
X26680Y-768299D02*
G01*
X23009Y-773351D01*
X23009Y-773351D02*
G01*
X20000Y-778824D01*
X20000Y-778824D02*
G01*
X17701Y-784631D01*
X17701Y-784631D02*
G01*
X16147Y-790680D01*
X16147Y-790680D02*
G01*
X15365Y-796877D01*
X15365Y-796877D02*
G01*
X15365Y-803122D01*
X15365Y-803122D02*
G01*
X16147Y-809319D01*
X16147Y-809319D02*
G01*
X17701Y-815368D01*
X17701Y-815368D02*
G01*
X20000Y-821175D01*
X20000Y-821175D02*
G01*
X23009Y-826648D01*
X23009Y-826648D02*
G01*
X26680Y-831700D01*
X476720Y-993568D02*
G01*
X480688Y-998228D01*
X480688Y-998228D02*
G01*
X485219Y-1002343D01*
X485219Y-1002343D02*
G01*
X490239Y-1005845D01*
X490239Y-1005845D02*
G01*
X495665Y-1008676D01*
X495665Y-1008676D02*
G01*
X501409Y-1010790D01*
X501409Y-1010790D02*
G01*
X507376Y-1012152D01*
X507376Y-1012152D02*
G01*
X513469Y-1012739D01*
X513469Y-1012739D02*
G01*
X519586Y-1012543D01*
X519586Y-1012543D02*
G01*
X525628Y-1011566D01*
X525628Y-1011566D02*
G01*
X531496Y-1009825D01*
X531496Y-1009825D02*
G01*
X537092Y-1007348D01*
X537092Y-1007348D02*
G01*
X542326Y-1004175D01*
X542326Y-1004175D02*
G01*
X547112Y-1000358D01*
X547112Y-1000358D02*
G01*
X551370Y-995962D01*
X551370Y-995962D02*
G01*
X555030Y-991057D01*
X555030Y-991057D02*
G01*
X558034Y-985724D01*
X558034Y-985724D02*
G01*
X560331Y-980050D01*
X560331Y-980050D02*
G01*
X561883Y-974130D01*
X561883Y-974130D02*
G01*
X562666Y-968060D01*
X562666Y-968060D02*
G01*
X562666Y-961939D01*
X562666Y-961939D02*
G01*
X561883Y-955869D01*
X561883Y-955869D02*
G01*
X560331Y-949949D01*
X560331Y-949949D02*
G01*
X558034Y-944275D01*
X558034Y-944275D02*
G01*
X555030Y-938942D01*
X555030Y-938942D02*
G01*
X551370Y-934037D01*
X551370Y-934037D02*
G01*
X547112Y-929641D01*
X547112Y-929641D02*
G01*
X542326Y-925824D01*
X542326Y-925824D02*
G01*
X537092Y-922651D01*
X537092Y-922651D02*
G01*
X531496Y-920174D01*
X531496Y-920174D02*
G01*
X525628Y-918433D01*
X525628Y-918433D02*
G01*
X519586Y-917456D01*
X519586Y-917456D02*
G01*
X513469Y-917260D01*
X513469Y-917260D02*
G01*
X507376Y-917847D01*
X507376Y-917847D02*
G01*
X501409Y-919209D01*
X501409Y-919209D02*
G01*
X495665Y-921323D01*
X495665Y-921323D02*
G01*
X490239Y-924154D01*
X490239Y-924154D02*
G01*
X485219Y-927656D01*
X485219Y-927656D02*
G01*
X480688Y-931771D01*
X480688Y-931771D02*
G01*
X476720Y-936431D01*
X476720Y-936431D02*
G01*
X473381Y-941561D01*
X473381Y-941561D02*
G01*
X470726Y-947075D01*
X470726Y-947075D02*
G01*
X468797Y-952884D01*
X468797Y-952884D02*
G01*
X467627Y-958892D01*
X467627Y-958892D02*
G01*
X467235Y-965000D01*
X467235Y-965000D02*
G01*
X467627Y-971107D01*
X467627Y-971107D02*
G01*
X468797Y-977115D01*
X468797Y-977115D02*
G01*
X470726Y-982924D01*
X470726Y-982924D02*
G01*
X473381Y-988438D01*
X473381Y-988438D02*
G01*
X476720Y-993568D01*
X376720Y-993568D02*
G01*
X380688Y-998228D01*
X380688Y-998228D02*
G01*
X385219Y-1002343D01*
X385219Y-1002343D02*
G01*
X390239Y-1005845D01*
X390239Y-1005845D02*
G01*
X395665Y-1008676D01*
X395665Y-1008676D02*
G01*
X401409Y-1010790D01*
X401409Y-1010790D02*
G01*
X407376Y-1012152D01*
X407376Y-1012152D02*
G01*
X413469Y-1012739D01*
X413469Y-1012739D02*
G01*
X419586Y-1012543D01*
X419586Y-1012543D02*
G01*
X425628Y-1011566D01*
X425628Y-1011566D02*
G01*
X431496Y-1009825D01*
X431496Y-1009825D02*
G01*
X437092Y-1007348D01*
X437092Y-1007348D02*
G01*
X442326Y-1004175D01*
X442326Y-1004175D02*
G01*
X447112Y-1000358D01*
X447112Y-1000358D02*
G01*
X451370Y-995962D01*
X451370Y-995962D02*
G01*
X455030Y-991057D01*
X455030Y-991057D02*
G01*
X458034Y-985724D01*
X458034Y-985724D02*
G01*
X460331Y-980050D01*
X460331Y-980050D02*
G01*
X461883Y-974130D01*
X461883Y-974130D02*
G01*
X462666Y-968060D01*
X462666Y-968060D02*
G01*
X462666Y-961939D01*
X462666Y-961939D02*
G01*
X461883Y-955869D01*
X461883Y-955869D02*
G01*
X460331Y-949949D01*
X460331Y-949949D02*
G01*
X458034Y-944275D01*
X458034Y-944275D02*
G01*
X455030Y-938942D01*
X455030Y-938942D02*
G01*
X451370Y-934037D01*
X451370Y-934037D02*
G01*
X447112Y-929641D01*
X447112Y-929641D02*
G01*
X442326Y-925824D01*
X442326Y-925824D02*
G01*
X437092Y-922651D01*
X437092Y-922651D02*
G01*
X431496Y-920174D01*
X431496Y-920174D02*
G01*
X425628Y-918433D01*
X425628Y-918433D02*
G01*
X419586Y-917456D01*
X419586Y-917456D02*
G01*
X413469Y-917260D01*
X413469Y-917260D02*
G01*
X407376Y-917847D01*
X407376Y-917847D02*
G01*
X401409Y-919209D01*
X401409Y-919209D02*
G01*
X395665Y-921323D01*
X395665Y-921323D02*
G01*
X390239Y-924154D01*
X390239Y-924154D02*
G01*
X385219Y-927656D01*
X385219Y-927656D02*
G01*
X380688Y-931771D01*
X380688Y-931771D02*
G01*
X376720Y-936431D01*
X376720Y-936431D02*
G01*
X373381Y-941561D01*
X373381Y-941561D02*
G01*
X370726Y-947075D01*
X370726Y-947075D02*
G01*
X368797Y-952884D01*
X368797Y-952884D02*
G01*
X367627Y-958892D01*
X367627Y-958892D02*
G01*
X367235Y-965000D01*
X367235Y-965000D02*
G01*
X367627Y-971107D01*
X367627Y-971107D02*
G01*
X368797Y-977115D01*
X368797Y-977115D02*
G01*
X370726Y-982924D01*
X370726Y-982924D02*
G01*
X373381Y-988438D01*
X373381Y-988438D02*
G01*
X376720Y-993568D01*
X505415Y-227820D02*
G01*
X509919Y-231770D01*
X509919Y-231770D02*
G01*
X514899Y-235098D01*
X514899Y-235098D02*
G01*
X520272Y-237748D01*
X520272Y-237748D02*
G01*
X525945Y-239673D01*
X525945Y-239673D02*
G01*
X531820Y-240842D01*
X531820Y-240842D02*
G01*
X537797Y-241233D01*
X537797Y-241233D02*
G01*
X543775Y-240842D01*
X543775Y-240842D02*
G01*
X549650Y-239673D01*
X549650Y-239673D02*
G01*
X555323Y-237748D01*
X555323Y-237748D02*
G01*
X560695Y-235098D01*
X560695Y-235098D02*
G01*
X565676Y-231770D01*
X565676Y-231770D02*
G01*
X570180Y-227820D01*
X570180Y-227820D02*
G01*
X574130Y-223316D01*
X574130Y-223316D02*
G01*
X577458Y-218335D01*
X577458Y-218335D02*
G01*
X580108Y-212963D01*
X580108Y-212963D02*
G01*
X582033Y-207290D01*
X582033Y-207290D02*
G01*
X583202Y-201415D01*
X583202Y-201415D02*
G01*
X583593Y-195437D01*
X583593Y-195437D02*
G01*
X583202Y-189460D01*
X583202Y-189460D02*
G01*
X582033Y-183585D01*
X582033Y-183585D02*
G01*
X580108Y-177912D01*
X580108Y-177912D02*
G01*
X577458Y-172539D01*
X577458Y-172539D02*
G01*
X574130Y-167559D01*
X574130Y-167559D02*
G01*
X570180Y-163055D01*
X570180Y-163055D02*
G01*
X565676Y-159105D01*
X565676Y-159105D02*
G01*
X560695Y-155777D01*
X560695Y-155777D02*
G01*
X555323Y-153128D01*
X555323Y-153128D02*
G01*
X549650Y-151202D01*
X549650Y-151202D02*
G01*
X543775Y-150033D01*
X543775Y-150033D02*
G01*
X537797Y-149641D01*
X537797Y-149641D02*
G01*
X531820Y-150033D01*
X531820Y-150033D02*
G01*
X525945Y-151202D01*
X525945Y-151202D02*
G01*
X520272Y-153128D01*
X520272Y-153128D02*
G01*
X514899Y-155777D01*
X514899Y-155777D02*
G01*
X509919Y-159105D01*
X509919Y-159105D02*
G01*
X505415Y-163055D01*
X505415Y-163055D02*
G01*
X501465Y-167559D01*
X501465Y-167559D02*
G01*
X498137Y-172539D01*
X498137Y-172539D02*
G01*
X495488Y-177912D01*
X495488Y-177912D02*
G01*
X493562Y-183585D01*
X493562Y-183585D02*
G01*
X492393Y-189460D01*
X492393Y-189460D02*
G01*
X492002Y-195437D01*
X492002Y-195437D02*
G01*
X492393Y-201415D01*
X492393Y-201415D02*
G01*
X493562Y-207290D01*
X493562Y-207290D02*
G01*
X495488Y-212963D01*
X495488Y-212963D02*
G01*
X498137Y-218335D01*
X498137Y-218335D02*
G01*
X501465Y-223316D01*
X501465Y-223316D02*
G01*
X505415Y-227820D01*
X462180Y-146182D02*
G01*
X465788Y-149931D01*
X465788Y-149931D02*
G01*
X469926Y-153085D01*
X469926Y-153085D02*
G01*
X474497Y-155571D01*
X474497Y-155571D02*
G01*
X479394Y-157330D01*
X479394Y-157330D02*
G01*
X484502Y-158320D01*
X484502Y-158320D02*
G01*
X489701Y-158520D01*
X489701Y-158520D02*
G01*
X494870Y-157923D01*
X494870Y-157923D02*
G01*
X499887Y-156544D01*
X499887Y-156544D02*
G01*
X504635Y-154416D01*
X504635Y-154416D02*
G01*
X509002Y-151588D01*
X509002Y-151588D02*
G01*
X512886Y-148126D01*
X512886Y-148126D02*
G01*
X516197Y-144112D01*
X516197Y-144112D02*
G01*
X518856Y-139639D01*
X518856Y-139639D02*
G01*
X520801Y-134814D01*
X520801Y-134814D02*
G01*
X521986Y-129747D01*
X521986Y-129747D02*
G01*
X522384Y-124560D01*
X522384Y-124560D02*
G01*
X521986Y-119372D01*
X521986Y-119372D02*
G01*
X520801Y-114306D01*
X520801Y-114306D02*
G01*
X518856Y-109480D01*
X518856Y-109480D02*
G01*
X516197Y-105007D01*
X516197Y-105007D02*
G01*
X512886Y-100993D01*
X512886Y-100993D02*
G01*
X509002Y-97532D01*
X509002Y-97532D02*
G01*
X504635Y-94703D01*
X504635Y-94703D02*
G01*
X499887Y-92575D01*
X499887Y-92575D02*
G01*
X494870Y-91196D01*
X494870Y-91196D02*
G01*
X489701Y-90599D01*
X489701Y-90599D02*
G01*
X484502Y-90799D01*
X484502Y-90799D02*
G01*
X479394Y-91789D01*
X479394Y-91789D02*
G01*
X474497Y-93548D01*
X474497Y-93548D02*
G01*
X469926Y-96034D01*
X469926Y-96034D02*
G01*
X465788Y-99188D01*
X465788Y-99188D02*
G01*
X462180Y-102937D01*
X462180Y-102937D02*
G01*
X459187Y-107193D01*
X459187Y-107193D02*
G01*
X456878Y-111855D01*
X456878Y-111855D02*
G01*
X455309Y-116816D01*
X455309Y-116816D02*
G01*
X454514Y-121958D01*
X454514Y-121958D02*
G01*
X454514Y-127161D01*
X454514Y-127161D02*
G01*
X455309Y-132303D01*
X455309Y-132303D02*
G01*
X456878Y-137264D01*
X456878Y-137264D02*
G01*
X459187Y-141927D01*
X459187Y-141927D02*
G01*
X462180Y-146182D01*
X285400Y-146182D02*
G01*
X289008Y-149931D01*
X289008Y-149931D02*
G01*
X293146Y-153085D01*
X293146Y-153085D02*
G01*
X297717Y-155571D01*
X297717Y-155571D02*
G01*
X302614Y-157330D01*
X302614Y-157330D02*
G01*
X307722Y-158320D01*
X307722Y-158320D02*
G01*
X312921Y-158520D01*
X312921Y-158520D02*
G01*
X318090Y-157923D01*
X318090Y-157923D02*
G01*
X323107Y-156544D01*
X323107Y-156544D02*
G01*
X327855Y-154416D01*
X327855Y-154416D02*
G01*
X332222Y-151588D01*
X332222Y-151588D02*
G01*
X336106Y-148126D01*
X336106Y-148126D02*
G01*
X339417Y-144112D01*
X339417Y-144112D02*
G01*
X342076Y-139639D01*
X342076Y-139639D02*
G01*
X344021Y-134814D01*
X344021Y-134814D02*
G01*
X345206Y-129747D01*
X345206Y-129747D02*
G01*
X345605Y-124560D01*
X345605Y-124560D02*
G01*
X345206Y-119372D01*
X345206Y-119372D02*
G01*
X344021Y-114306D01*
X344021Y-114306D02*
G01*
X342076Y-109480D01*
X342076Y-109480D02*
G01*
X339417Y-105007D01*
X339417Y-105007D02*
G01*
X336106Y-100993D01*
X336106Y-100993D02*
G01*
X332222Y-97532D01*
X332222Y-97532D02*
G01*
X327855Y-94703D01*
X327855Y-94703D02*
G01*
X323107Y-92575D01*
X323107Y-92575D02*
G01*
X318090Y-91196D01*
X318090Y-91196D02*
G01*
X312921Y-90599D01*
X312921Y-90599D02*
G01*
X307722Y-90799D01*
X307722Y-90799D02*
G01*
X302614Y-91789D01*
X302614Y-91789D02*
G01*
X297717Y-93548D01*
X297717Y-93548D02*
G01*
X293146Y-96034D01*
X293146Y-96034D02*
G01*
X289008Y-99188D01*
X289008Y-99188D02*
G01*
X285400Y-102937D01*
X285400Y-102937D02*
G01*
X282407Y-107193D01*
X282407Y-107193D02*
G01*
X280098Y-111855D01*
X280098Y-111855D02*
G01*
X278528Y-116816D01*
X278528Y-116816D02*
G01*
X277734Y-121958D01*
X277734Y-121958D02*
G01*
X277734Y-127161D01*
X277734Y-127161D02*
G01*
X278528Y-132303D01*
X278528Y-132303D02*
G01*
X280098Y-137264D01*
X280098Y-137264D02*
G01*
X282407Y-141927D01*
X282407Y-141927D02*
G01*
X285400Y-146182D01*
X9555Y-1833784D02*
G01*
X66215Y-1890444D01*
X9299Y-1812315D02*
G01*
X87684Y-1890700D01*
X9299Y-1791101D02*
G01*
X60947Y-1842749D01*
X82500Y-1864301D02*
G01*
X108898Y-1890700D01*
X9299Y-1769888D02*
G01*
X65387Y-1825975D01*
X99223Y-1859811D02*
G01*
X130111Y-1890700D01*
X9299Y-1748675D02*
G01*
X77666Y-1817041D01*
X120074Y-1859450D02*
G01*
X151324Y-1890700D01*
X9299Y-1727462D02*
G01*
X102687Y-1820850D01*
X138936Y-1857098D02*
G01*
X172537Y-1890700D01*
X9299Y-1706249D02*
G01*
X60996Y-1757945D01*
X88425Y-1785374D02*
G01*
X122901Y-1819850D01*
X150195Y-1847144D02*
G01*
X193750Y-1890700D01*
X9299Y-1685035D02*
G01*
X68233Y-1743969D01*
X104964Y-1780700D02*
G01*
X133504Y-1809240D01*
X160799Y-1836535D02*
G01*
X214964Y-1890700D01*
X9299Y-1663822D02*
G01*
X82781Y-1737303D01*
X126177Y-1780700D02*
G01*
X144108Y-1798631D01*
X171402Y-1825925D02*
G01*
X236177Y-1890700D01*
X9299Y-1642609D02*
G01*
X108790Y-1742100D01*
X144202Y-1777511D02*
G01*
X154711Y-1788021D01*
X182006Y-1815315D02*
G01*
X257390Y-1890700D01*
X9299Y-1621396D02*
G01*
X127804Y-1739900D01*
X155099Y-1767195D02*
G01*
X165315Y-1777411D01*
X192609Y-1804705D02*
G01*
X278603Y-1890700D01*
X9299Y-1600183D02*
G01*
X138411Y-1729294D01*
X165705Y-1756588D02*
G01*
X175918Y-1766801D01*
X203213Y-1794096D02*
G01*
X299816Y-1890700D01*
X9299Y-1578969D02*
G01*
X149017Y-1718687D01*
X176312Y-1745982D02*
G01*
X186522Y-1756192D01*
X213816Y-1783486D02*
G01*
X321030Y-1890700D01*
X9299Y-1557756D02*
G01*
X159624Y-1708081D01*
X186918Y-1735375D02*
G01*
X195700Y-1744156D01*
X224420Y-1772876D02*
G01*
X342243Y-1890700D01*
X9299Y-1536543D02*
G01*
X170231Y-1697474D01*
X233368Y-1760612D02*
G01*
X363456Y-1890700D01*
X9299Y-1515330D02*
G01*
X175700Y-1681730D01*
X234299Y-1740330D02*
G01*
X384669Y-1890700D01*
X9299Y-1494117D02*
G01*
X175700Y-1660517D01*
X234299Y-1719117D02*
G01*
X405882Y-1890700D01*
X9299Y-1472903D02*
G01*
X175700Y-1639303D01*
X245096Y-1708700D02*
G01*
X427096Y-1890700D01*
X9299Y-1451690D02*
G01*
X175700Y-1618090D01*
X263038Y-1705428D02*
G01*
X448309Y-1890700D01*
X9299Y-1430477D02*
G01*
X175700Y-1596877D01*
X272577Y-1693755D02*
G01*
X469522Y-1890700D01*
X9299Y-1409264D02*
G01*
X175700Y-1575664D01*
X254299Y-1654264D02*
G01*
X490735Y-1890700D01*
X9299Y-1388051D02*
G01*
X175700Y-1554451D01*
X254299Y-1633051D02*
G01*
X511948Y-1890700D01*
X9299Y-1366837D02*
G01*
X175700Y-1533237D01*
X271697Y-1629235D02*
G01*
X533162Y-1890700D01*
X9299Y-1345624D02*
G01*
X175700Y-1512024D01*
X286460Y-1622785D02*
G01*
X554375Y-1890700D01*
X9299Y-1324411D02*
G01*
X175700Y-1490811D01*
X293872Y-1608984D02*
G01*
X575588Y-1890700D01*
X9299Y-1303198D02*
G01*
X175700Y-1469598D01*
X274299Y-1568198D02*
G01*
X596801Y-1890700D01*
X9299Y-1281985D02*
G01*
X175700Y-1448385D01*
X274299Y-1546985D02*
G01*
X618014Y-1890700D01*
X9299Y-1260771D02*
G01*
X175700Y-1427171D01*
X274299Y-1525771D02*
G01*
X639228Y-1890700D01*
X9299Y-1239558D02*
G01*
X175700Y-1405958D01*
X274299Y-1504558D02*
G01*
X660441Y-1890700D01*
X9299Y-1218345D02*
G01*
X175700Y-1384745D01*
X274299Y-1483345D02*
G01*
X681654Y-1890700D01*
X9299Y-1197132D02*
G01*
X175700Y-1363532D01*
X274299Y-1462132D02*
G01*
X641006Y-1828838D01*
X668661Y-1856493D02*
G01*
X702867Y-1890700D01*
X9299Y-1175918D02*
G01*
X175700Y-1342319D01*
X274299Y-1440918D02*
G01*
X311100Y-1477719D01*
X409510Y-1576129D02*
G01*
X640900Y-1807519D01*
X690175Y-1856794D02*
G01*
X724081Y-1890700D01*
X9299Y-1154705D02*
G01*
X175700Y-1321105D01*
X274299Y-1419705D02*
G01*
X318185Y-1463591D01*
X420444Y-1565850D02*
G01*
X641507Y-1786913D01*
X711193Y-1856599D02*
G01*
X743513Y-1888919D01*
X9299Y-1133492D02*
G01*
X175700Y-1299892D01*
X274299Y-1398492D02*
G01*
X329593Y-1453786D01*
X427781Y-1551974D02*
G01*
X580747Y-1704939D01*
X605016Y-1729208D02*
G01*
X648643Y-1772836D01*
X732230Y-1856423D02*
G01*
X758809Y-1883002D01*
X9299Y-1112279D02*
G01*
X175700Y-1278679D01*
X274299Y-1377279D02*
G01*
X342399Y-1445379D01*
X441622Y-1544602D02*
G01*
X585700Y-1688679D01*
X620558Y-1723538D02*
G01*
X661682Y-1764661D01*
X747621Y-1850600D02*
G01*
X771109Y-1874089D01*
X9299Y-1091066D02*
G01*
X175700Y-1257466D01*
X274299Y-1356066D02*
G01*
X356684Y-1438450D01*
X447140Y-1528906D02*
G01*
X585700Y-1667466D01*
X628646Y-1710412D02*
G01*
X681632Y-1763398D01*
X756812Y-1838578D02*
G01*
X780749Y-1862515D01*
X9299Y-1069852D02*
G01*
X96511Y-1157064D01*
X112732Y-1173285D02*
G01*
X175700Y-1236253D01*
X274299Y-1334852D02*
G01*
X372732Y-1433285D01*
X460942Y-1521495D02*
G01*
X585700Y-1646253D01*
X624299Y-1684852D02*
G01*
X702845Y-1763398D01*
X759586Y-1820139D02*
G01*
X787655Y-1848207D01*
X9299Y-1048639D02*
G01*
X98583Y-1137923D01*
X131671Y-1171011D02*
G01*
X175700Y-1215039D01*
X274299Y-1313639D02*
G01*
X391026Y-1430365D01*
X468198Y-1507538D02*
G01*
X585700Y-1625039D01*
X624299Y-1663639D02*
G01*
X724059Y-1763398D01*
X759101Y-1798440D02*
G01*
X790643Y-1829983D01*
X9299Y-1027426D02*
G01*
X109779Y-1127906D01*
X141820Y-1159947D02*
G01*
X175700Y-1193826D01*
X274299Y-1292426D02*
G01*
X412609Y-1430736D01*
X480014Y-1498140D02*
G01*
X585700Y-1603826D01*
X624299Y-1642426D02*
G01*
X790699Y-1808826D01*
X9299Y-1006213D02*
G01*
X122746Y-1119659D01*
X150040Y-1146953D02*
G01*
X175700Y-1172613D01*
X274299Y-1271213D02*
G01*
X440203Y-1437116D01*
X488771Y-1485685D02*
G01*
X585700Y-1582613D01*
X624299Y-1621213D02*
G01*
X790699Y-1787613D01*
X9299Y-985000D02*
G01*
X133352Y-1109052D01*
X160647Y-1136347D02*
G01*
X175700Y-1151400D01*
X274299Y-1250000D02*
G01*
X585700Y-1561400D01*
X624299Y-1600000D02*
G01*
X790699Y-1766400D01*
X9299Y-963787D02*
G01*
X95447Y-1049934D01*
X119721Y-1074208D02*
G01*
X143959Y-1098446D01*
X171253Y-1125740D02*
G01*
X175700Y-1130187D01*
X274299Y-1228787D02*
G01*
X585700Y-1540187D01*
X668692Y-1623179D02*
G01*
X790699Y-1745187D01*
X9299Y-942573D02*
G01*
X101099Y-1034373D01*
X135261Y-1068535D02*
G01*
X154565Y-1087839D01*
X274299Y-1207573D02*
G01*
X585700Y-1518973D01*
X689926Y-1623200D02*
G01*
X790699Y-1723973D01*
X9299Y-921360D02*
G01*
X114333Y-1026393D01*
X143347Y-1055407D02*
G01*
X155700Y-1067760D01*
X274299Y-1186360D02*
G01*
X585700Y-1497760D01*
X716101Y-1628162D02*
G01*
X790699Y-1702760D01*
X9299Y-900147D02*
G01*
X125779Y-1016626D01*
X153073Y-1043920D02*
G01*
X155700Y-1046547D01*
X274299Y-1165147D02*
G01*
X450869Y-1341716D01*
X644299Y-1535147D02*
G01*
X693752Y-1584600D01*
X731146Y-1621994D02*
G01*
X790699Y-1681547D01*
X9299Y-878934D02*
G01*
X135700Y-1005334D01*
X274299Y-1143934D02*
G01*
X450700Y-1320334D01*
X674865Y-1544499D02*
G01*
X710480Y-1580115D01*
X738809Y-1608443D02*
G01*
X790699Y-1660334D01*
X9299Y-857721D02*
G01*
X96117Y-944538D01*
X125210Y-973631D02*
G01*
X135700Y-984121D01*
X274299Y-1122721D02*
G01*
X450700Y-1299121D01*
X696078Y-1544499D02*
G01*
X790699Y-1639121D01*
X9299Y-836507D02*
G01*
X104133Y-931341D01*
X274299Y-1101507D02*
G01*
X296017Y-1123225D01*
X664299Y-1491507D02*
G01*
X678692Y-1505900D01*
X721393Y-1548600D02*
G01*
X790699Y-1617907D01*
X9299Y-815294D02*
G01*
X115700Y-921694D01*
X664299Y-1470294D02*
G01*
X699905Y-1505900D01*
X734102Y-1540097D02*
G01*
X790699Y-1596694D01*
X9299Y-794081D02*
G01*
X15365Y-800146D01*
X64948Y-849729D02*
G01*
X115700Y-900481D01*
X680917Y-1465698D02*
G01*
X716184Y-1500965D01*
X739201Y-1523982D02*
G01*
X790699Y-1575481D01*
X9299Y-772868D02*
G01*
X18654Y-782222D01*
X82828Y-846396D02*
G01*
X115700Y-879268D01*
X274299Y-1037868D02*
G01*
X275199Y-1038768D01*
X341256Y-1104824D02*
G01*
X470700Y-1234268D01*
X704881Y-1468449D02*
G01*
X790699Y-1554268D01*
X9299Y-751655D02*
G01*
X26370Y-768725D01*
X96228Y-838583D02*
G01*
X115700Y-858054D01*
X274299Y-1016655D02*
G01*
X285267Y-1027622D01*
X352326Y-1094681D02*
G01*
X470700Y-1213054D01*
X549299Y-1291655D02*
G01*
X684744Y-1427098D01*
X725796Y-1468151D02*
G01*
X790699Y-1533054D01*
X9299Y-730441D02*
G01*
X37514Y-758656D01*
X106366Y-827508D02*
G01*
X115700Y-836841D01*
X274299Y-995441D02*
G01*
X298966Y-1020108D01*
X359921Y-1081063D02*
G01*
X395700Y-1116841D01*
X549299Y-1270441D02*
G01*
X703808Y-1424950D01*
X736494Y-1457635D02*
G01*
X790699Y-1511841D01*
X9299Y-709228D02*
G01*
X19183Y-719111D01*
X45974Y-745902D02*
G01*
X52080Y-752008D01*
X112940Y-812869D02*
G01*
X115700Y-815628D01*
X274299Y-974228D02*
G01*
X317459Y-1017388D01*
X362666Y-1062594D02*
G01*
X367384Y-1067312D01*
X549299Y-1249228D02*
G01*
X723911Y-1423840D01*
X737469Y-1437398D02*
G01*
X790699Y-1490628D01*
X9299Y-688015D02*
G01*
X15678Y-694394D01*
X70661Y-749376D02*
G01*
X72111Y-750826D01*
X114124Y-792840D02*
G01*
X115700Y-794415D01*
X274299Y-953015D02*
G01*
X370136Y-1048851D01*
X434299Y-1113015D02*
G01*
X490700Y-1169415D01*
X549299Y-1228015D02*
G01*
X690877Y-1369593D01*
X713150Y-1391866D02*
G01*
X790699Y-1469415D01*
X9299Y-666802D02*
G01*
X20469Y-677971D01*
X174299Y-831802D02*
G01*
X175101Y-832603D01*
X274299Y-931802D02*
G01*
X377736Y-1035238D01*
X444744Y-1102246D02*
G01*
X490700Y-1148202D01*
X552396Y-1209898D02*
G01*
X695653Y-1353155D01*
X729574Y-1387076D02*
G01*
X790699Y-1448202D01*
X9299Y-645589D02*
G01*
X29261Y-665550D01*
X174299Y-810589D02*
G01*
X185708Y-821997D01*
X274299Y-910589D02*
G01*
X388841Y-1025129D01*
X454918Y-1091207D02*
G01*
X490700Y-1126988D01*
X529299Y-1165589D02*
G01*
X535708Y-1171997D01*
X563002Y-1199291D02*
G01*
X695700Y-1331988D01*
X738263Y-1374552D02*
G01*
X790699Y-1426988D01*
X9299Y-624375D02*
G01*
X41246Y-656322D01*
X174299Y-789375D02*
G01*
X196314Y-811390D01*
X283609Y-898685D02*
G01*
X373416Y-988492D01*
X391348Y-1006424D02*
G01*
X403627Y-1018703D01*
X461296Y-1076371D02*
G01*
X473416Y-1088492D01*
X529299Y-1144375D02*
G01*
X546314Y-1161390D01*
X573609Y-1188685D02*
G01*
X695700Y-1310775D01*
X734299Y-1349375D02*
G01*
X790699Y-1405775D01*
X9299Y-603162D02*
G01*
X16386Y-610249D01*
X54703Y-648565D02*
G01*
X57112Y-650974D01*
X114032Y-707894D02*
G01*
X135700Y-729562D01*
X174299Y-768162D02*
G01*
X204299Y-798162D01*
X294215Y-888078D02*
G01*
X367470Y-961333D01*
X418709Y-1012571D02*
G01*
X424366Y-1018229D01*
X461839Y-1055702D02*
G01*
X467470Y-1061333D01*
X529299Y-1123162D02*
G01*
X556921Y-1150784D01*
X584215Y-1178078D02*
G01*
X695700Y-1289562D01*
X734299Y-1328162D02*
G01*
X790699Y-1384562D01*
X9299Y-581949D02*
G01*
X16532Y-589182D01*
X75817Y-648466D02*
G01*
X80052Y-652701D01*
X112408Y-685057D02*
G01*
X135700Y-708349D01*
X174299Y-746949D02*
G01*
X199701Y-772350D01*
X304822Y-877471D02*
G01*
X371928Y-944578D01*
X435433Y-1008082D02*
G01*
X471928Y-1044578D01*
X535433Y-1108082D02*
G01*
X567528Y-1140177D01*
X594822Y-1167471D02*
G01*
X695700Y-1268349D01*
X734299Y-1306949D02*
G01*
X790699Y-1363349D01*
X9299Y-560736D02*
G01*
X22621Y-574057D01*
X174299Y-725736D02*
G01*
X203450Y-754886D01*
X315429Y-866865D02*
G01*
X380525Y-931961D01*
X448002Y-999439D02*
G01*
X480525Y-1031961D01*
X548002Y-1099439D02*
G01*
X578134Y-1129570D01*
X605429Y-1156865D02*
G01*
X695700Y-1247136D01*
X734299Y-1285736D02*
G01*
X790699Y-1342136D01*
X9299Y-539522D02*
G01*
X32360Y-562583D01*
X174299Y-704522D02*
G01*
X215276Y-745498D01*
X334077Y-864299D02*
G01*
X392665Y-922888D01*
X457121Y-987344D02*
G01*
X492665Y-1022888D01*
X557121Y-1087344D02*
G01*
X588741Y-1118964D01*
X616035Y-1146258D02*
G01*
X695700Y-1225922D01*
X734299Y-1264522D02*
G01*
X790699Y-1320922D01*
X9299Y-518309D02*
G01*
X45371Y-554380D01*
X171942Y-680952D02*
G01*
X245700Y-754709D01*
X355290Y-864299D02*
G01*
X408709Y-917719D01*
X462253Y-971263D02*
G01*
X469141Y-978151D01*
X501890Y-1010900D02*
G01*
X508709Y-1017719D01*
X562253Y-1071263D02*
G01*
X569141Y-1078151D01*
X626642Y-1135652D02*
G01*
X695700Y-1204709D01*
X734299Y-1243309D02*
G01*
X790699Y-1299709D01*
X9299Y-497096D02*
G01*
X15370Y-503167D01*
X61730Y-549527D02*
G01*
X62620Y-550416D01*
X114634Y-602431D02*
G01*
X245700Y-733496D01*
X304299Y-792096D02*
G01*
X317903Y-805700D01*
X376503Y-864299D02*
G01*
X433078Y-920874D01*
X459092Y-946888D02*
G01*
X468192Y-955989D01*
X524029Y-1011825D02*
G01*
X533078Y-1020874D01*
X559092Y-1046888D02*
G01*
X568192Y-1055989D01*
X634112Y-1121908D02*
G01*
X695700Y-1183496D01*
X734299Y-1222096D02*
G01*
X790699Y-1278496D01*
X9299Y-475883D02*
G01*
X17799Y-484382D01*
X80552Y-547135D02*
G01*
X91357Y-557940D01*
X107262Y-573846D02*
G01*
X245700Y-712283D01*
X304299Y-770883D02*
G01*
X339116Y-805700D01*
X397716Y-864299D02*
G01*
X474011Y-940594D01*
X539378Y-1005962D02*
G01*
X574011Y-1040594D01*
X639378Y-1105962D02*
G01*
X695700Y-1162283D01*
X734299Y-1200883D02*
G01*
X790699Y-1257283D01*
X9299Y-454670D02*
G01*
X25101Y-470471D01*
X304299Y-749670D02*
G01*
X360329Y-805700D01*
X418929Y-864299D02*
G01*
X483682Y-929052D01*
X550987Y-996357D02*
G01*
X583682Y-1029052D01*
X650987Y-1096357D02*
G01*
X695700Y-1141070D01*
X734299Y-1179670D02*
G01*
X790699Y-1236070D01*
X9299Y-433456D02*
G01*
X35680Y-459837D01*
X304299Y-728456D02*
G01*
X381543Y-805700D01*
X440143Y-864299D02*
G01*
X496762Y-920919D01*
X559052Y-983209D02*
G01*
X596762Y-1020919D01*
X659052Y-1083209D02*
G01*
X695700Y-1119856D01*
X734299Y-1158456D02*
G01*
X790699Y-1214856D01*
X9299Y-412243D02*
G01*
X22159Y-425103D01*
X39937Y-442880D02*
G01*
X49804Y-452748D01*
X304299Y-707243D02*
G01*
X402756Y-805700D01*
X461356Y-864299D02*
G01*
X514344Y-917288D01*
X562666Y-965610D02*
G01*
X567590Y-970534D01*
X609404Y-1012347D02*
G01*
X614344Y-1017288D01*
X662666Y-1065610D02*
G01*
X667590Y-1070534D01*
X734299Y-1137243D02*
G01*
X790699Y-1193643D01*
X9299Y-391030D02*
G01*
X15365Y-397095D01*
X67824Y-449555D02*
G01*
X68773Y-450504D01*
X303678Y-685409D02*
G01*
X423969Y-805700D01*
X482569Y-864299D02*
G01*
X569384Y-951115D01*
X628873Y-1010603D02*
G01*
X669384Y-1051115D01*
X734299Y-1116030D02*
G01*
X790699Y-1172430D01*
X9299Y-369817D02*
G01*
X19520Y-380037D01*
X149299Y-509817D02*
G01*
X193594Y-554111D01*
X220888Y-581405D02*
G01*
X242346Y-602864D01*
X268641Y-629158D02*
G01*
X445182Y-805700D01*
X498362Y-858880D02*
G01*
X576402Y-936920D01*
X643067Y-1003584D02*
G01*
X676402Y-1036920D01*
X743067Y-1103584D02*
G01*
X790699Y-1151217D01*
X9299Y-348604D02*
G01*
X27801Y-367105D01*
X149299Y-488604D02*
G01*
X204200Y-543504D01*
X234995Y-574299D02*
G01*
X248964Y-588268D01*
X284995Y-624299D02*
G01*
X466395Y-805700D01*
X508995Y-848299D02*
G01*
X587064Y-926368D01*
X653629Y-992934D02*
G01*
X687064Y-1026368D01*
X753629Y-1092934D02*
G01*
X790699Y-1130004D01*
X9299Y-327390D02*
G01*
X39381Y-357471D01*
X149299Y-467390D02*
G01*
X217823Y-535914D01*
X256209Y-574299D02*
G01*
X262892Y-580983D01*
X306209Y-624299D02*
G01*
X477307Y-795398D01*
X519601Y-837692D02*
G01*
X595700Y-913790D01*
X660669Y-978760D02*
G01*
X701197Y-1019288D01*
X760669Y-1078760D02*
G01*
X790699Y-1108790D01*
X9299Y-306177D02*
G01*
X54580Y-351457D01*
X113563Y-410441D02*
G01*
X238822Y-535700D01*
X277422Y-574299D02*
G01*
X288822Y-585700D01*
X327422Y-624299D02*
G01*
X427017Y-723895D01*
X452356Y-749234D02*
G01*
X487914Y-784791D01*
X530208Y-827085D02*
G01*
X595700Y-892577D01*
X662311Y-959189D02*
G01*
X720769Y-1017647D01*
X762311Y-1059189D02*
G01*
X790699Y-1087577D01*
X9299Y-284964D02*
G01*
X75881Y-351545D01*
X113449Y-389114D02*
G01*
X260035Y-535700D01*
X292364Y-568029D02*
G01*
X310035Y-585700D01*
X342360Y-618024D02*
G01*
X431900Y-707564D01*
X467366Y-743031D02*
G01*
X498520Y-774185D01*
X540814Y-816479D02*
G01*
X595700Y-871364D01*
X634299Y-909964D02*
G01*
X790699Y-1066364D01*
X9299Y-263751D02*
G01*
X275677Y-530128D01*
X302971Y-557422D02*
G01*
X325672Y-580124D01*
X352966Y-607418D02*
G01*
X406835Y-661287D01*
X474998Y-729450D02*
G01*
X505700Y-760151D01*
X551421Y-805872D02*
G01*
X595700Y-850151D01*
X634299Y-888751D02*
G01*
X790699Y-1045151D01*
X9299Y-242538D02*
G01*
X286283Y-519521D01*
X313578Y-546816D02*
G01*
X336279Y-569517D01*
X363573Y-596811D02*
G01*
X405700Y-638938D01*
X470500Y-703738D02*
G01*
X505700Y-738938D01*
X561547Y-794785D02*
G01*
X595700Y-828938D01*
X634299Y-867538D02*
G01*
X790699Y-1023938D01*
X9299Y-221324D02*
G01*
X296890Y-508915D01*
X324184Y-536209D02*
G01*
X346885Y-558910D01*
X374180Y-586205D02*
G01*
X405700Y-617724D01*
X470500Y-682524D02*
G01*
X505700Y-717724D01*
X564299Y-776324D02*
G01*
X595700Y-807724D01*
X634299Y-846324D02*
G01*
X790699Y-1002724D01*
X9299Y-200111D02*
G01*
X304450Y-495262D01*
X337833Y-528645D02*
G01*
X357492Y-548304D01*
X384786Y-575598D02*
G01*
X405700Y-596511D01*
X444299Y-635111D02*
G01*
X505700Y-696511D01*
X564299Y-755111D02*
G01*
X595700Y-786511D01*
X634299Y-825111D02*
G01*
X790699Y-981511D01*
X9299Y-178898D02*
G01*
X316005Y-485603D01*
X347494Y-517092D02*
G01*
X368099Y-537697D01*
X395393Y-564991D02*
G01*
X405700Y-575298D01*
X444299Y-613898D02*
G01*
X505700Y-675298D01*
X564299Y-733898D02*
G01*
X595700Y-765298D01*
X634299Y-803898D02*
G01*
X790699Y-960298D01*
X9299Y-157685D02*
G01*
X378705Y-527091D01*
X444299Y-592685D02*
G01*
X505700Y-654085D01*
X564299Y-712685D02*
G01*
X595700Y-744085D01*
X634299Y-782685D02*
G01*
X790699Y-939085D01*
X9299Y-136472D02*
G01*
X389312Y-516484D01*
X444299Y-571472D02*
G01*
X505700Y-632872D01*
X564299Y-691472D02*
G01*
X591608Y-718780D01*
X634299Y-761472D02*
G01*
X790699Y-917872D01*
X9299Y-115258D02*
G01*
X399918Y-505877D01*
X444299Y-550258D02*
G01*
X505700Y-611658D01*
X564299Y-670258D02*
G01*
X599994Y-705953D01*
X634299Y-740258D02*
G01*
X790699Y-896658D01*
X9299Y-94045D02*
G01*
X405700Y-490445D01*
X444299Y-529045D02*
G01*
X511480Y-596225D01*
X564299Y-649045D02*
G01*
X616013Y-700758D01*
X639184Y-723929D02*
G01*
X790699Y-875445D01*
X9299Y-72832D02*
G01*
X255700Y-319232D01*
X448827Y-512359D02*
G01*
X451950Y-515482D01*
X467710Y-531242D02*
G01*
X522086Y-585619D01*
X564380Y-627913D02*
G01*
X790699Y-854232D01*
X11733Y-54052D02*
G01*
X255700Y-298019D01*
X444299Y-486619D02*
G01*
X453838Y-496157D01*
X486865Y-529184D02*
G01*
X532693Y-575012D01*
X574987Y-617306D02*
G01*
X790699Y-833019D01*
X18119Y-39225D02*
G01*
X252286Y-273392D01*
X443406Y-464512D02*
G01*
X455700Y-476806D01*
X497091Y-518197D02*
G01*
X543299Y-564405D01*
X585594Y-606700D02*
G01*
X790699Y-811806D01*
X27453Y-27346D02*
G01*
X261752Y-261645D01*
X295293Y-295186D02*
G01*
X461406Y-461299D01*
X495772Y-495665D02*
G01*
X501682Y-501575D01*
X531547Y-531440D02*
G01*
X553906Y-553799D01*
X596200Y-596093D02*
G01*
X790699Y-790592D01*
X39355Y-18035D02*
G01*
X279367Y-258046D01*
X298796Y-277476D02*
G01*
X470700Y-449379D01*
X499307Y-477986D02*
G01*
X505700Y-484379D01*
X544189Y-522869D02*
G01*
X564513Y-543192D01*
X606807Y-585486D02*
G01*
X790699Y-769379D01*
X54221Y-11687D02*
G01*
X370700Y-328166D01*
X549175Y-506642D02*
G01*
X575119Y-532586D01*
X617413Y-574880D02*
G01*
X790699Y-748166D01*
X73046Y-9299D02*
G01*
X370700Y-306953D01*
X544299Y-480553D02*
G01*
X585726Y-521979D01*
X628020Y-564273D02*
G01*
X790699Y-726953D01*
X94259Y-9299D02*
G01*
X370700Y-285740D01*
X529299Y-444340D02*
G01*
X596332Y-511372D01*
X638627Y-553667D02*
G01*
X790699Y-705740D01*
X115473Y-9299D02*
G01*
X317910Y-211736D01*
X344324Y-238150D02*
G01*
X370700Y-264526D01*
X529299Y-423126D02*
G01*
X606939Y-500766D01*
X649233Y-543060D02*
G01*
X790699Y-684526D01*
X136686Y-9299D02*
G01*
X315495Y-188109D01*
X367951Y-240565D02*
G01*
X370700Y-243313D01*
X429299Y-301913D02*
G01*
X617546Y-490159D01*
X659840Y-532453D02*
G01*
X790699Y-663313D01*
X157899Y-9299D02*
G01*
X278095Y-129495D01*
X306727Y-158127D02*
G01*
X321035Y-172435D01*
X429299Y-280700D02*
G01*
X628152Y-479553D01*
X670446Y-521847D02*
G01*
X790699Y-642100D01*
X179112Y-9299D02*
G01*
X280618Y-110805D01*
X325351Y-155538D02*
G01*
X330705Y-160892D01*
X429299Y-259487D02*
G01*
X638759Y-468946D01*
X689112Y-519299D02*
G01*
X689352Y-519540D01*
X715485Y-545672D02*
G01*
X790699Y-620887D01*
X200326Y-9299D02*
G01*
X289692Y-98667D01*
X337483Y-146457D02*
G01*
X343881Y-152855D01*
X431476Y-240450D02*
G01*
X649365Y-458339D01*
X740418Y-549392D02*
G01*
X790699Y-599674D01*
X221539Y-9299D02*
G01*
X303799Y-91560D01*
X344596Y-132357D02*
G01*
X361957Y-149718D01*
X451731Y-239492D02*
G01*
X659972Y-447733D01*
X687266Y-475027D02*
G01*
X690377Y-478138D01*
X756824Y-544585D02*
G01*
X790699Y-578460D01*
X242752Y-9299D02*
G01*
X328708Y-95256D01*
X340820Y-107368D02*
G01*
X402223Y-168771D01*
X466029Y-232577D02*
G01*
X670578Y-437126D01*
X697873Y-464421D02*
G01*
X699135Y-465683D01*
X769364Y-535912D02*
G01*
X790699Y-557247D01*
X263965Y-9299D02*
G01*
X412853Y-158187D01*
X476613Y-221947D02*
G01*
X681185Y-426520D01*
X708479Y-453814D02*
G01*
X711070Y-456404D01*
X778524Y-523858D02*
G01*
X790699Y-536034D01*
X285178Y-9299D02*
G01*
X427184Y-151306D01*
X483494Y-207615D02*
G01*
X686476Y-410597D01*
X724383Y-448504D02*
G01*
X726894Y-451016D01*
X784003Y-508124D02*
G01*
X790699Y-514821D01*
X306392Y-9299D02*
G01*
X447554Y-150462D01*
X484338Y-187246D02*
G01*
X492034Y-194942D01*
X538293Y-241201D02*
G01*
X686479Y-389387D01*
X745599Y-448507D02*
G01*
X749669Y-452577D01*
X782497Y-485405D02*
G01*
X790699Y-493607D01*
X327605Y-9299D02*
G01*
X458162Y-139857D01*
X473136Y-154830D02*
G01*
X495729Y-177423D01*
X555812Y-237507D02*
G01*
X692529Y-374224D01*
X760749Y-442444D02*
G01*
X790699Y-472394D01*
X348818Y-9299D02*
G01*
X455555Y-116037D01*
X496887Y-157369D02*
G01*
X504087Y-164569D01*
X568666Y-229148D02*
G01*
X702219Y-362700D01*
X772302Y-432784D02*
G01*
X790699Y-451181D01*
X370031Y-9299D02*
G01*
X462910Y-102179D01*
X510756Y-150024D02*
G01*
X515977Y-155246D01*
X577989Y-217258D02*
G01*
X715195Y-354463D01*
X780540Y-419809D02*
G01*
X790699Y-429968D01*
X391244Y-9299D02*
G01*
X475230Y-93285D01*
X519639Y-137695D02*
G01*
X531968Y-150024D01*
X583211Y-201267D02*
G01*
X732376Y-350432D01*
X784634Y-402690D02*
G01*
X790699Y-408755D01*
X412458Y-9299D02*
G01*
X494287Y-91129D01*
X521820Y-118662D02*
G01*
X557222Y-154064D01*
X579171Y-176013D02*
G01*
X760649Y-357491D01*
X777578Y-374420D02*
G01*
X790699Y-387541D01*
X433671Y-9299D02*
G01*
X790699Y-366328D01*
X454884Y-9299D02*
G01*
X790699Y-345115D01*
X476097Y-9299D02*
G01*
X790699Y-323902D01*
X497310Y-9299D02*
G01*
X790699Y-302689D01*
X518524Y-9299D02*
G01*
X790699Y-281475D01*
X539737Y-9299D02*
G01*
X790699Y-260262D01*
X560950Y-9299D02*
G01*
X790699Y-239049D01*
X582163Y-9299D02*
G01*
X790699Y-217836D01*
X603376Y-9299D02*
G01*
X790699Y-196623D01*
X624589Y-9299D02*
G01*
X790699Y-175410D01*
X645803Y-9299D02*
G01*
X790699Y-154196D01*
X667016Y-9299D02*
G01*
X790699Y-132983D01*
X688229Y-9299D02*
G01*
X790699Y-111770D01*
X709442Y-9299D02*
G01*
X790699Y-90557D01*
X730752Y-9396D02*
G01*
X790603Y-69247D01*
X760529Y-17960D02*
G01*
X782039Y-39470D01*
X733784Y-1890444D02*
G01*
X790444Y-1833784D01*
X712315Y-1890700D02*
G01*
X790699Y-1812315D01*
X691101Y-1890700D02*
G01*
X725202Y-1856599D01*
X759101Y-1822700D02*
G01*
X790699Y-1791101D01*
X669888Y-1890700D02*
G01*
X703989Y-1856599D01*
X759101Y-1801487D02*
G01*
X790699Y-1769888D01*
X648675Y-1890700D02*
G01*
X682776Y-1856599D01*
X757147Y-1782228D02*
G01*
X790699Y-1748675D01*
X627462Y-1890700D02*
G01*
X662604Y-1855557D01*
X748238Y-1769924D02*
G01*
X790699Y-1727462D01*
X606249Y-1890700D02*
G01*
X649170Y-1847778D01*
X733291Y-1763657D02*
G01*
X790699Y-1706249D01*
X585035Y-1890700D02*
G01*
X641728Y-1834007D01*
X712336Y-1763398D02*
G01*
X790699Y-1685035D01*
X563822Y-1890700D02*
G01*
X640900Y-1813621D01*
X691123Y-1763398D02*
G01*
X790699Y-1663822D01*
X542609Y-1890700D02*
G01*
X640908Y-1792400D01*
X669902Y-1763406D02*
G01*
X790699Y-1642609D01*
X521396Y-1890700D02*
G01*
X790699Y-1621396D01*
X500183Y-1890700D02*
G01*
X790699Y-1600183D01*
X478969Y-1890700D02*
G01*
X790699Y-1578969D01*
X457756Y-1890700D02*
G01*
X720966Y-1627490D01*
X738580Y-1609876D02*
G01*
X790699Y-1557756D01*
X436543Y-1890700D02*
G01*
X598807Y-1728436D01*
X628436Y-1698807D02*
G01*
X702564Y-1624679D01*
X735773Y-1591469D02*
G01*
X790699Y-1536543D01*
X415330Y-1890700D02*
G01*
X586014Y-1720016D01*
X624299Y-1681730D02*
G01*
X682830Y-1623200D01*
X724455Y-1581574D02*
G01*
X790699Y-1515330D01*
X394117Y-1890700D02*
G01*
X580809Y-1704007D01*
X624299Y-1660517D02*
G01*
X662720Y-1622096D01*
X700217Y-1584600D02*
G01*
X790699Y-1494117D01*
X372903Y-1890700D02*
G01*
X585700Y-1677903D01*
X624299Y-1639303D02*
G01*
X650654Y-1612949D01*
X679003Y-1584600D02*
G01*
X714223Y-1549380D01*
X739210Y-1524393D02*
G01*
X790699Y-1472903D01*
X351690Y-1890700D02*
G01*
X585700Y-1656690D01*
X624299Y-1618090D02*
G01*
X640048Y-1602342D01*
X667342Y-1575048D02*
G01*
X697890Y-1544499D01*
X733192Y-1509198D02*
G01*
X790699Y-1451690D01*
X330477Y-1890700D02*
G01*
X585700Y-1635477D01*
X624299Y-1596877D02*
G01*
X629441Y-1591735D01*
X656735Y-1564441D02*
G01*
X676677Y-1544499D01*
X719803Y-1501373D02*
G01*
X790699Y-1430477D01*
X309264Y-1890700D02*
G01*
X585700Y-1614264D01*
X646129Y-1553834D02*
G01*
X659059Y-1540904D01*
X694064Y-1505900D02*
G01*
X790699Y-1409264D01*
X288051Y-1890700D02*
G01*
X585700Y-1593051D01*
X644299Y-1534451D02*
G01*
X648228Y-1530522D01*
X675522Y-1503228D02*
G01*
X708866Y-1469884D01*
X738464Y-1440286D02*
G01*
X790699Y-1388051D01*
X266837Y-1890700D02*
G01*
X585700Y-1571837D01*
X664916Y-1492621D02*
G01*
X691838Y-1465698D01*
X730063Y-1427474D02*
G01*
X790699Y-1366837D01*
X245624Y-1890700D02*
G01*
X585700Y-1550624D01*
X664299Y-1472024D02*
G01*
X670625Y-1465698D01*
X714078Y-1422246D02*
G01*
X790699Y-1345624D01*
X224411Y-1890700D02*
G01*
X585700Y-1529411D01*
X688012Y-1427098D02*
G01*
X725572Y-1389539D01*
X736859Y-1378252D02*
G01*
X790699Y-1324411D01*
X203198Y-1890700D02*
G01*
X585700Y-1508198D01*
X670596Y-1423301D02*
G01*
X704386Y-1389511D01*
X736831Y-1357066D02*
G01*
X790699Y-1303198D01*
X181985Y-1890700D02*
G01*
X585700Y-1486985D01*
X659989Y-1412695D02*
G01*
X693638Y-1379046D01*
X734299Y-1338385D02*
G01*
X790699Y-1281985D01*
X160771Y-1890700D02*
G01*
X577088Y-1474383D01*
X649383Y-1402088D02*
G01*
X692321Y-1359150D01*
X734299Y-1317171D02*
G01*
X790699Y-1260771D01*
X139558Y-1890700D02*
G01*
X566482Y-1463776D01*
X638776Y-1391482D02*
G01*
X695700Y-1334558D01*
X734299Y-1295958D02*
G01*
X790699Y-1239558D01*
X118345Y-1890700D02*
G01*
X555875Y-1453169D01*
X628169Y-1380875D02*
G01*
X695700Y-1313345D01*
X734299Y-1274745D02*
G01*
X790699Y-1218345D01*
X97132Y-1890700D02*
G01*
X128382Y-1859450D01*
X234299Y-1753532D02*
G01*
X545268Y-1442563D01*
X617563Y-1370268D02*
G01*
X695700Y-1292132D01*
X734299Y-1253532D02*
G01*
X790699Y-1197132D01*
X75918Y-1890700D02*
G01*
X107168Y-1859450D01*
X234299Y-1732319D02*
G01*
X259195Y-1707423D01*
X272423Y-1694195D02*
G01*
X390489Y-1576129D01*
X489340Y-1477278D02*
G01*
X534662Y-1431956D01*
X606956Y-1359662D02*
G01*
X695700Y-1270918D01*
X734299Y-1232319D02*
G01*
X790699Y-1175918D01*
X56486Y-1888919D02*
G01*
X81309Y-1864096D01*
X234299Y-1711105D02*
G01*
X238836Y-1706568D01*
X271568Y-1673836D02*
G01*
X379555Y-1565850D01*
X482056Y-1463349D02*
G01*
X524055Y-1421350D01*
X596350Y-1349055D02*
G01*
X695700Y-1249705D01*
X734299Y-1211105D02*
G01*
X790699Y-1154705D01*
X41190Y-1883002D02*
G01*
X67373Y-1856818D01*
X103342Y-1820850D02*
G01*
X195700Y-1728492D01*
X260834Y-1663357D02*
G01*
X372270Y-1551921D01*
X470628Y-1453564D02*
G01*
X513449Y-1410743D01*
X585743Y-1338449D02*
G01*
X695700Y-1228492D01*
X734299Y-1189892D02*
G01*
X790699Y-1133492D01*
X28890Y-1874089D02*
G01*
X60874Y-1842104D01*
X86964Y-1816014D02*
G01*
X122279Y-1780700D01*
X254299Y-1648679D02*
G01*
X274129Y-1628849D01*
X293849Y-1609129D02*
G01*
X358628Y-1544350D01*
X457780Y-1445198D02*
G01*
X502842Y-1400136D01*
X575136Y-1327842D02*
G01*
X695700Y-1207279D01*
X734299Y-1168679D02*
G01*
X790699Y-1112279D01*
X19250Y-1862515D02*
G01*
X101066Y-1780700D01*
X254299Y-1627466D02*
G01*
X256601Y-1625164D01*
X290164Y-1591601D02*
G01*
X353443Y-1528322D01*
X443451Y-1438314D02*
G01*
X492235Y-1389530D01*
X564530Y-1317235D02*
G01*
X695700Y-1186066D01*
X734299Y-1147466D02*
G01*
X790699Y-1091066D01*
X12345Y-1848207D02*
G01*
X76488Y-1784064D01*
X118452Y-1742100D02*
G01*
X175700Y-1684852D01*
X278323Y-1582229D02*
G01*
X339308Y-1521244D01*
X427362Y-1433190D02*
G01*
X481629Y-1378923D01*
X553923Y-1306629D02*
G01*
X695700Y-1164852D01*
X734299Y-1126253D02*
G01*
X790699Y-1069852D01*
X9356Y-1829983D02*
G01*
X64685Y-1774654D01*
X98264Y-1741075D02*
G01*
X175700Y-1663639D01*
X274299Y-1565039D02*
G01*
X332282Y-1507057D01*
X408995Y-1430344D02*
G01*
X471022Y-1368317D01*
X549299Y-1290039D02*
G01*
X695700Y-1143639D01*
X760701Y-1078638D02*
G01*
X790699Y-1048639D01*
X9299Y-1808826D02*
G01*
X61188Y-1756938D01*
X80548Y-1737577D02*
G01*
X175700Y-1642426D01*
X274299Y-1543826D02*
G01*
X320190Y-1497936D01*
X387322Y-1430804D02*
G01*
X460416Y-1357710D01*
X549299Y-1268826D02*
G01*
X695700Y-1122426D01*
X761926Y-1056200D02*
G01*
X790699Y-1027426D01*
X9299Y-1787613D02*
G01*
X175700Y-1621213D01*
X274299Y-1522613D02*
G01*
X311635Y-1485277D01*
X359502Y-1437410D02*
G01*
X451554Y-1345359D01*
X549299Y-1247613D02*
G01*
X690784Y-1106129D01*
X756089Y-1040823D02*
G01*
X790699Y-1006213D01*
X9299Y-1766400D02*
G01*
X175700Y-1600000D01*
X274299Y-1501400D02*
G01*
X450700Y-1325000D01*
X549299Y-1226400D02*
G01*
X679209Y-1096491D01*
X746526Y-1029173D02*
G01*
X790699Y-985000D01*
X9299Y-1745187D02*
G01*
X175700Y-1578787D01*
X274299Y-1480187D02*
G01*
X450700Y-1303787D01*
X634279Y-1120207D02*
G01*
X670998Y-1083488D01*
X733448Y-1021038D02*
G01*
X790699Y-963787D01*
X9299Y-1723973D02*
G01*
X175700Y-1557573D01*
X274299Y-1458973D02*
G01*
X450489Y-1282784D01*
X662289Y-1070984D02*
G01*
X667298Y-1065975D01*
X715934Y-1017339D02*
G01*
X790699Y-942573D01*
X9299Y-1702760D02*
G01*
X175700Y-1536360D01*
X274299Y-1437760D02*
G01*
X439883Y-1272177D01*
X467177Y-1244883D02*
G01*
X470700Y-1241360D01*
X660701Y-1051359D02*
G01*
X790699Y-921360D01*
X9299Y-1681547D02*
G01*
X175700Y-1515147D01*
X274299Y-1416547D02*
G01*
X429276Y-1261570D01*
X456570Y-1234276D02*
G01*
X470700Y-1220147D01*
X529299Y-1161547D02*
G01*
X587154Y-1103693D01*
X653694Y-1037152D02*
G01*
X790699Y-900147D01*
X9299Y-1660334D02*
G01*
X175700Y-1493934D01*
X274299Y-1395334D02*
G01*
X418669Y-1250964D01*
X445964Y-1223669D02*
G01*
X463669Y-1205964D01*
X529299Y-1140334D02*
G01*
X576462Y-1093171D01*
X643151Y-1026482D02*
G01*
X790699Y-878934D01*
X9299Y-1639121D02*
G01*
X175700Y-1472721D01*
X274299Y-1374121D02*
G01*
X408063Y-1240357D01*
X435357Y-1213063D02*
G01*
X453063Y-1195357D01*
X480357Y-1168063D02*
G01*
X490700Y-1157721D01*
X529299Y-1119121D02*
G01*
X569422Y-1078998D01*
X628990Y-1019430D02*
G01*
X790699Y-857721D01*
X9299Y-1617907D02*
G01*
X175700Y-1451507D01*
X274299Y-1352907D02*
G01*
X397456Y-1229751D01*
X424751Y-1202456D02*
G01*
X442456Y-1184751D01*
X469751Y-1157456D02*
G01*
X490700Y-1136507D01*
X562666Y-1064541D02*
G01*
X567580Y-1059627D01*
X609571Y-1017636D02*
G01*
X614500Y-1012706D01*
X662666Y-964541D02*
G01*
X790699Y-836507D01*
X9299Y-1596694D02*
G01*
X175700Y-1430294D01*
X274299Y-1331694D02*
G01*
X386850Y-1219144D01*
X414144Y-1191850D02*
G01*
X431850Y-1174144D01*
X459144Y-1146850D02*
G01*
X490700Y-1115294D01*
X559096Y-1046898D02*
G01*
X596873Y-1009121D01*
X659096Y-946898D02*
G01*
X790699Y-815294D01*
X9299Y-1575481D02*
G01*
X175700Y-1409081D01*
X274299Y-1310481D02*
G01*
X376243Y-1208537D01*
X403537Y-1181243D02*
G01*
X421243Y-1163537D01*
X448537Y-1136243D02*
G01*
X483761Y-1101019D01*
X551061Y-1033719D02*
G01*
X583761Y-1001019D01*
X651061Y-933719D02*
G01*
X790699Y-794081D01*
X9299Y-1554268D02*
G01*
X175700Y-1387868D01*
X274299Y-1289268D02*
G01*
X365636Y-1197931D01*
X392931Y-1170636D02*
G01*
X410636Y-1152931D01*
X437931Y-1125636D02*
G01*
X474070Y-1089497D01*
X539473Y-1024095D02*
G01*
X574070Y-989497D01*
X639473Y-924095D02*
G01*
X790699Y-772868D01*
X9299Y-1533054D02*
G01*
X175700Y-1366655D01*
X274299Y-1268054D02*
G01*
X355030Y-1187324D01*
X382324Y-1160030D02*
G01*
X400160Y-1142194D01*
X458989Y-1083365D02*
G01*
X468217Y-1074137D01*
X524159Y-1018195D02*
G01*
X533350Y-1009004D01*
X558989Y-983365D02*
G01*
X568217Y-974137D01*
X634299Y-908054D02*
G01*
X790699Y-751655D01*
X9299Y-1511841D02*
G01*
X175700Y-1345441D01*
X274299Y-1246841D02*
G01*
X344423Y-1176718D01*
X371718Y-1149423D02*
G01*
X395700Y-1125441D01*
X462270Y-1058871D02*
G01*
X469066Y-1052075D01*
X502086Y-1019055D02*
G01*
X508847Y-1012294D01*
X562270Y-958871D02*
G01*
X569066Y-952075D01*
X634299Y-886841D02*
G01*
X790699Y-730441D01*
X9299Y-1490628D02*
G01*
X175700Y-1324228D01*
X274299Y-1225628D02*
G01*
X333817Y-1166111D01*
X361111Y-1138817D02*
G01*
X392766Y-1107161D01*
X457176Y-1042752D02*
G01*
X492765Y-1007163D01*
X557176Y-942752D02*
G01*
X595700Y-904228D01*
X634299Y-865628D02*
G01*
X790699Y-709228D01*
X9299Y-1469415D02*
G01*
X175700Y-1303015D01*
X274299Y-1204415D02*
G01*
X323210Y-1155504D01*
X350504Y-1128210D02*
G01*
X380595Y-1098119D01*
X448077Y-1030637D02*
G01*
X480595Y-998119D01*
X548077Y-930637D02*
G01*
X595700Y-883015D01*
X634299Y-844415D02*
G01*
X790699Y-688015D01*
X9299Y-1448202D02*
G01*
X175700Y-1281802D01*
X274299Y-1183202D02*
G01*
X312603Y-1144898D01*
X339898Y-1117603D02*
G01*
X371978Y-1085524D01*
X435538Y-1021963D02*
G01*
X471978Y-985524D01*
X535538Y-921963D02*
G01*
X595700Y-861802D01*
X634299Y-823202D02*
G01*
X790699Y-666802D01*
X9299Y-1426988D02*
G01*
X175700Y-1260589D01*
X274299Y-1161988D02*
G01*
X301997Y-1134291D01*
X361786Y-1074502D02*
G01*
X367480Y-1068808D01*
X418856Y-1017432D02*
G01*
X424547Y-1011741D01*
X461786Y-974502D02*
G01*
X467480Y-968808D01*
X518856Y-917432D02*
G01*
X595700Y-840589D01*
X634299Y-801988D02*
G01*
X790699Y-645589D01*
X9299Y-1405775D02*
G01*
X175700Y-1239375D01*
X274299Y-1140775D02*
G01*
X295700Y-1119375D01*
X361327Y-1053748D02*
G01*
X373258Y-1041817D01*
X391665Y-1023410D02*
G01*
X403751Y-1011324D01*
X461327Y-953748D02*
G01*
X473258Y-941817D01*
X491665Y-923410D02*
G01*
X595700Y-819375D01*
X634299Y-780775D02*
G01*
X790699Y-624375D01*
X9299Y-1384562D02*
G01*
X175700Y-1218162D01*
X274299Y-1119562D02*
G01*
X288930Y-1104932D01*
X354983Y-1038879D02*
G01*
X388930Y-1004932D01*
X454983Y-938879D02*
G01*
X595700Y-798162D01*
X634299Y-759562D02*
G01*
X790699Y-603162D01*
X9299Y-1363349D02*
G01*
X175700Y-1196949D01*
X274299Y-1098349D02*
G01*
X277806Y-1094843D01*
X344828Y-1027820D02*
G01*
X377806Y-994843D01*
X444828Y-927820D02*
G01*
X595700Y-776949D01*
X636501Y-736148D02*
G01*
X790699Y-581949D01*
X9299Y-1342136D02*
G01*
X175700Y-1175736D01*
X331315Y-1020120D02*
G01*
X370174Y-981261D01*
X431315Y-920120D02*
G01*
X487369Y-864066D01*
X564066Y-787369D02*
G01*
X595700Y-755736D01*
X636885Y-714550D02*
G01*
X790699Y-560736D01*
X9299Y-1320922D02*
G01*
X175700Y-1154522D01*
X312908Y-1017314D02*
G01*
X367373Y-962849D01*
X412908Y-917314D02*
G01*
X465922Y-864299D01*
X564299Y-765922D02*
G01*
X593705Y-736517D01*
X626517Y-703705D02*
G01*
X790699Y-539522D01*
X9299Y-1299709D02*
G01*
X175700Y-1133309D01*
X274299Y-1034709D02*
G01*
X444709Y-864299D01*
X564299Y-744709D02*
G01*
X592087Y-716922D01*
X606922Y-702087D02*
G01*
X790699Y-518309D01*
X9299Y-1278496D02*
G01*
X114208Y-1173588D01*
X274299Y-1013496D02*
G01*
X423496Y-864299D01*
X564299Y-723496D02*
G01*
X738269Y-549527D01*
X784629Y-503167D02*
G01*
X790699Y-497096D01*
X9299Y-1257283D02*
G01*
X101060Y-1165523D01*
X274299Y-992283D02*
G01*
X402283Y-864299D01*
X460883Y-805700D02*
G01*
X505700Y-760883D01*
X564299Y-702283D02*
G01*
X719447Y-547135D01*
X782200Y-484382D02*
G01*
X790699Y-475883D01*
X9299Y-1236070D02*
G01*
X95405Y-1149964D01*
X274299Y-971070D02*
G01*
X381070Y-864299D01*
X439670Y-805700D02*
G01*
X505700Y-739670D01*
X564299Y-681070D02*
G01*
X705421Y-539948D01*
X774898Y-470471D02*
G01*
X790699Y-454670D01*
X9299Y-1214856D02*
G01*
X155700Y-1068456D01*
X274299Y-949856D02*
G01*
X359856Y-864299D01*
X418456Y-805700D02*
G01*
X505700Y-718456D01*
X564299Y-659856D02*
G01*
X694902Y-529254D01*
X764319Y-459837D02*
G01*
X790699Y-433456D01*
X9299Y-1193643D02*
G01*
X132222Y-1070721D01*
X140421Y-1062522D02*
G01*
X155700Y-1047243D01*
X274299Y-928643D02*
G01*
X338643Y-864299D01*
X397243Y-805700D02*
G01*
X453861Y-749082D01*
X475282Y-727661D02*
G01*
X505700Y-697243D01*
X564299Y-638643D02*
G01*
X683643Y-519299D01*
X750195Y-452748D02*
G01*
X760062Y-442880D01*
X777840Y-425103D02*
G01*
X790699Y-412243D01*
X9299Y-1172430D02*
G01*
X109675Y-1072055D01*
X376030Y-805700D02*
G01*
X437042Y-744687D01*
X470882Y-710848D02*
G01*
X505700Y-676030D01*
X731226Y-450504D02*
G01*
X732175Y-449555D01*
X784634Y-397095D02*
G01*
X790699Y-391030D01*
X9299Y-1151217D02*
G01*
X98606Y-1061911D01*
X354817Y-805700D02*
G01*
X428144Y-732373D01*
X470500Y-690017D02*
G01*
X505700Y-654817D01*
X780479Y-380037D02*
G01*
X790699Y-369817D01*
X9299Y-1130004D02*
G01*
X96572Y-1042731D01*
X112431Y-1026872D02*
G01*
X135700Y-1003604D01*
X333604Y-805700D02*
G01*
X431900Y-707404D01*
X467797Y-671506D02*
G01*
X505700Y-633604D01*
X772198Y-367105D02*
G01*
X790699Y-348604D01*
X9299Y-1108790D02*
G01*
X135700Y-982390D01*
X312390Y-805700D02*
G01*
X430398Y-687692D01*
X457692Y-660398D02*
G01*
X505700Y-612390D01*
X760618Y-357471D02*
G01*
X790699Y-327390D01*
X9299Y-1087577D02*
G01*
X122876Y-974000D01*
X304299Y-792577D02*
G01*
X419791Y-677085D01*
X447085Y-649791D02*
G01*
X686436Y-410441D01*
X745419Y-351457D02*
G01*
X790699Y-306177D01*
X9299Y-1066364D02*
G01*
X105809Y-969855D01*
X304299Y-771364D02*
G01*
X409398Y-666265D01*
X444299Y-631364D02*
G01*
X686550Y-389114D01*
X724118Y-351545D02*
G01*
X790699Y-284964D01*
X9299Y-1045151D02*
G01*
X96744Y-957706D01*
X304299Y-750151D02*
G01*
X405700Y-648751D01*
X444299Y-610151D02*
G01*
X522225Y-532226D01*
X549136Y-505315D02*
G01*
X790699Y-263751D01*
X9299Y-1023938D02*
G01*
X115700Y-917538D01*
X304299Y-728938D02*
G01*
X405700Y-627538D01*
X444299Y-588938D02*
G01*
X507946Y-525291D01*
X544299Y-488938D02*
G01*
X790699Y-242538D01*
X9299Y-1002724D02*
G01*
X115700Y-896324D01*
X304299Y-707724D02*
G01*
X405700Y-606324D01*
X444299Y-567724D02*
G01*
X480264Y-531759D01*
X498670Y-513354D02*
G01*
X500977Y-511046D01*
X543198Y-468826D02*
G01*
X790699Y-221324D01*
X9299Y-981511D02*
G01*
X115700Y-875111D01*
X174299Y-816511D02*
G01*
X204299Y-786511D01*
X240211Y-750600D02*
G01*
X245700Y-745111D01*
X303987Y-686824D02*
G01*
X405700Y-585111D01*
X444299Y-546511D02*
G01*
X462188Y-528623D01*
X495530Y-495281D02*
G01*
X505700Y-485111D01*
X534052Y-456758D02*
G01*
X790699Y-200111D01*
X9299Y-960298D02*
G01*
X115700Y-853898D01*
X174299Y-795298D02*
G01*
X199452Y-770145D01*
X225445Y-744152D02*
G01*
X245700Y-723898D01*
X295946Y-673652D02*
G01*
X405700Y-563898D01*
X444299Y-525298D02*
G01*
X452451Y-517146D01*
X529299Y-440298D02*
G01*
X790699Y-178898D01*
X9299Y-939085D02*
G01*
X115700Y-832685D01*
X174299Y-774085D02*
G01*
X243045Y-705339D01*
X285339Y-663045D02*
G01*
X324085Y-624299D01*
X447990Y-500395D02*
G01*
X455700Y-492685D01*
X529218Y-419167D02*
G01*
X790699Y-157685D01*
X9299Y-917872D02*
G01*
X79787Y-847384D01*
X112469Y-814702D02*
G01*
X115700Y-811472D01*
X174299Y-752872D02*
G01*
X232438Y-694733D01*
X274733Y-652438D02*
G01*
X302872Y-624299D01*
X444299Y-482872D02*
G01*
X456129Y-471043D01*
X522233Y-404938D02*
G01*
X790699Y-136472D01*
X9299Y-896658D02*
G01*
X56962Y-848996D01*
X114011Y-791946D02*
G01*
X115700Y-790258D01*
X174299Y-731658D02*
G01*
X221832Y-684126D01*
X264126Y-641832D02*
G01*
X281658Y-624299D01*
X442950Y-463008D02*
G01*
X469332Y-436626D01*
X511626Y-394332D02*
G01*
X790699Y-115258D01*
X9299Y-875445D02*
G01*
X41124Y-843620D01*
X108552Y-776192D02*
G01*
X111225Y-773519D01*
X174299Y-710445D02*
G01*
X211225Y-673519D01*
X253519Y-631225D02*
G01*
X257330Y-627414D01*
X299045Y-585700D02*
G01*
X405700Y-479045D01*
X433519Y-451225D02*
G01*
X458725Y-426019D01*
X501019Y-383725D02*
G01*
X790699Y-94045D01*
X9299Y-854232D02*
G01*
X29174Y-834357D01*
X99403Y-764128D02*
G01*
X100619Y-762913D01*
X127913Y-735619D02*
G01*
X135700Y-727832D01*
X174231Y-689301D02*
G01*
X200619Y-662913D01*
X242913Y-620619D02*
G01*
X245789Y-617742D01*
X279202Y-584329D02*
G01*
X332370Y-531161D01*
X348061Y-515470D02*
G01*
X395619Y-467913D01*
X422913Y-440619D02*
G01*
X448119Y-415413D01*
X490413Y-373119D02*
G01*
X790699Y-72832D01*
X9299Y-833019D02*
G01*
X20405Y-821913D01*
X86879Y-755439D02*
G01*
X90012Y-752306D01*
X117306Y-725012D02*
G01*
X135700Y-706619D01*
X167306Y-675012D02*
G01*
X190012Y-652306D01*
X232306Y-610012D02*
G01*
X242910Y-599409D01*
X260869Y-581450D02*
G01*
X268019Y-574299D01*
X346111Y-496208D02*
G01*
X385012Y-457306D01*
X412306Y-430012D02*
G01*
X437512Y-404806D01*
X479806Y-362512D02*
G01*
X788266Y-54052D01*
X9299Y-811806D02*
G01*
X15658Y-805447D01*
X70493Y-750612D02*
G01*
X71890Y-749215D01*
X114150Y-706955D02*
G01*
X129405Y-691700D01*
X156700Y-664405D02*
G01*
X179405Y-641700D01*
X221700Y-599405D02*
G01*
X246806Y-574299D01*
X335048Y-486057D02*
G01*
X374405Y-446700D01*
X401700Y-419405D02*
G01*
X426905Y-394200D01*
X469200Y-351905D02*
G01*
X781880Y-39225D01*
X9299Y-790592D02*
G01*
X19300Y-780592D01*
X45636Y-754255D02*
G01*
X51945Y-747947D01*
X112904Y-686988D02*
G01*
X118799Y-681093D01*
X146093Y-653799D02*
G01*
X168799Y-631093D01*
X264192Y-535700D02*
G01*
X304046Y-495846D01*
X312746Y-487146D02*
G01*
X363799Y-436093D01*
X391093Y-408799D02*
G01*
X416299Y-383593D01*
X458593Y-341299D02*
G01*
X772546Y-27346D01*
X9299Y-769379D02*
G01*
X37405Y-741274D01*
X106291Y-672388D02*
G01*
X108192Y-670486D01*
X135486Y-643192D02*
G01*
X158192Y-620486D01*
X242979Y-535700D02*
G01*
X353192Y-425486D01*
X380486Y-398192D02*
G01*
X405692Y-372986D01*
X447986Y-330692D02*
G01*
X537467Y-241212D01*
X583572Y-195107D02*
G01*
X760644Y-18035D01*
X9299Y-748166D02*
G01*
X26295Y-731171D01*
X96130Y-661335D02*
G01*
X97586Y-659880D01*
X124880Y-632586D02*
G01*
X147586Y-609880D01*
X221766Y-535700D02*
G01*
X342586Y-414880D01*
X369880Y-387586D02*
G01*
X395086Y-362380D01*
X437380Y-320086D02*
G01*
X519901Y-237564D01*
X579924Y-177541D02*
G01*
X745778Y-11687D01*
X9299Y-726953D02*
G01*
X18604Y-717649D01*
X82693Y-653559D02*
G01*
X86979Y-649273D01*
X114273Y-621979D02*
G01*
X136979Y-599273D01*
X179273Y-556979D02*
G01*
X331979Y-404273D01*
X359273Y-376979D02*
G01*
X384479Y-351773D01*
X429299Y-306953D02*
G01*
X507022Y-229230D01*
X571590Y-164662D02*
G01*
X726953Y-9299D01*
X9299Y-705740D02*
G01*
X15365Y-699674D01*
X64757Y-650282D02*
G01*
X65327Y-649712D01*
X114634Y-600405D02*
G01*
X126372Y-588667D01*
X168667Y-546372D02*
G01*
X321372Y-393667D01*
X348667Y-366372D02*
G01*
X374117Y-340922D01*
X429299Y-285740D02*
G01*
X497664Y-217375D01*
X559735Y-155304D02*
G01*
X705740Y-9299D01*
X9299Y-684526D02*
G01*
X47366Y-646459D01*
X111418Y-582408D02*
G01*
X115766Y-578060D01*
X158060Y-535766D02*
G01*
X310766Y-383060D01*
X338060Y-355766D02*
G01*
X370700Y-323126D01*
X429299Y-264526D02*
G01*
X455672Y-238153D01*
X482098Y-211727D02*
G01*
X492396Y-201430D01*
X543790Y-150036D02*
G01*
X684526Y-9299D01*
X9299Y-663313D02*
G01*
X33913Y-638700D01*
X103738Y-568875D02*
G01*
X105159Y-567453D01*
X149299Y-523313D02*
G01*
X300159Y-372453D01*
X327453Y-345159D02*
G01*
X370700Y-301913D01*
X429299Y-243313D02*
G01*
X432049Y-240564D01*
X484509Y-188104D02*
G01*
X496253Y-176359D01*
X518719Y-153893D02*
G01*
X663313Y-9299D01*
X9299Y-642100D02*
G01*
X23742Y-627657D01*
X92643Y-558756D02*
G01*
X94553Y-556847D01*
X149299Y-502100D02*
G01*
X289553Y-361847D01*
X316847Y-334553D02*
G01*
X370700Y-280700D01*
X478968Y-172432D02*
G01*
X493295Y-158105D01*
X522014Y-129385D02*
G01*
X642100Y-9299D01*
X9299Y-620887D02*
G01*
X17112Y-613074D01*
X78115Y-552072D02*
G01*
X83946Y-546240D01*
X149299Y-480887D02*
G01*
X278946Y-351240D01*
X306240Y-323946D02*
G01*
X370700Y-259487D01*
X469297Y-160889D02*
G01*
X474584Y-155602D01*
X519387Y-110799D02*
G01*
X620887Y-9299D01*
X9299Y-599674D02*
G01*
X15837Y-593136D01*
X58208Y-550765D02*
G01*
X59581Y-549392D01*
X148652Y-460321D02*
G01*
X268339Y-340634D01*
X295634Y-313339D02*
G01*
X368521Y-240452D01*
X456120Y-152853D02*
G01*
X462480Y-146493D01*
X510292Y-98681D02*
G01*
X599674Y-9299D01*
X9299Y-578460D02*
G01*
X43175Y-544585D01*
X109622Y-478138D02*
G01*
X110700Y-477060D01*
X140027Y-447733D02*
G01*
X258285Y-329475D01*
X297836Y-289924D02*
G01*
X348270Y-239490D01*
X438041Y-149719D02*
G01*
X455344Y-132416D01*
X496199Y-91561D02*
G01*
X578460Y-9299D01*
X9299Y-557247D02*
G01*
X30635Y-535912D01*
X100864Y-465683D02*
G01*
X102126Y-464421D01*
X129421Y-437126D02*
G01*
X255700Y-310847D01*
X296272Y-270275D02*
G01*
X333972Y-232574D01*
X397779Y-168767D02*
G01*
X459023Y-107523D01*
X471212Y-95335D02*
G01*
X557247Y-9299D01*
X9299Y-536034D02*
G01*
X21475Y-523858D01*
X88929Y-456404D02*
G01*
X91520Y-453814D01*
X118814Y-426520D02*
G01*
X253098Y-292235D01*
X285325Y-260008D02*
G01*
X323390Y-221944D01*
X387149Y-158185D02*
G01*
X536034Y-9299D01*
X9299Y-514821D02*
G01*
X15997Y-508124D01*
X73105Y-451016D02*
G01*
X75616Y-448504D01*
X113523Y-410597D02*
G01*
X253583Y-270537D01*
X263627Y-260493D02*
G01*
X316509Y-207611D01*
X372816Y-151304D02*
G01*
X514821Y-9299D01*
X9299Y-493607D02*
G01*
X17502Y-485405D01*
X50330Y-452577D02*
G01*
X54400Y-448507D01*
X113520Y-389387D02*
G01*
X315668Y-187239D01*
X352444Y-150463D02*
G01*
X493607Y-9299D01*
X9299Y-472394D02*
G01*
X39250Y-442444D01*
X107470Y-374224D02*
G01*
X326809Y-154884D01*
X342090Y-139604D02*
G01*
X472394Y-9299D01*
X9299Y-451181D02*
G01*
X27697Y-432784D01*
X97780Y-362700D02*
G01*
X303064Y-157417D01*
X344429Y-116051D02*
G01*
X451181Y-9299D01*
X9299Y-429968D02*
G01*
X19459Y-419809D01*
X84804Y-354463D02*
G01*
X289194Y-150073D01*
X337086Y-102181D02*
G01*
X429968Y-9299D01*
X9299Y-408755D02*
G01*
X15365Y-402690D01*
X67623Y-350432D02*
G01*
X280328Y-137727D01*
X324745Y-93309D02*
G01*
X408755Y-9299D01*
X9299Y-387541D02*
G01*
X22421Y-374420D01*
X39350Y-357491D02*
G01*
X278255Y-118586D01*
X305638Y-91203D02*
G01*
X387541Y-9299D01*
X9299Y-366328D02*
G01*
X366328Y-9299D01*
X9299Y-345115D02*
G01*
X345115Y-9299D01*
X9299Y-323902D02*
G01*
X323902Y-9299D01*
X9299Y-302689D02*
G01*
X302689Y-9299D01*
X9299Y-281475D02*
G01*
X281475Y-9299D01*
X9299Y-260262D02*
G01*
X260262Y-9299D01*
X9299Y-239049D02*
G01*
X239049Y-9299D01*
X9299Y-217836D02*
G01*
X217836Y-9299D01*
X9299Y-196623D02*
G01*
X196623Y-9299D01*
X9299Y-175410D02*
G01*
X175410Y-9299D01*
X9299Y-154196D02*
G01*
X154196Y-9299D01*
X9299Y-132983D02*
G01*
X132983Y-9299D01*
X9299Y-111770D02*
G01*
X111770Y-9299D01*
X9299Y-90557D02*
G01*
X90557Y-9299D01*
X9396Y-69247D02*
G01*
X69247Y-9396D01*
X17960Y-39470D02*
G01*
X39470Y-17960D01*
X740001Y-1817498D02*
G01*
X740001Y-1792498D01*
X720001Y-1812498D02*
G01*
X720001Y-1827498D01*
X700416Y-1822455D02*
G01*
X695001Y-1822455D01*
X700001Y-1802498D02*
G01*
X690001Y-1802498D01*
X690001Y-1812498D01*
X670001Y-1822498D02*
G01*
X660001Y-1822498D01*
X680001Y-1792498D02*
G01*
X680001Y-1812498D01*
X660001Y-1802498D02*
G01*
X660001Y-1822498D01*
X675001Y-1837498D02*
G01*
X695001Y-1837498D01*
D29*
G75*
G01*
X425000Y-1530000D02*
G03*
X375503Y-1530000I-24749J-24749D01*
G75*
G01*
X446213Y-1505000D02*
G03*
X354290Y-1505000I-45962J-45962D01*
G75*
G01*
X467427Y-1480000D02*
G03*
X333076Y-1480000I-67176J-67175D01*
D11*
G75*
G01*
X700003Y-1802499D02*
G02*
X700417Y-1822456I-415J-9991D01*
G75*
G01*
X720003Y-1812499D02*
G02*
X730003Y-1802480I10000J19D01*
G75*
G01*
X730003Y-1802499D02*
G02*
X730003Y-1782500I100J10000D01*
G75*
G01*
X730001Y-1782499D02*
G02*
X739901Y-1792499I-100J-9999D01*
G75*
G01*
X690001Y-1812499D02*
G02*
X686662Y-1823602I-20000J-39D01*
G75*
G01*
X675001Y-1837499D02*
G02*
X659972Y-1822499I-29J15000D01*
G75*
G01*
X680003Y-1812499D02*
G02*
X670003Y-1822518I-10000J-19D01*
D22*
G01*
X65000Y-800000D03*
G01*
X65000Y-700000D03*
G01*
X65000Y-600000D03*
G01*
X65000Y-500000D03*
G01*
X65000Y-400000D03*
G36*
X29567Y-264567D02*
G01*
X29567Y-335432D01*
X100432Y-335432D01*
X100432Y-264567D01*
G37*
G01*
X735000Y-500000D03*
G01*
X735000Y-400000D03*
G36*
X699567Y-269000D02*
G01*
X699567Y-330999D01*
X770433Y-330999D01*
X770433Y-269000D01*
G37*
G36*
X281539Y-998460D02*
G01*
X348460Y-998460D01*
X348460Y-931540D01*
X281539Y-931540D01*
G37*
D26*
G01*
X315000Y-1065000D03*
G01*
X415000Y-965000D03*
G01*
X415000Y-1065000D03*
G01*
X515000Y-965000D03*
G01*
X515000Y-1065000D03*
G01*
X615000Y-965000D03*
G01*
X615000Y-1065000D03*
G01*
X715000Y-965000D03*
G01*
X715000Y-1065000D03*
D27*
G01*
X537800Y-195439D03*
G01*
X439380Y-195430D03*
G01*
X360639Y-195430D03*
G01*
X262210Y-194529D03*
D28*
G01*
X630320Y-124560D03*
G01*
X169690Y-124560D03*
D13*
G01*
X475000Y-508090D03*
G01*
X525000Y-508090D03*
G01*
X275000Y-281909D03*
G01*
X425000Y-508090D03*
G01*
X325000Y-508099D03*
G01*
X451199Y-725000D03*
G01*
X266460Y-605000D03*
G01*
X715019Y-1367699D03*
G01*
X715019Y-1446439D03*
G01*
X715019Y-1525189D03*
G01*
X715019Y-1603930D03*
G01*
X85019Y-1761410D03*
G01*
X85010Y-1840149D03*
G01*
X250000Y-1685000D03*
G01*
X270000Y-1605000D03*
G01*
X119659Y-1150000D03*
G01*
X223600Y-768299D03*
G01*
X119699Y-950000D03*
G01*
X119699Y-1050000D03*
G01*
X605000Y-1705000D03*
G01*
X615000Y-725000D03*
M02*
