G04 Layer: BottomPasteMaskLayer*
G04 EasyEDA v6.4.25, 2021-09-19T13:56:21+08:00*
G04 cf7ef8cfdd7b4478b9a214f7d578d54c,d03eed67808b488db07f83a96349b93e,10*
G04 Gerber Generator version 0.2*
G04 Scale: 100 percent, Rotated: No, Reflected: No *
G04 Dimensions in inches *
G04 leading zeros omitted , absolute positions ,3 integer and 6 decimal *
%FSLAX36Y36*%
%MOIN*%

%ADD10C,0.0001*%

%LPD*%
G36*
X398579Y-1400020D02*
G01*
X392939Y-1400260D01*
X387299Y-1400800D01*
X381700Y-1401680D01*
X376180Y-1402880D01*
X370720Y-1404379D01*
X365360Y-1406200D01*
X360100Y-1408300D01*
X354980Y-1410700D01*
X350000Y-1413400D01*
X345180Y-1416360D01*
X340540Y-1419600D01*
X336079Y-1423100D01*
X331840Y-1426840D01*
X327800Y-1430800D01*
X324000Y-1435000D01*
X320439Y-1439400D01*
X317140Y-1444000D01*
X314120Y-1448779D01*
X311360Y-1453720D01*
X308880Y-1458800D01*
X307740Y-1461399D01*
X305720Y-1466680D01*
X304800Y-1469360D01*
X303220Y-1474800D01*
X301960Y-1480320D01*
X301000Y-1485900D01*
X300360Y-1491519D01*
X300040Y-1497180D01*
X300040Y-1502820D01*
X300360Y-1508480D01*
X301000Y-1514100D01*
X301960Y-1519680D01*
X303220Y-1525200D01*
X304800Y-1530640D01*
X306700Y-1535960D01*
X307740Y-1538600D01*
X310080Y-1543760D01*
X312700Y-1548760D01*
X315600Y-1553640D01*
X318760Y-1558320D01*
X322200Y-1562820D01*
X325880Y-1567120D01*
X327800Y-1569199D01*
X331840Y-1573160D01*
X336079Y-1576900D01*
X340540Y-1580400D01*
X345180Y-1583640D01*
X350000Y-1586600D01*
X354980Y-1589300D01*
X360100Y-1591699D01*
X365360Y-1593800D01*
X370720Y-1595620D01*
X376180Y-1597120D01*
X381700Y-1598320D01*
X387299Y-1599199D01*
X392939Y-1599740D01*
X398579Y-1599980D01*
X404240Y-1599900D01*
X409880Y-1599500D01*
X412700Y-1599199D01*
X418300Y-1598320D01*
X423820Y-1597120D01*
X429280Y-1595620D01*
X434640Y-1593800D01*
X439900Y-1591699D01*
X445020Y-1589300D01*
X450000Y-1586600D01*
X454820Y-1583640D01*
X459460Y-1580400D01*
X463920Y-1576900D01*
X468160Y-1573160D01*
X472200Y-1569199D01*
X476000Y-1565000D01*
X479560Y-1560600D01*
X482860Y-1556000D01*
X485880Y-1551220D01*
X488640Y-1546279D01*
X491120Y-1541200D01*
X492260Y-1538600D01*
X494280Y-1533320D01*
X495200Y-1530640D01*
X496780Y-1525200D01*
X498040Y-1519680D01*
X499000Y-1514100D01*
X499640Y-1508480D01*
X499960Y-1502820D01*
X499960Y-1497180D01*
X499640Y-1491519D01*
X499000Y-1485900D01*
X498040Y-1480320D01*
X496780Y-1474800D01*
X495200Y-1469360D01*
X493300Y-1464040D01*
X492260Y-1461399D01*
X489920Y-1456240D01*
X487299Y-1451240D01*
X484400Y-1446360D01*
X481240Y-1441680D01*
X477800Y-1437180D01*
X474120Y-1432880D01*
X472200Y-1430800D01*
X468160Y-1426840D01*
X463920Y-1423100D01*
X459460Y-1419600D01*
X454820Y-1416360D01*
X450000Y-1413400D01*
X445020Y-1410700D01*
X439900Y-1408300D01*
X434640Y-1406200D01*
X429280Y-1404379D01*
X423820Y-1402880D01*
X418300Y-1401680D01*
X412700Y-1400800D01*
X407060Y-1400260D01*
X401420Y-1400020D01*
G37*
M02*
