G04 Layer: BottomSolderMaskLayer*
G04 EasyEDA v6.4.25, 2021-09-19T13:56:21+08:00*
G04 cf7ef8cfdd7b4478b9a214f7d578d54c,d03eed67808b488db07f83a96349b93e,10*
G04 Gerber Generator version 0.2*
G04 Scale: 100 percent, Rotated: No, Reflected: No *
G04 Dimensions in inches *
G04 leading zeros omitted , absolute positions ,3 integer and 6 decimal *
%FSLAX36Y36*%
%MOIN*%

%ADD36C,0.0749*%
%ADD40C,0.0709*%
%ADD41C,0.0670*%
%ADD42C,0.1379*%
%ADD51C,0.0197*%

%LPD*%
G36*
X400000Y-1544060D02*
G01*
X398120Y-1544240D01*
X396280Y-1544720D01*
X394560Y-1545540D01*
X393760Y-1546040D01*
X392299Y-1547280D01*
X391100Y-1548740D01*
X390160Y-1550380D01*
X389520Y-1552180D01*
X389200Y-1554040D01*
X389200Y-1555940D01*
X389520Y-1557820D01*
X390160Y-1559620D01*
X391100Y-1561260D01*
X392299Y-1562720D01*
X393760Y-1563940D01*
X395400Y-1564900D01*
X397180Y-1565560D01*
X399060Y-1565880D01*
X400000Y-1565940D01*
X401900Y-1565760D01*
X402819Y-1565560D01*
X404600Y-1564900D01*
X406240Y-1563940D01*
X407700Y-1562720D01*
X408900Y-1561260D01*
X409420Y-1560460D01*
X410200Y-1558720D01*
X410680Y-1556900D01*
X410820Y-1555000D01*
X410800Y-1554040D01*
X410480Y-1552180D01*
X409840Y-1550380D01*
X409420Y-1549540D01*
X408340Y-1547980D01*
X407000Y-1546639D01*
X406240Y-1546040D01*
X404600Y-1545100D01*
X403720Y-1544720D01*
X401900Y-1544240D01*
X400959Y-1544100D01*
G37*
G36*
X670000Y-1772500D02*
G01*
X667400Y-1772680D01*
X666100Y-1772880D01*
X663580Y-1773560D01*
X661160Y-1774560D01*
X658880Y-1775860D01*
X656820Y-1777460D01*
X654960Y-1779319D01*
X653379Y-1781380D01*
X652060Y-1783660D01*
X651060Y-1786080D01*
X650380Y-1788600D01*
X650040Y-1791200D01*
X650000Y-1827500D01*
X650180Y-1830100D01*
X650380Y-1831399D01*
X651060Y-1833920D01*
X652060Y-1836339D01*
X653379Y-1838620D01*
X654960Y-1840680D01*
X656820Y-1842540D01*
X658880Y-1844120D01*
X661160Y-1845440D01*
X663580Y-1846440D01*
X666100Y-1847120D01*
X668700Y-1847460D01*
X730000Y-1847500D01*
X732620Y-1847320D01*
X735180Y-1846819D01*
X737660Y-1845980D01*
X740000Y-1844820D01*
X742180Y-1843360D01*
X744140Y-1841639D01*
X745860Y-1839680D01*
X746640Y-1838620D01*
X747940Y-1836339D01*
X748940Y-1833920D01*
X749620Y-1831399D01*
X749960Y-1828800D01*
X750000Y-1792500D01*
X749820Y-1789880D01*
X749320Y-1787320D01*
X748480Y-1784840D01*
X747320Y-1782500D01*
X746640Y-1781380D01*
X745040Y-1779319D01*
X743180Y-1777460D01*
X741120Y-1775860D01*
X738840Y-1774560D01*
X736420Y-1773560D01*
X733900Y-1772880D01*
X731300Y-1772540D01*
G37*
D36*
G01*
X65000Y-800000D03*
G01*
X65000Y-700000D03*
G01*
X65000Y-600000D03*
G01*
X65000Y-500000D03*
G01*
X65000Y-400000D03*
G36*
X27600Y-337399D02*
G01*
X27600Y-262600D01*
X102399Y-262600D01*
X102399Y-337399D01*
G37*
G01*
X735000Y-500000D03*
G01*
X735000Y-400000D03*
G36*
X697600Y-333000D02*
G01*
X697600Y-266999D01*
X772399Y-266999D01*
X772399Y-333000D01*
G37*
G36*
X279499Y-1000500D02*
G01*
X279499Y-929499D01*
X350500Y-929499D01*
X350500Y-1000500D01*
G37*
D40*
G01*
X315000Y-1065000D03*
G01*
X415000Y-965000D03*
G01*
X415000Y-1065000D03*
G01*
X515000Y-965000D03*
G01*
X515000Y-1065000D03*
G01*
X615000Y-965000D03*
G01*
X615000Y-1065000D03*
G01*
X715000Y-965000D03*
G01*
X715000Y-1065000D03*
D41*
G01*
X537800Y-195439D03*
G01*
X439380Y-195430D03*
G01*
X360639Y-195430D03*
G01*
X262210Y-194529D03*
D42*
G01*
X630320Y-124560D03*
G01*
X169690Y-124560D03*
D51*
G75*
G01*
X425000Y-1530000D02*
G03*
X375503Y-1530000I-24749J-24749D01*
G75*
G01*
X446214Y-1505000D02*
G03*
X354291Y-1505000I-45962J-45962D01*
G75*
G01*
X467427Y-1480000D02*
G03*
X333076Y-1480000I-67176J-67175D01*
M02*
