M48
INCH,LZ
;FILE_FORMAT=2:4
;TYPE=PLATED
;Layer: Drill PTH
;EasyEDA v6.4.25, 2021-09-19T13:56:21+08:00
;cf7ef8cfdd7b4478b9a214f7d578d54c,d03eed67808b488db07f83a96349b93e,10
;Gerber Generator version 0.2
;Holesize 1 = 0.0120 inch
T01C0.0120
;Holesize 2 = 0.0390 inch
T02C0.0390
;Holesize 3 = 0.0430 inch
T03C0.0430
;Holesize 4 = 0.0470 inch
T04C0.0470
;Holesize 5 = 0.1020 inch
T05C0.1020
%
G05
G90
T01
X004750Y-005081
X005250Y-005081
X002750Y-002819
X004250Y-005081
X003250Y-005081
X004512Y-007250
X002665Y-006050
X007150Y-013677
X007150Y-014464
X007150Y-015252
X007150Y-016039
X000850Y-017614
X000850Y-018401
X002500Y-016850
X002700Y-016050
X001197Y-011500
X002236Y-007683
X001197Y-009500
X001197Y-010500
X006050Y-017050
X006150Y-007250
T02
X005378Y-001954
X004394Y-001954
X003606Y-001954
X002622Y-001945
T03
X003150Y-009650
X003150Y-010650
X004150Y-009650
X004150Y-010650
X005150Y-009650
X005150Y-010650
X006150Y-009650
X006150Y-010650
X007150Y-009650
X007150Y-010650
T04
X000650Y-008000
X000650Y-007000
X000650Y-006000
X000650Y-005000
X000650Y-004000
X000650Y-003000
X007350Y-005000
X007350Y-004000
X007350Y-003000
T05
X006303Y-001246
X001697Y-001246
M30
