G04 Layer: TopSolderMaskLayer*
G04 EasyEDA v6.4.25, 2021-09-19T13:56:21+08:00*
G04 cf7ef8cfdd7b4478b9a214f7d578d54c,d03eed67808b488db07f83a96349b93e,10*
G04 Gerber Generator version 0.2*
G04 Scale: 100 percent, Rotated: No, Reflected: No *
G04 Dimensions in inches *
G04 leading zeros omitted , absolute positions ,3 integer and 6 decimal *
%FSLAX36Y36*%
%MOIN*%

%ADD35C,0.0260*%
%ADD36C,0.0749*%
%ADD40C,0.0709*%
%ADD41C,0.0670*%
%ADD42C,0.1379*%

%LPD*%
D35*
X225000Y-484762D02*
G01*
X225000Y-531417D01*
X325000Y-484762D02*
G01*
X325000Y-531417D01*
X425000Y-484762D02*
G01*
X425000Y-531417D01*
X475000Y-484762D02*
G01*
X475000Y-531417D01*
X525000Y-484762D02*
G01*
X525000Y-531417D01*
X575000Y-484762D02*
G01*
X575000Y-531417D01*
X275000Y-258582D02*
G01*
X275000Y-305237D01*
X475000Y-258582D02*
G01*
X475000Y-305237D01*
D36*
G01*
X65000Y-800000D03*
G01*
X65000Y-700000D03*
G01*
X65000Y-600000D03*
G01*
X65000Y-500000D03*
G01*
X65000Y-400000D03*
G36*
X27600Y-337399D02*
G01*
X27600Y-262600D01*
X102399Y-262600D01*
X102399Y-337399D01*
G37*
G01*
X735000Y-500000D03*
G01*
X735000Y-400000D03*
G36*
X697600Y-333000D02*
G01*
X697600Y-266999D01*
X772399Y-266999D01*
X772399Y-333000D01*
G37*
G36*
X279499Y-1000500D02*
G01*
X279499Y-929499D01*
X350500Y-929499D01*
X350500Y-1000500D01*
G37*
D40*
G01*
X315000Y-1065000D03*
G01*
X415000Y-965000D03*
G01*
X415000Y-1065000D03*
G01*
X515000Y-965000D03*
G01*
X515000Y-1065000D03*
G01*
X615000Y-965000D03*
G01*
X615000Y-1065000D03*
G01*
X715000Y-965000D03*
G01*
X715000Y-1065000D03*
D41*
G01*
X537800Y-195439D03*
G01*
X439380Y-195430D03*
G01*
X360639Y-195430D03*
G01*
X262210Y-194529D03*
D42*
G01*
X630320Y-124560D03*
G01*
X169690Y-124560D03*
G36*
X205999Y-697600D02*
G01*
X205999Y-672399D01*
X241100Y-672399D01*
X241100Y-697600D01*
G37*
G36*
X248899Y-697600D02*
G01*
X248899Y-672399D01*
X284000Y-672399D01*
X284000Y-697600D01*
G37*
G36*
X205999Y-780900D02*
G01*
X205999Y-755700D01*
X241100Y-755700D01*
X241100Y-780900D01*
G37*
G36*
X248899Y-780900D02*
G01*
X248899Y-755700D01*
X284099Y-755700D01*
X284099Y-780900D01*
G37*
G36*
X248899Y-617600D02*
G01*
X248899Y-592399D01*
X284000Y-592399D01*
X284000Y-617600D01*
G37*
G36*
X205999Y-617600D02*
G01*
X205999Y-592399D01*
X241100Y-592399D01*
X241100Y-617600D01*
G37*
G36*
X248899Y-862600D02*
G01*
X248899Y-837399D01*
X284000Y-837399D01*
X284000Y-862600D01*
G37*
G36*
X205999Y-862600D02*
G01*
X205999Y-837399D01*
X241100Y-837399D01*
X241100Y-862600D01*
G37*
G36*
X337199Y-741799D02*
G01*
X337199Y-708200D01*
X380500Y-708200D01*
X380500Y-741799D01*
G37*
G36*
X429499Y-741799D02*
G01*
X429499Y-708200D01*
X472800Y-708200D01*
X472800Y-741799D01*
G37*
G36*
X441700Y-636500D02*
G01*
X441700Y-573499D01*
X498299Y-573499D01*
X498299Y-636500D01*
G37*
G36*
X351799Y-636500D02*
G01*
X351799Y-573499D01*
X408299Y-573499D01*
X408299Y-636500D01*
G37*
G36*
X721799Y-1169000D02*
G01*
X721799Y-1130999D01*
X757500Y-1130999D01*
X757500Y-1169000D01*
G37*
G36*
X662500Y-1169000D02*
G01*
X662500Y-1130999D01*
X698200Y-1130999D01*
X698200Y-1169000D01*
G37*
G36*
X42500Y-969000D02*
G01*
X42500Y-930999D01*
X78200Y-930999D01*
X78200Y-969000D01*
G37*
G36*
X101799Y-969000D02*
G01*
X101799Y-930999D01*
X137500Y-930999D01*
X137500Y-969000D01*
G37*
G36*
X42500Y-1069000D02*
G01*
X42500Y-1030999D01*
X78200Y-1030999D01*
X78200Y-1069000D01*
G37*
G36*
X101799Y-1069000D02*
G01*
X101799Y-1030999D01*
X137500Y-1030999D01*
X137500Y-1069000D01*
G37*
G36*
X101799Y-1169000D02*
G01*
X101799Y-1130999D01*
X137500Y-1130999D01*
X137500Y-1169000D01*
G37*
G36*
X42500Y-1169000D02*
G01*
X42500Y-1130999D01*
X78200Y-1130999D01*
X78200Y-1169000D01*
G37*
G36*
X43600Y-1861799D02*
G01*
X43600Y-1818499D01*
X126399Y-1818499D01*
X126399Y-1861799D01*
G37*
G36*
X43699Y-1783099D02*
G01*
X43699Y-1739699D01*
X126399Y-1739699D01*
X126399Y-1783099D01*
G37*
G36*
X43600Y-1704400D02*
G01*
X43600Y-1660999D01*
X126399Y-1660999D01*
X126399Y-1704400D01*
G37*
G36*
X43699Y-1625599D02*
G01*
X43699Y-1582199D01*
X126399Y-1582199D01*
X126399Y-1625599D01*
G37*
G36*
X43600Y-1546900D02*
G01*
X43600Y-1503499D01*
X126399Y-1503499D01*
X126399Y-1546900D01*
G37*
G36*
X43600Y-1468099D02*
G01*
X43600Y-1424800D01*
X126399Y-1424800D01*
X126399Y-1468099D01*
G37*
G36*
X43699Y-1389400D02*
G01*
X43699Y-1345999D01*
X126399Y-1345999D01*
X126399Y-1389400D01*
G37*
G36*
X43699Y-1310599D02*
G01*
X43699Y-1267300D01*
X126500Y-1267300D01*
X126500Y-1310599D01*
G37*
G36*
X181599Y-1271199D02*
G01*
X181599Y-1188499D01*
X225000Y-1188499D01*
X225000Y-1271199D01*
G37*
G36*
X260300Y-1271300D02*
G01*
X260300Y-1188499D01*
X303699Y-1188499D01*
X303699Y-1271300D01*
G37*
G36*
X339000Y-1271300D02*
G01*
X339000Y-1188499D01*
X382399Y-1188499D01*
X382399Y-1271300D01*
G37*
G36*
X417800Y-1271300D02*
G01*
X417800Y-1188499D01*
X461199Y-1188499D01*
X461199Y-1271300D01*
G37*
G36*
X496500Y-1271300D02*
G01*
X496500Y-1188600D01*
X539899Y-1188600D01*
X539899Y-1271300D01*
G37*
G36*
X575199Y-1271199D02*
G01*
X575199Y-1188499D01*
X618499Y-1188499D01*
X618499Y-1271199D01*
G37*
G36*
X673600Y-1310599D02*
G01*
X673600Y-1267300D01*
X756399Y-1267300D01*
X756399Y-1310599D01*
G37*
G36*
X673699Y-1389400D02*
G01*
X673699Y-1345999D01*
X756399Y-1345999D01*
X756399Y-1389400D01*
G37*
G36*
X673699Y-1468099D02*
G01*
X673699Y-1424800D01*
X756399Y-1424800D01*
X756399Y-1468099D01*
G37*
G36*
X673699Y-1546900D02*
G01*
X673699Y-1503499D01*
X756399Y-1503499D01*
X756399Y-1546900D01*
G37*
G36*
X673699Y-1625599D02*
G01*
X673699Y-1582199D01*
X756399Y-1582199D01*
X756399Y-1625599D01*
G37*
G36*
X673699Y-1704400D02*
G01*
X673699Y-1660999D01*
X756399Y-1660999D01*
X756399Y-1704400D01*
G37*
G36*
X673699Y-1783099D02*
G01*
X673699Y-1739699D01*
X756399Y-1739699D01*
X756399Y-1783099D01*
G37*
G36*
X673699Y-1861799D02*
G01*
X673699Y-1818499D01*
X756399Y-1818499D01*
X756399Y-1861799D01*
G37*
G36*
X336999Y-877500D02*
G01*
X336999Y-822500D01*
X410199Y-822500D01*
X410199Y-877500D01*
G37*
G36*
X469800Y-877500D02*
G01*
X469800Y-822500D01*
X543000Y-822500D01*
X543000Y-877500D01*
G37*
G36*
X685999Y-841799D02*
G01*
X685999Y-799299D01*
X787200Y-799299D01*
X787200Y-841799D01*
G37*
G36*
X685999Y-751300D02*
G01*
X685999Y-708699D01*
X787200Y-708699D01*
X787200Y-751300D01*
G37*
G36*
X685999Y-660700D02*
G01*
X685999Y-618200D01*
X787200Y-618200D01*
X787200Y-660700D01*
G37*
M02*
